<svg width="4550" height="4102" viewBox="0 0 4550 4102" fill="none" xmlns="http://www.w3.org/2000/svg">
<g clip-path="url(#clip0_9001_4267)">
<path d="M977.614 928.113C987.154 927.873 996.872 928.313 1006.41 928.113C1023.61 927.873 1041.05 928.313 1058.25 928.113C1146.45 927.393 1234.98 928.113 1323.2 928.113C1334.68 928.113 1346.28 928.113 1357.76 928.113C1361.52 938.032 1380.44 933.814 1389.44 933.874C1415.35 934.074 1441.35 933.874 1467.19 933.874C1474.83 933.894 1482.59 933.874 1490.23 933.874L1493.11 939.631C1511.35 939.631 1529.65 939.431 1547.83 939.631C1563.13 939.631 1578.6 939.431 1593.9 939.631L1596.78 945.392C1607.34 945.592 1617.96 945.192 1628.46 945.392C1630.38 945.392 1632.3 945.392 1634.22 945.392L1637.1 951.154H1691.82C1704.74 957.234 1736.02 956.692 1752.3 962.672C1757.18 964.472 1783.46 977.691 1786.86 979.951C1793.28 984.211 1813.5 1004.91 1818.54 1011.63C1819.4 1012.79 1817.58 1016.03 1818.54 1017.39C1822.66 1023.31 1833.82 1033.13 1835.82 1040.43C1837.12 1045.23 1834.68 1052.47 1835.82 1057.71C1836.3 1059.97 1841.25 1061.33 1841.57 1063.47C1843.01 1072.85 1841.19 1084.99 1841.57 1095.15C1842.05 1107.53 1841.25 1120.13 1841.57 1132.59L1847.33 1135.46C1847.33 1139.26 1847.33 1143.16 1847.33 1146.98C1847.71 1206.4 1847.13 1266.08 1847.33 1325.5C1847.33 1331.24 1847.33 1337.04 1847.33 1342.78C1837.41 1346.54 1841.63 1365.45 1841.57 1374.45C1841.37 1390.77 1841.57 1407.15 1841.57 1423.39C1862.63 1423.59 1883.89 1423.17 1904.93 1423.39C1910.65 1423.39 1916.49 1423.39 1922.21 1423.39L1925.09 1429.15C1937.57 1429.35 1950.11 1428.89 1962.53 1429.15C1966.33 1429.15 1970.25 1428.95 1974.05 1429.15L1976.93 1434.91H2002.84C2019.54 1446.97 2111.4 1462.29 2143.96 1475.21C2204.04 1499.07 2290.13 1583.88 2319.63 1639.32C2330.19 1659.18 2339.83 1691.34 2354.19 1711.3V1731.45L2359.95 1734.33C2360.15 1736.29 2359.61 1738.38 2359.95 1740.1V1760.26L2365.71 1763.13C2365.91 1765.05 2365.71 1766.97 2365.71 1768.89C2366.25 1787.03 2365.33 1805.39 2365.71 1823.59L2371.47 1826.47C2371.67 1841.75 2371.75 1857.27 2371.47 1872.53L2365.71 1875.41V1924.35C2362.95 1930.21 2357.31 1957.22 2354.19 1967.52C2341.91 2008.06 2313.15 2077.92 2290.83 2111.48C2283.01 2123.21 2235.36 2176.31 2224.6 2183.45C2213.92 2190.55 2197.22 2198.5 2184.28 2206.5C2148.7 2228.51 2113.58 2246.71 2074.84 2258.31C2051.94 2265.17 2017.43 2266.71 1997.09 2281.35H1976.93L1974.05 2287.11C1970.25 2287.31 1965.85 2286.45 1962.53 2287.11H1936.61L1933.73 2292.87C1931.81 2292.87 1929.89 2292.87 1927.97 2292.87C1913.65 2293.23 1899.17 2292.61 1884.77 2292.87L1881.89 2298.63C1878.07 2298.63 1874.19 2298.63 1870.37 2298.63C1857.96 2298.83 1845.41 2298.43 1832.94 2298.63L1830.05 2304.39C1828.13 2304.39 1826.21 2304.39 1824.29 2304.39C1816.67 2304.59 1808.9 2304.19 1801.26 2304.39C1801.26 2344.63 1801.26 2385.09 1801.26 2425.3C1801.26 2434.84 1801.26 2444.54 1801.26 2454.1L1795.5 2456.98C1795.08 2477.12 1796.1 2497.38 1795.5 2517.44C1795.5 2519.36 1795.7 2521.28 1795.5 2523.2L1789.73 2526.08C1789.73 2535.48 1792.28 2543.7 1783.98 2549.12V2557.76C1766.26 2549.42 1733.54 2553.78 1711.98 2552C1626.12 2544.92 1548.63 2552 1464.31 2557.76C1440.11 2559.42 1412.94 2552.58 1392.32 2563.51C1391.58 2557.05 1393.5 2549.3 1392.32 2543.36C1379.64 2479.34 1379.16 2410.36 1363.52 2347.57C1334.12 2229.65 1277.64 2080.16 1170.56 2004.94C1160.56 1997.92 1148.32 1986.47 1136.01 1981.91C1115.01 1974.15 1084.11 1970.35 1061.13 1964.63C1007.31 1951.25 956.556 1948.79 899.859 1958.87C821.523 1972.78 767.487 1981.68 692.51 2016.44C680.531 2022 652.331 2042.48 640.672 2051C573.495 2100.02 528.915 2160.04 488.037 2232.39C462.099 2278.31 455.46 2321.83 441.96 2370.58C427.241 2423.74 410.36 2488.66 401.64 2543.34C400.38 2551.28 402.48 2560.92 401.64 2569.26H202.929C176.31 2584.78 140.533 2578.34 110.775 2586.54C107.615 2587.42 102.497 2597.09 99.2568 2598.05C95.097 2599.29 86.098 2596.81 84.8581 2598.05H76.2159C66.4364 2588.45 54.9789 2577.92 50.2991 2566.38C48.8392 2562.8 51.7391 2555.04 50.2991 2551.98C53.879 2533.3 43.3978 2520.54 44.5377 2503.04L38.7762 2500.16C38.4963 2496.38 38.7762 2492.44 38.7762 2488.64C37.3163 2416.96 27.7582 2349.18 27.2582 2272.71C27.2582 2263.71 31.4212 2244.79 21.5017 2241.03C21.4817 2239.11 21.5017 2237.19 21.5017 2235.27C19.0818 2077.92 7.74204 1917.23 4.2222 1760.21C2.62228 1689.2 11.9018 1603.52 4.2222 1541.4C-4.55738 1470.29 2.86227 1354.83 4.2222 1279.4C4.4222 1273.68 4.02221 1267.84 4.2222 1262.12L9.97877 1259.24V1233.32C11.4587 1230.18 12.5404 1200.62 15.7402 1190.14C22.2599 1168.76 35.8381 1147.84 44.5377 1126.8C46.9376 1121.01 48.2592 1104.93 50.2991 1098.01C51.8191 1092.87 66.1787 1085.52 67.5786 1083.6L84.8581 1066.33C94.7976 1059.03 109.133 1035.87 122.293 1026.03C133.832 1017.41 164.253 1003.23 179.893 997.231C198.932 989.931 222.849 987.111 240.368 979.951H260.529L263.409 974.19C265.369 973.99 267.446 974.53 269.166 974.19H295.087L297.968 968.433C301.768 968.233 306.186 969.093 309.486 968.433H329.646L332.527 962.672C337.707 962.432 347.162 963.912 349.802 962.672H369.962L372.843 956.91C376.642 956.71 381.061 957.57 384.361 956.91H404.521L407.402 951.154C411.201 950.954 415.12 951.354 418.92 951.154C435.139 950.594 451.578 951.554 467.877 951.154L470.758 945.392C476.478 945.392 482.318 945.392 488.037 945.392C510.056 945.192 532.196 945.592 554.275 945.392L557.155 939.631C566.715 939.631 576.393 939.631 585.953 939.631C606.052 939.431 626.269 939.631 646.428 939.631L649.309 933.874C676.108 933.674 703.146 933.894 729.945 933.874C774.743 933.874 915.876 940.892 943.055 928.113C947.035 926.233 969.294 928.333 977.614 928.113ZM1524.79 1049.05L1501.75 1051.93C1498.71 1059.67 1491.67 1074.77 1504.63 1077.85C1510.27 1079.19 1518.41 1077.01 1524.79 1077.85V1049.05ZM1657.26 1187.24C1660.74 1183.76 1655.92 1167.32 1648.62 1164.2C1641.78 1162.32 1632.34 1171.76 1634.22 1178.6C1637.32 1185.9 1653.78 1190.72 1657.26 1187.24ZM1265.6 1244.84C1287.62 1249.1 1319.34 1242.66 1303.04 1216.04C1287.76 1191.1 1254.06 1210.58 1259.84 1230.44C1260.7 1233.42 1268.72 1235.4 1265.6 1244.84ZM1472.95 1244.84L1478.71 1224.68C1472.41 1220.58 1471.49 1206.48 1464.31 1204.52C1441.85 1198.38 1416.43 1217.34 1429.75 1239.08C1436.05 1249.34 1446.79 1253.2 1458.55 1250.6C1461.09 1250.04 1463.63 1241.68 1472.95 1244.84ZM822.104 1313.93C820.944 1301.98 823.784 1288.01 822.104 1276.5C821.884 1275.06 817.642 1258.18 816.342 1253.46C815.762 1251.34 811.701 1250.16 810.581 1247.7C809.741 1245.86 811.301 1243.1 810.581 1241.94C799.121 1223.86 776.304 1236.22 781.783 1253.46C782.523 1255.82 787.045 1257.04 787.545 1259.22C790.065 1270.22 790.282 1289.38 793.301 1299.52C794.201 1302.52 802.163 1304.48 799.063 1313.92L822.104 1313.93ZM692.51 1302.42C688.41 1308.72 674.31 1309.64 672.35 1316.82C666.43 1338.49 678.208 1340.85 683.868 1351.37C691.028 1364.69 699.029 1385.51 706.909 1397.43C714.609 1409.07 729.584 1421.67 744.344 1417.59C745.324 1417.31 758.462 1404.17 758.742 1403.19C764.802 1381.17 751.587 1363.51 741.468 1345.61C740.648 1344.15 740.908 1342.1 741.468 1339.86C727.289 1324.04 719.209 1301.58 692.51 1302.42ZM1421.11 1457.89C1419.45 1447.83 1430.08 1442.79 1426.88 1431.97C1426.48 1430.61 1408.09 1412.21 1406.71 1411.81C1399.8 1409.83 1376.84 1419.61 1375.04 1426.21C1371.86 1437.83 1377.6 1460.35 1389.44 1463.65C1402.01 1467.15 1409.99 1458.11 1421.11 1457.89ZM536.995 1463.65C526.176 1470.81 514.096 1477.79 505.317 1489.57C491.897 1507.57 478.076 1533.08 464.996 1552.9C389.26 1667.64 312.087 1780.11 246.13 1904.17C244.35 1907.51 242.148 1918.39 240.368 1921.45C231.669 1936.48 219.07 1932.94 243.249 1953.12C251.669 1955.54 265.787 1940.22 272.047 1935.84C330.404 1894.91 368.303 1825.97 407.402 1765.97C457.559 1689.02 509.939 1608.34 545.637 1524.12C569.336 1504.45 572.253 1464.73 536.995 1463.65ZM634.91 1521.22C625.651 1523.72 624.053 1544.82 626.273 1552.9C627.133 1556.06 648.369 1578.42 649.309 1581.7C658.649 1614.24 674.089 1648.98 683.868 1679.6C686.528 1687.92 682.387 1694.68 695.386 1702.64C701.006 1706.08 709.827 1707.1 715.546 1705.52C724.366 1703.1 732.085 1677.2 729.945 1668.08C729.405 1665.8 724.568 1664.5 724.188 1662.32C722.928 1655.28 725.588 1646.1 724.188 1639.28C720.089 1619.2 690.106 1557.56 678.107 1541.38C667.387 1526.97 653.51 1516.18 634.91 1521.22ZM1547.83 1613.36C1558.95 1613.58 1566.93 1622.62 1579.5 1619.12C1580.48 1618.84 1593.62 1605.7 1593.9 1604.72C1603.28 1570.66 1562.15 1553.59 1547.83 1575.92C1547.83 1584.52 1538.97 1588.62 1542.07 1598.96C1542.97 1602 1550.95 1603.92 1547.83 1613.36ZM614.75 1705.5C610.85 1701.48 596.234 1706.98 591.714 1714.14C582.055 1729.39 571.911 1735.92 562.912 1748.69C561.732 1750.37 561.934 1759.79 554.275 1763.09C550.595 1754.63 539.355 1753.3 536.995 1751.58C514.876 1735.42 502.518 1696.7 476.519 1731.42C483.839 1736.09 484.998 1749.86 488.037 1754.46C497.077 1768.08 527.436 1783.65 522.596 1800.51C521.816 1803.19 513.738 1808.11 511.078 1812.03C490.319 1842.57 466.258 1878.35 436.199 1904.17C431.399 1908.29 423.099 1907.91 418.92 1915.69C422.099 1935.97 435.918 1930.59 450.598 1924.33C465.837 1907.41 484.756 1892.51 499.555 1875.39C500.515 1874.29 498.615 1870.71 499.555 1869.63C513.795 1853.25 528.137 1836.73 542.757 1820.69C551.556 1818.27 563.354 1837.77 571.554 1843.73C572.754 1844.59 575.935 1842.79 577.315 1843.73C581.235 1846.39 586.194 1854.53 588.833 1855.25C596.913 1857.47 617.972 1855.89 620.512 1846.61C627.731 1820.23 591.514 1795.11 574.435 1783.27L608.994 1731.45C609.554 1725.01 619.37 1710.32 614.75 1705.54V1705.5ZM1380.79 2102.82L1400.95 2108.58L1423.99 2097.06C1451.59 2065.8 1474.01 2031.26 1490.23 1996.29C1494.01 1988.15 1494.47 1982.35 1495.99 1979.01C1499.07 1972.27 1512.19 1955.08 1513.27 1950.2C1515.15 1941.74 1514.35 1921.63 1504.63 1918.53C1493.45 1914.99 1490.61 1933.77 1484.47 1938.69C1460.97 1984.12 1429.95 2048.12 1389.44 2074C1378.36 2081.08 1380.43 2090.64 1380.79 2102.82ZM177.012 2033.72L182.773 2013.56C175.034 1999.22 168.074 1990.62 151.095 1987.64C136.756 1995.38 128.153 2002.34 125.174 2019.32C131.473 2023.42 132.393 2037.52 139.572 2039.48C152.932 2043.12 164.393 2035.56 177.012 2033.72ZM372.843 2097.06C371.183 2087 381.804 2081.96 378.604 2071.14C374.144 2056.06 336.947 2049.42 332.527 2065.38C326.427 2087.44 338.445 2099 358.444 2102.82L372.843 2097.06ZM1455.67 2148.88C1445.69 2170.97 1476.51 2190.15 1478.71 2197.81C1482.67 2211.63 1471.75 2213.28 1467.19 2220.85C1458.41 2235.43 1448.73 2253.15 1438.39 2266.91C1429.45 2278.81 1422.35 2280.35 1415.35 2295.71C1414.21 2298.21 1410.06 2299.43 1409.6 2301.47C1404.04 2326.33 1417.51 2334.39 1435.51 2344.65L1458.55 2338.89C1463.99 2330.65 1473.97 2320.47 1478.71 2312.97C1486.53 2300.61 1493.93 2279.27 1501.75 2266.91C1504.87 2261.97 1512.31 2257.59 1516.15 2252.51C1534.93 2277.09 1543.15 2308.21 1567.99 2327.37C1587.51 2342.43 1602.9 2321.51 1599.66 2301.45C1573.87 2271.93 1561.43 2236.39 1536.31 2209.31C1550.37 2189.41 1558.45 2166.49 1565.11 2145.98C1565.87 2143.6 1570.39 2142.39 1570.87 2140.21C1574.57 2123.72 1569.47 2112.46 1556.47 2102.78C1552.19 2105.2 1537.03 2107.78 1536.31 2108.54C1535.23 2109.64 1537.83 2114.46 1536.31 2117.18C1534.09 2121.16 1526.99 2124.72 1524.79 2128.7C1520.85 2135.82 1517.33 2151.19 1513.27 2157.49C1511.29 2160.55 1507.05 2163 1504.63 2166.14C1485.53 2162.66 1477.43 2143.52 1455.67 2148.88ZM102.138 2241.01L116.536 2246.77C140.695 2228.49 131.476 2215.09 102.138 2217.97V2241.01ZM338.284 2304.35L358.444 2310.11C376.863 2295.09 376.543 2290.37 358.444 2275.55L338.284 2281.31V2304.35ZM165.494 2361.95C162.014 2365.43 166.832 2381.86 174.131 2384.98C180.971 2386.86 190.41 2377.42 188.53 2370.58C185.43 2363.28 168.974 2358.47 165.494 2361.95ZM1530.55 2459.82C1534.89 2442.36 1525.01 2435.14 1519.03 2422.38C1517.69 2419.5 1520.13 2414.67 1519.03 2410.87C1518.73 2409.81 1509.89 2397.33 1507.51 2393.59C1502.97 2386.45 1496.77 2385.76 1490.23 2382.06L1472.95 2384.94C1469.17 2411.22 1489.05 2427.54 1501.75 2445.4C1502.59 2446.58 1500.81 2449.7 1501.75 2451.16C1508.83 2462.24 1518.37 2460.18 1530.55 2459.82Z" fill="black"/>
<path d="M84.8603 2598.04C86.1003 2596.8 95.0993 2599.28 99.2591 2598.04C102.499 2597.08 107.617 2587.4 110.777 2586.52C140.536 2578.32 176.312 2584.76 202.931 2569.24H401.642C402.482 2560.92 400.382 2551.26 401.642 2543.32C410.362 2488.64 427.243 2423.73 441.963 2370.57C455.462 2321.81 462.101 2278.28 488.04 2232.38C528.918 2160.04 573.497 2100 640.674 2050.99C652.334 2042.49 680.533 2021.99 692.513 2016.43C767.489 1981.67 821.525 1972.77 899.861 1958.85C956.559 1948.77 1007.32 1951.23 1061.13 1964.61C1084.11 1970.33 1115.01 1974.11 1136.01 1981.89C1148.33 1986.45 1160.57 1997.91 1170.57 2004.93C1277.64 2080.14 1334.12 2229.64 1363.52 2347.55C1379.16 2410.33 1379.64 2479.33 1392.32 2543.35C1393.5 2549.29 1391.58 2557.04 1392.32 2563.5C1412.94 2552.56 1440.11 2559.4 1464.31 2557.74C1548.63 2551.96 1626.13 2544.9 1711.98 2551.98C1733.54 2553.76 1766.26 2549.4 1783.98 2557.74C1784.28 2557.94 1783.04 2562.52 1786.86 2563.5H1795.5C1798.86 2570.66 1805.96 2578.66 1807.02 2580.78C1808.52 2583.76 1803.8 2592.92 1812.78 2592.3C1815.92 2627.92 1808.5 2669.86 1812.78 2704.6C1813.04 2706.7 1818.14 2708.15 1818.54 2710.35C1826.28 2753.89 1824.58 2804.65 1830.06 2848.55C1831.1 2856.89 1831.46 2875.31 1830.06 2883.1C1829.68 2885.22 1825.06 2886.49 1824.3 2888.87C1823.2 2892.29 1825.34 2896.78 1824.3 2900.38C1823.52 2903.06 1815.44 2907.99 1812.78 2911.91C1811.84 2913.29 1813.64 2916.46 1812.78 2917.66C1810.42 2920.9 1794 2937.42 1792.62 2937.82C1789.02 2938.86 1784.52 2936.72 1781.1 2937.82C1778.72 2938.58 1777.46 2943.21 1775.34 2943.59C1763.52 2945.69 1747.74 2942.25 1735.02 2943.59C1660.79 2951.39 1583.37 2957.36 1510.39 2966.62C1499.53 2968 1486.11 2964.8 1475.84 2966.62C1461.04 2969.24 1369.72 3008.58 1354.88 3018.44C1340.5 3028 1316.6 3056.96 1303.04 3064.5C1300.32 3066.02 1295.48 3063.42 1294.4 3064.5C1293.32 3065.58 1295.92 3070.42 1294.4 3073.14C1289.94 3081.12 1278.68 3089.98 1271.36 3101.94C1257.72 3124.24 1240.55 3156.39 1231.05 3182.55C1222.41 3206.35 1205.14 3251.19 1202.24 3274.69C1200.66 3287.47 1203.82 3302.21 1202.24 3314.99C1201.72 3319.17 1193.55 3327.73 1196.49 3343.79C1204.13 3385.62 1213.41 3430.2 1225.29 3470.46C1235.34 3504.56 1237.07 3509.14 1259.84 3539.56C1279.76 3566.18 1293.1 3575.17 1320.32 3594.25C1330.8 3601.59 1343.8 3610.73 1354.88 3617.29C1382.56 3633.65 1417.17 3639.55 1447.03 3646.09C1502.59 3658.23 1561.65 3663.75 1619.83 3669.13C1685.28 3675.17 1754.06 3671.39 1815.66 3686.41C1821.2 3695.95 1844.86 3703.27 1847.34 3712.33C1849.36 3719.67 1846.04 3732.33 1847.34 3741.13C1851.54 3769.4 1851.36 3791.36 1853.1 3821.74C1856.66 3883.72 1855.02 3932.98 1847.34 3994.49C1846.3 4002.85 1845.96 4021.19 1847.34 4029.05C1847.74 4031.31 1856.26 4034.19 1853.1 4043.45H1841.57C1840.49 4044.53 1843.09 4049.37 1841.57 4052.09C1836.2 4061.75 1819.04 4069.15 1809.9 4072.25C1806 4073.57 1798.46 4070.85 1795.5 4072.25H1775.34L1772.46 4078.01C1770.54 4078.01 1768.62 4078.01 1766.7 4078.01C1564.53 4084.85 1356.38 4076.69 1153.29 4078.01C1144.29 4078.01 1125.35 4073.85 1121.61 4083.77C1090.97 4083.77 1060.09 4083.77 1029.45 4083.77C986.337 4083.77 943.039 4083.49 899.861 4083.77C890.862 4083.77 871.923 4079.61 868.183 4089.53C858.623 4089.53 848.945 4089.53 839.386 4089.53C773.229 4089.53 706.891 4089.11 640.674 4089.53C631.675 4089.53 612.736 4085.37 608.996 4095.29C587.937 4095.29 566.699 4095.29 545.64 4095.29C452.624 4095.29 359.388 4094.69 266.292 4095.29C257.293 4095.29 238.354 4091.13 234.614 4101.05C225.074 4101.05 215.351 4101.25 205.812 4101.05L202.931 4095.29C192.371 4095.09 181.752 4095.49 171.253 4095.29C157.893 4095.09 144.277 4095.77 130.937 4095.29L128.057 4089.53H107.896C103.117 4087.57 98.3374 4085.77 93.4976 4083.77C90.2378 4082.41 85.2994 4085.11 81.9796 4083.77C73.36 4080.31 66.1383 4071.55 58.9387 4066.49C57.6387 4065.57 54.4421 4067.39 53.1821 4066.49C49.0623 4063.53 50.5614 4060.93 50.3014 4060.73V4052.09L38.7785 4043.45C38.5785 4043.17 34.8218 4044.65 33.0219 4040.57C31.782 4037.78 33.9019 4033.89 33.0219 4031.93V4011.77L27.2605 4008.89C27.0605 4005.09 27.4605 4001.17 27.2605 3997.37L33.0219 3994.49V3936.92L27.2605 3934.04C26.6605 3853.52 27.4605 3772.7 27.2605 3692.19C37.18 3688.43 32.9619 3669.53 33.0219 3660.51C33.3219 3620.23 33.2819 3579.88 33.0219 3539.6C33.0219 3530.6 37.18 3511.68 27.2605 3507.92V3467.62C27.2605 3380.36 27.8204 3292.93 27.2605 3205.61C27.2605 3196.61 31.4234 3177.69 21.5039 3173.93C21.5039 3154.79 21.5039 3135.49 21.5039 3116.36L27.2605 3113.47V3096.2L21.5039 3093.32C21.5039 3078.02 21.5039 3062.56 21.5039 3047.26C31.4234 3043.5 27.2005 3024.6 27.2605 3015.58C27.7604 2949.38 27.0605 2883.07 27.2605 2816.91C27.2605 2813.11 27.2605 2809.21 27.2605 2805.39L33.0219 2802.51C33.5619 2780.47 32.282 2758.25 33.0219 2736.3C33.0219 2734.38 33.0219 2732.45 33.0219 2730.53L38.7785 2727.65V2707.49C40.5584 2703.71 37.4186 2693.16 38.7785 2687.34C43.5183 2667.04 59.4412 2643.48 67.5808 2624C68.8808 2620.9 66.5809 2616.36 67.5808 2615.36C68.3208 2614.62 78.8406 2617.3 84.8603 2606.72C86.4002 2604.02 83.7804 2599.16 84.8603 2598.08V2598.04ZM1006.41 2010.69C994.594 2009.33 982.938 2001.09 968.979 2004.93C955.6 2008.61 932.018 2056.01 925.778 2071.15C920.838 2083.15 910.218 2105.5 908.498 2117.2C906.939 2127.9 909.878 2140.84 908.498 2151.76C908.219 2153.9 902.922 2155.44 902.742 2157.52C900.082 2186.68 898.722 2256.68 902.742 2284.2C903.062 2286.34 908.059 2287.71 908.498 2289.95C920.898 2351.95 959.216 2408.21 989.134 2462.7C1017.43 2514.24 1039.55 2564.74 1064.01 2618.18C1077.79 2648.28 1080.41 2659.9 1087.05 2693.04C1087.49 2695.28 1092.49 2696.66 1092.81 2698.8C1100.65 2752.29 1082.93 2824.47 1069.77 2871.55C1056.77 2918.01 1036.29 2966.6 1029.45 3015.5C1025.85 3041.26 1019.94 3074.14 1017.94 3096.12C1015.18 3126.46 1013.74 3199.91 1017.94 3228.55C1018.26 3230.69 1023.25 3232.07 1023.69 3234.31C1028.49 3258.33 1029.01 3263.25 1040.97 3286.13C1067.07 3336.11 1099.35 3374.72 1115.85 3430.08C1125.03 3460.86 1128.17 3489.32 1133.13 3522.22C1133.45 3524.38 1138.67 3525.9 1138.89 3527.98C1142.89 3566.8 1137.39 3609.63 1127.37 3643.15C1120.73 3665.31 1110.79 3687.15 1104.33 3712.25C1102.51 3719.29 1093.51 3741.12 1092.81 3746.8C1089.23 3775.74 1091.01 3837.14 1098.57 3861.98C1104.85 3882.58 1115.31 3905.6 1121.61 3925.32C1122.71 3928.74 1120.57 3933.22 1121.61 3936.84C1122.21 3938.94 1138.75 3957.36 1141.77 3962.76L1164.81 3968.52C1181.13 3961.18 1195.63 3943.12 1190.73 3925.34C1189.85 3922.18 1180.13 3917.04 1179.21 3913.82C1174.63 3897.9 1173.15 3876.74 1167.69 3862C1166.53 3858.84 1156.63 3846.82 1156.17 3844.72C1148.93 3811.26 1157.41 3738.53 1167.69 3706.53C1174.29 3685.99 1185.21 3664.49 1190.73 3643.19C1207.11 3579.89 1193.27 3484.76 1179.21 3424.38C1171.71 3392.18 1158.99 3357.41 1144.65 3326.49C1133.35 3302.13 1113.83 3277.25 1104.33 3251.63C1103.27 3248.79 1098.75 3235.33 1098.57 3234.35C1091.21 3193.07 1099.03 3097.6 1104.33 3055.84C1108.77 3020.86 1117.97 2985.12 1127.37 2952.18C1144.65 2891.67 1161.21 2840.61 1173.45 2779.43C1173.89 2777.19 1178.89 2775.81 1179.21 2773.67C1182.31 2752.43 1181.51 2698.03 1179.21 2675.78C1178.99 2673.7 1173.77 2672.18 1173.45 2670.02C1167.21 2628.6 1165.87 2622.06 1150.41 2583.64C1126.89 2525.18 1104.91 2467.89 1075.53 2410.89C1054.73 2370.53 1025.09 2329.67 1006.41 2284.22C997.914 2263.52 998.756 2259.92 994.896 2238.16C994.496 2235.96 989.394 2234.52 989.134 2232.4C984.755 2196.86 984.756 2104.21 994.896 2076.93C998.676 2066.73 1002.41 2061.94 1006.41 2048.12C1007.09 2045.8 1011.66 2044.59 1012.18 2042.37C1015.34 2028.87 1006.67 2021.91 1006.41 2010.69ZM649.311 2206.48L623.395 2200.72C618.715 2208.04 604.954 2209.18 600.354 2212.24C596.394 2214.86 569.296 2241.76 568.676 2243.92C567.636 2247.52 569.776 2252.01 568.676 2255.43C567.936 2257.75 563.574 2258.94 562.914 2261.2C561.554 2265.82 563.974 2273.14 562.914 2278.48C562.474 2280.71 557.478 2282.1 557.158 2284.24C554.398 2303.14 558.517 2327.45 557.158 2347.57C556.958 2349.61 551.516 2351.31 551.396 2353.33C548.336 2406.97 549.795 2461.61 562.914 2508.81C573.974 2548.58 591.954 2590.16 614.753 2629.72C634.372 2663.76 660.79 2695 678.109 2733.38C682.949 2744.12 692.628 2763.29 695.388 2773.67C696.668 2778.49 694.328 2785.63 695.388 2790.95C695.828 2793.19 700.83 2794.57 701.15 2796.71C708.269 2845.35 701.151 2937.9 689.632 2980.98C680.772 3013.94 668.011 3051.56 649.311 3084.64C620.473 3135.66 580.693 3181.77 562.914 3240.11C557.974 3256.31 559.557 3270.27 557.158 3286.17C556.838 3288.33 551.616 3289.85 551.396 3291.93C550.056 3304.89 549.576 3331.35 551.396 3343.75C551.716 3345.89 556.718 3347.26 557.158 3349.5C559.177 3359.58 559.354 3374.4 562.914 3384.06C579.053 3427.9 622.613 3468.88 649.311 3504.98C683.75 3551.56 710.168 3599.37 729.947 3654.69C733.907 3665.77 746.087 3694.33 747.227 3700.75C749.727 3714.77 748.387 3748.44 747.227 3764.08C746.227 3777.54 737.849 3807.41 735.709 3821.66C733.589 3835.76 732.707 3843.48 729.947 3856.22C725.828 3875.24 725.267 3885.62 712.668 3902.28C699.408 3919.86 675.371 3917.52 683.87 3948.34C685.03 3952.54 705.307 3964.02 709.787 3962.74C714.347 3953.92 722.547 3958.8 727.067 3956.98C729.326 3956.08 730.448 3952.32 732.828 3951.22C761.187 3938.08 780.724 3907 793.304 3879.24C806.323 3850.52 828.984 3797.94 833.624 3769.83C835.084 3761.03 832.264 3749.97 833.624 3741.03C833.944 3738.87 839.066 3737.43 839.386 3735.27C840.445 3728.19 840.445 3713.57 839.386 3706.47C839.066 3704.33 834.024 3702.91 833.624 3700.71C831.184 3687.07 831.482 3667.93 827.863 3654.65C827.183 3652.13 817.025 3639.89 816.345 3637.37C805.365 3597.17 797.163 3572.2 776.024 3533.72C746.666 3480.32 707.911 3434.7 672.352 3384C665.253 3373.88 653.671 3361.26 649.311 3349.45C648.111 3346.21 650.371 3341.61 649.311 3337.93C648.651 3335.59 643.935 3334.31 643.555 3332.17C641.815 3322.43 642.255 3296.55 643.555 3286.11C643.815 3283.99 648.931 3282.55 649.311 3280.35C652.451 3262.37 653.79 3245.33 660.829 3228.53C677.989 3187.55 710.888 3149.65 729.947 3107.62C751.606 3059.8 765.645 3009.76 776.024 2957.9C776.464 2955.66 781.466 2954.28 781.786 2952.14C787.505 2913.13 784.564 2791.19 776.024 2756.35C774.444 2749.89 772.328 2740.85 770.268 2733.31C766.528 2719.59 749.73 2690.36 741.47 2675.74C717.791 2633.84 686.45 2596.16 666.591 2549.06C655.651 2523.1 638.892 2482.55 632.032 2456.93C622.272 2420.45 628.695 2381.01 626.275 2341.75C626.075 2339.71 620.674 2338.05 620.514 2335.99C619.234 2318.81 623.774 2293 620.514 2278.42C620.014 2276.22 615.392 2274.95 614.753 2272.65C612.673 2265.1 619.614 2263.9 620.514 2261.14C621.614 2257.72 619.474 2253.24 620.514 2249.62C623.354 2239.72 656.871 2226.08 649.311 2206.44V2206.48ZM1415.35 2626.82C1404.88 2628.22 1400.22 2617.94 1389.44 2621.06C1388.08 2621.46 1370.88 2638.54 1369.28 2641.22C1368.58 2642.38 1364.18 2651.08 1363.52 2652.74C1362.28 2655.86 1364.58 2660.54 1363.52 2664.26C1362.84 2666.6 1358.14 2667.88 1357.76 2670.02C1355.94 2680.26 1355.7 2729.61 1357.76 2739.11C1362.84 2762.51 1392.78 2785.71 1386.56 2819.73C1386.16 2821.95 1381.06 2823.37 1380.8 2825.49C1378.98 2840.03 1379.28 2870.05 1395.2 2874.43C1399.36 2875.57 1425.59 2875.57 1429.75 2874.43C1431.13 2874.05 1449.53 2855.65 1449.91 2854.27C1451.21 2849.53 1448.83 2842.31 1449.91 2836.99C1450.35 2834.81 1455.04 2833.55 1455.68 2831.23C1457.77 2823.65 1450.43 2822.03 1449.91 2819.71C1447.39 2808.47 1452.05 2791.37 1449.91 2779.41C1447.07 2763.47 1428.46 2737.65 1421.12 2721.83C1414.66 2707.87 1406.32 2693.67 1409.6 2675.78C1410 2673.56 1415.09 2672.12 1415.35 2670.02C1417.03 2656.46 1414.17 2640.72 1415.35 2626.82ZM1668.79 2644.1C1667.79 2645.1 1670.09 2649.64 1668.79 2652.74C1667.19 2656.58 1658.59 2666.44 1657.27 2670.02C1651.65 2685.24 1653.81 2700.76 1651.51 2716.08C1651.19 2718.24 1646 2719.71 1645.74 2721.83C1641.88 2752.83 1655.08 2780.21 1663.02 2808.21C1663.68 2810.55 1668.41 2811.83 1668.79 2813.97C1670.63 2824.31 1666.61 2838.81 1668.79 2848.53C1669.25 2850.57 1673.41 2851.79 1674.55 2854.29C1675.39 2856.13 1673.83 2858.91 1674.55 2860.05C1679.99 2868.63 1688.88 2867.53 1694.7 2874.45H1706.22C1730.88 2862.27 1742.28 2843.43 1737.9 2813.99C1737.58 2811.85 1732.6 2810.47 1732.14 2808.23C1725.28 2774.25 1711.24 2748.77 1714.86 2710.33C1715.06 2708.25 1720.44 2706.63 1720.62 2704.57C1723.44 2670.99 1726.92 2630.48 1683.18 2638.36C1681.16 2638.72 1679.92 2643.08 1677.42 2644.12C1674.32 2645.42 1669.79 2643.1 1668.79 2644.1ZM355.565 3386.92C354.485 3385.84 349.648 3388.44 346.928 3386.92C340.908 3383.56 307.607 3355.36 303.727 3349.48C302.127 3347.06 299.61 3335.84 297.97 3332.2C296.891 3329.82 293.049 3328.69 292.209 3326.45C295.169 3315.37 283.148 3308.23 286.448 3297.65C287.188 3295.27 291.829 3294.01 292.209 3291.89C294.049 3281.53 290.089 3267.17 292.209 3257.33C293.909 3249.49 310.93 3214.81 315.25 3205.51C335.689 3161.39 376.567 3127.57 413.165 3090.34C416.125 3080.4 420.843 3071.2 424.683 3061.54C425.663 3059.08 429.985 3057.88 430.445 3055.78C432.705 3045.5 432.445 2986.38 430.445 2975.16C430.065 2973 425.243 2971.7 424.683 2969.4C411.264 2915.21 382.326 2886.87 361.327 2836.97C351.807 2814.33 341.289 2790.77 332.529 2767.87C330.729 2763.17 335.568 2755.19 326.768 2750.59C337.987 2733.21 355.704 2714.82 349.804 2693.02C347.304 2683.76 326.205 2682.16 318.126 2684.38C314.786 2685.3 271.808 2728.89 269.168 2733.31C268.428 2734.55 269.988 2737.31 269.168 2739.07C268.068 2741.45 264.311 2742.58 263.412 2744.83C262.172 2747.95 264.471 2752.63 263.412 2756.35C262.732 2758.69 258.03 2759.97 257.65 2762.11C256.49 2768.65 256.65 2784.11 257.65 2790.91C257.97 2793.07 263.092 2794.51 263.412 2796.67C268.771 2831.99 271.531 2866.71 280.691 2900.33C285.111 2916.54 308.73 2945.94 315.25 2963.66C318.81 2973.32 318.967 2988.16 321.006 2998.22C321.466 3000.46 326.448 3001.84 326.768 3003.98C328.088 3012.86 325.868 3023.48 326.768 3032.78C322.848 3041.74 313.628 3049.22 309.488 3055.82C289.289 3087.92 263.648 3127.02 251.889 3165.24C248.969 3174.73 241.331 3198.99 240.371 3205.53C238.811 3216.23 241.771 3229.17 240.371 3240.09C240.091 3242.21 234.874 3243.73 234.614 3245.85C233.494 3254.87 233.494 3271.37 234.614 3280.41C234.874 3282.53 240.151 3284.07 240.371 3286.17C242.531 3306.55 238.952 3324.33 246.132 3343.75C250.412 3355.29 273.252 3390.66 283.572 3398.44C284.832 3399.4 288.188 3397.54 289.328 3398.44C317.007 3420.28 355.024 3460.72 367.083 3493.46C368.283 3496.7 366.023 3501.3 367.083 3504.98C367.743 3507.32 372.465 3508.6 372.845 3510.74C374.365 3519.3 374.565 3554.58 372.845 3562.56C372.445 3564.44 363.527 3576.14 361.327 3579.83C343.428 3610.11 312.39 3635.09 297.97 3666.21C294.111 3674.55 294.489 3675.53 292.209 3683.49C291.549 3685.83 286.908 3687.07 286.448 3689.25C285.048 3696.03 287.707 3705.25 286.448 3712.29C286.068 3714.45 281.231 3715.77 280.691 3718.05C277.271 3732.67 290.887 3747.18 286.448 3764.1C292.967 3773.18 297.967 3783.29 303.727 3792.91C304.607 3794.37 302.887 3797.34 303.727 3798.66C310.887 3809.92 335.986 3819.09 338.286 3827.46C339.966 3833.56 337.006 3843.48 338.286 3850.5C338.686 3852.7 343.727 3854.12 344.047 3856.26C345.067 3863.06 345.207 3878.5 344.047 3885.06C343.247 3889.54 335.409 3909.88 332.529 3919.62C331.029 3924.72 316.767 3928.06 321.006 3942.66C321.866 3945.64 329.888 3947.62 326.768 3957.06C340.447 3956.66 353.287 3961 361.327 3948.42C362.047 3947.28 360.487 3944.5 361.327 3942.66C362.467 3940.2 366.503 3939 367.083 3936.9C370.083 3926.06 377.466 3898.62 378.606 3890.84C379.866 3882.3 379.706 3865.04 378.606 3856.28C378.346 3854.16 373.165 3852.68 372.845 3850.52C371.505 3841.62 374.665 3829.82 372.845 3821.72C372.645 3821.04 367.763 3811.34 367.083 3810.2C359.444 3797.37 334.408 3782.72 326.768 3769.9C326.028 3768.66 327.588 3765.93 326.768 3764.15C325.628 3761.65 321.466 3760.43 321.006 3758.39C319.267 3750.67 319.507 3714.99 321.006 3706.57C321.386 3704.45 326.008 3703.19 326.768 3700.81C327.868 3697.39 325.728 3692.89 326.768 3689.29C327.508 3686.75 358.568 3656.73 364.208 3651.85C365.168 3651.01 368.604 3652.87 369.964 3651.85C382.744 3642.17 412.942 3596.13 418.922 3579.87C420.122 3576.63 417.862 3572.06 418.922 3568.36C419.582 3566.02 424.303 3564.73 424.683 3562.59C426.083 3554.79 425.723 3536.38 424.683 3528.04C424.423 3525.92 419.242 3524.44 418.922 3522.28C414.842 3495.14 416.242 3478.76 401.642 3453.18C391.503 3435.38 365.085 3412.68 355.565 3395.61C354.045 3392.89 356.645 3388.04 355.565 3386.96V3386.92ZM1398.08 3962.76C1399.16 3963.84 1404 3961.24 1406.72 3962.76C1418.14 3969.12 1418.54 3979.37 1441.28 3974.27C1443.32 3973.81 1444.53 3969.66 1447.03 3968.52C1448.81 3967.7 1451.55 3969.26 1452.79 3968.52C1466.83 3960.16 1468.31 3944.04 1472.95 3931.08C1462.9 3918.34 1467.25 3897.32 1455.68 3885.02C1464.03 3851.64 1471.95 3814.07 1467.19 3775.61C1466.93 3773.49 1461.82 3772.05 1461.44 3769.85C1460.2 3762.79 1462.88 3753.5 1461.44 3746.8C1461.04 3744.94 1452.11 3733.22 1449.91 3729.53C1449.03 3728.05 1450.75 3725.07 1449.91 3723.77C1448.01 3720.79 1438.37 3711.07 1435.51 3709.37C1434.27 3708.63 1431.51 3710.19 1429.75 3709.37C1427.37 3708.27 1426.24 3704.47 1424 3703.61C1419.3 3701.81 1411.32 3706.65 1406.72 3697.85L1386.56 3712.25L1392.32 3741.05C1408.18 3771.85 1389.5 3808.25 1380.8 3838.94C1380.14 3841.28 1375.42 3842.56 1375.04 3844.7C1373 3856.1 1373 3902.4 1375.04 3913.8C1375.42 3915.94 1380.12 3917.22 1380.8 3919.56C1382.64 3925.98 1382.64 3936.08 1386.56 3942.6C1389.02 3946.68 1395.88 3950.16 1398.08 3954.12C1399.6 3956.84 1397 3961.68 1398.08 3962.76ZM1714.86 3790.01C1705.6 3793.17 1702.74 3784.66 1700.46 3784.24C1682.56 3781.02 1666.12 3786.45 1663.02 3804.4C1653.92 3818.48 1648.71 3837.42 1651.51 3856.22C1656.33 3888.7 1655.45 3888.06 1651.51 3919.56C1650.61 3926.74 1649.97 3948.54 1651.51 3954.12C1651.99 3955.88 1675.66 3979.54 1677.42 3980.04C1681.58 3981.18 1701.57 3981.08 1706.22 3980.04C1708.26 3979.58 1709.48 3975.41 1711.98 3974.27C1713.76 3973.45 1716.5 3975.01 1717.74 3974.27C1720.44 3972.67 1737.52 3955.5 1737.9 3954.12C1739.22 3949.32 1736.7 3942 1737.9 3936.84C1738.44 3934.56 1743.34 3933.2 1743.66 3931.08C1744.72 3924 1744.72 3909.36 1743.66 3902.28C1743.34 3900.14 1738.3 3898.72 1737.9 3896.52C1736.64 3889.48 1739.3 3880.3 1737.9 3873.48C1736.14 3864.88 1722.08 3841.42 1720.62 3833.18C1719.08 3824.48 1722.16 3813.12 1720.62 3804.38C1720.22 3802.12 1711.7 3799.27 1714.86 3790.01Z" fill="#F5B301"/>
<path d="M3235.43 2494.38L3238.31 2500.14H3258.47C3263.03 2510.5 3300.21 2512.66 3313.19 2517.42C3317.5 2519 3327.13 2525.96 3333.35 2528.94L3341.99 2540.46H3350.62C3370.58 2564.44 3389.52 2595.25 3396.7 2623.95C3397.68 2627.87 3401.08 2626.23 3402.46 2626.83C3403.42 2638.95 3401.08 2652.39 3402.46 2664.27C3419.38 2809.69 3424.5 2954.04 3425.5 3107.65C3425.5 3116.65 3421.34 3135.57 3431.26 3139.33C3431.28 3143.13 3431.26 3147.03 3431.26 3150.85C3432.32 3340.76 3431.26 3531.01 3431.26 3720.92C3431.26 3732.4 3431.26 3744 3431.26 3755.48C3431.26 3796.68 3431 3838.04 3431.26 3879.28C3431.26 3888.28 3427.1 3907.19 3437.02 3910.95V3957.01C3427.64 3961.15 3431.98 3964.49 3431.26 3974.29L3425.5 3977.17C3427.34 3982.67 3423.66 3985.17 3419.74 3988.69V3997.33C3414.34 4001.03 3414.46 4002.65 3413.98 4003.09C3404.08 4011.89 3390.82 4018.79 3385.18 4031.89C3374.3 4037.17 3362.73 4046.11 3356.39 4049.17C3348.77 4052.83 3333.63 4056.09 3324.71 4060.69L3321.83 4066.45C3312.03 4067.17 3308.69 4062.81 3304.55 4072.21C3291.61 4068.79 3283.27 4076.09 3272.87 4077.97C3230.71 4085.55 3188.25 4083.15 3143.28 4083.73C3135.64 4083.73 3127.87 4083.73 3120.24 4083.73C3116.5 4073.81 3097.56 4078.03 3088.56 4077.97C2864.95 4076.29 2641.1 4077.97 2417.55 4077.97H2371.47L2368.59 4072.21H2345.55L2342.67 4077.97H2325.39C2283.24 4077.97 2240.83 4077.97 2198.68 4077.97C2196.76 4077.97 2194.84 4077.97 2192.92 4077.97C2189.16 4068.05 2170.24 4072.27 2161.24 4072.21C2112.3 4071.85 2063.25 4072.55 2014.37 4072.21C2012.45 4072.21 2010.53 4072.23 2008.61 4072.21L2005.73 4066.45C1993.27 4066.15 1980.69 4066.89 1968.29 4066.45C1966.37 4066.45 1964.45 4066.45 1962.53 4066.45L1959.65 4060.69H1933.73C1931.17 4059.49 1893.64 4051.59 1884.78 4049.17C1879.86 4047.83 1872.24 4050.57 1867.5 4049.17C1864.5 4048.27 1862.54 4040.31 1853.1 4043.41C1856.26 4034.17 1847.74 4031.27 1847.34 4029.01C1845.96 4021.15 1846.3 4002.83 1847.34 3994.45C1855.02 3932.95 1856.66 3883.68 1853.1 3821.7C1851.36 3791.32 1851.54 3769.36 1847.34 3741.08C1846.04 3732.3 1849.36 3719.65 1847.34 3712.29C1844.86 3703.25 1821.2 3695.9 1815.66 3686.36C1754.06 3671.35 1685.28 3675.14 1619.83 3669.09C1561.65 3663.71 1502.59 3658.19 1447.03 3646.05C1417.17 3639.53 1382.56 3633.63 1354.88 3617.25C1343.8 3610.71 1330.8 3601.57 1320.32 3594.21C1293.1 3575.13 1279.76 3566.13 1259.84 3539.51C1237.07 3509.09 1235.34 3504.52 1225.29 3470.42C1213.41 3430.16 1204.13 3385.58 1196.49 3343.74C1193.55 3327.7 1201.72 3319.12 1202.24 3314.94C1203.82 3302.16 1200.66 3287.43 1202.24 3274.65C1205.14 3251.15 1222.41 3206.33 1231.05 3182.51C1240.55 3156.35 1257.72 3124.19 1271.36 3101.9C1278.68 3089.94 1289.94 3081.09 1294.4 3073.09C1295.92 3070.37 1293.32 3065.54 1294.4 3064.46C1295.48 3063.38 1300.32 3065.98 1303.04 3064.46C1316.6 3056.92 1340.5 3027.94 1354.88 3018.4C1369.72 3008.54 1461.04 2969.2 1475.83 2966.58C1486.11 2964.76 1499.53 2967.96 1510.39 2966.58C1583.37 2957.32 1660.79 2951.36 1735.02 2943.54C1747.74 2942.2 1763.52 2945.64 1775.34 2943.54C1777.46 2943.16 1778.72 2938.54 1781.1 2937.78C1784.52 2936.68 1789.02 2938.82 1792.62 2937.78C1794 2937.38 1810.42 2920.88 1812.78 2917.62C1813.64 2916.42 1811.84 2913.24 1812.78 2911.86C1815.44 2907.95 1823.52 2903.04 1824.29 2900.34C1825.33 2896.74 1823.2 2892.24 1824.29 2888.82C1825.05 2886.44 1829.68 2885.18 1830.06 2883.06C1831.46 2875.26 1831.1 2856.84 1830.06 2848.5C1824.58 2804.61 1826.28 2753.85 1818.54 2710.31C1818.14 2708.11 1813.04 2706.67 1812.78 2704.55C1808.5 2669.83 1815.92 2627.89 1812.78 2592.26C1813.28 2583.78 1820.2 2590.02 1824.29 2580.74C1828.61 2570.96 1885.85 2557.4 1899.17 2551.94H1919.33L1922.21 2546.18C1926.01 2545.98 1930.43 2546.84 1933.73 2546.18H1953.89L1956.77 2540.42C1958.73 2540.22 1960.81 2540.76 1962.53 2540.42H1988.45L1991.33 2534.66C1995.13 2534.46 1999.05 2534.66 2002.85 2534.66C2030.6 2534.04 2058.54 2535.1 2086.36 2534.66L2089.24 2528.9C2100.72 2528.9 2112.32 2528.9 2123.8 2528.9H2187.16C2195.98 2535.28 2200.86 2532.8 2207.32 2534.66C2215.7 2537.08 2226.96 2560.7 2233.24 2563.46L2239 2606.64C2249.68 2653.41 2244.42 2711.01 2244.76 2762.11C2244.76 2771.11 2240.6 2790.03 2250.52 2793.79C2250.52 2795.71 2250.52 2797.63 2250.52 2799.55C2251.4 2819.91 2253.14 2835.27 2256.28 2854.25L2262.04 2857.13C2263.38 2869.89 2266.45 2872.03 2267.79 2877.29C2276.31 2910.42 2287.77 2933.32 2313.87 2955.02V2963.66L2325.39 2972.3C2326.99 2977.4 2326.05 2976.46 2331.15 2978.06L2339.79 2989.58H2348.43C2352.57 2999.02 2433.75 3031.06 2449.23 3035.64C2457.83 3038.2 2483.53 3039.92 2486.67 3041.4C2486.97 3041.59 2485.63 3046.2 2489.55 3047.16C2497.13 3049.02 2568.36 3049.02 2575.94 3047.16C2579.86 3046.2 2578.52 3041.53 2578.82 3041.4C2587.2 3037.46 2615.4 3034.8 2627.78 3029.88C2670.96 3012.74 2725.7 2954.8 2751.61 2917.58C2767.17 2895.24 2771.93 2883.29 2780.41 2860.01C2789.01 2836.41 2794.55 2809.79 2803.45 2788.03C2812.47 2765.95 2808.73 2745.73 2809.21 2718.93C2809.21 2717.01 2809.21 2715.09 2809.21 2713.17L2814.97 2710.29C2815.41 2692.09 2814.35 2673.73 2814.97 2655.59C2814.97 2653.67 2814.97 2651.76 2814.97 2649.84L2820.73 2646.96V2621.03C2821.07 2619.31 2820.53 2617.24 2820.73 2615.28L2826.49 2612.4C2826.83 2601.86 2826.01 2591.18 2826.49 2580.72C2826.49 2578.8 2826.49 2576.88 2826.49 2574.96L2832.25 2572.08V2551.92C2834.39 2547.36 2828.49 2536.52 2838.01 2531.76C2842.47 2514.6 2861.75 2502.02 2878.33 2500.08C2939.9 2492.92 3013.94 2505.38 3077.04 2500.08C3080.96 2499.12 3079.62 2494.46 3079.92 2494.32C3086.08 2491.42 3175.61 2497.08 3192.23 2494.32C3203.51 2492.44 3222.99 2493.88 3235.43 2494.32V2494.38ZM3249.83 2575H2895.61C2894.67 2583.24 2897.03 2593.22 2895.61 2600.92C2895.29 2602.6 2886.43 2606.94 2889.85 2618.2C2911.28 2688.71 2878.73 2827.05 2861.05 2894.61C2858.63 2903.88 2858.45 2918.94 2855.29 2929.16C2781.35 3094.98 2578.56 3162.95 2414.67 3110.55C2397.11 3104.93 2367.93 3094.62 2351.31 3087.52C2255.6 3046.64 2189.24 2957.86 2164.12 2860.07C2157.98 2836.17 2156.42 2822.11 2152.6 2796.73C2152.28 2794.55 2146.84 2792.89 2146.84 2790.97V2623.98C2146.84 2623.36 2138.82 2615.34 2138.2 2615.34H1942.37C1940.51 2615.34 1939.05 2620.32 1936.61 2621.1C1933.19 2622.2 1928.69 2620.06 1925.09 2621.1C1922.13 2621.94 1917.55 2630.4 1913.57 2632.62C1910.85 2634.14 1906.01 2631.54 1904.93 2632.62C1904.29 2633.26 1906.57 2644.05 1899.17 2647.01C1902.39 2683.59 1894.77 2726.57 1899.17 2762.19C1899.69 2766.35 1907.87 2774.93 1904.93 2790.99C1897.59 2831.16 1897.29 2882.48 1893.41 2923.42C1892.13 2936.88 1896.35 2958.86 1893.41 2969.48C1892.93 2971.24 1871.2 2992.7 1867.5 2995.4C1866.14 2996.4 1851.28 3006.62 1850.22 3006.92C1842.88 3008.94 1830.2 3005.62 1821.42 3006.92C1764.54 3015.36 1701.22 3018.8 1642.86 3024.2C1617.26 3026.56 1592.65 3024.96 1567.99 3029.96C1550.27 3033.55 1516.93 3045.02 1498.87 3053C1474.21 3063.88 1439.63 3080.65 1418.23 3093.29C1400.22 3103.95 1358.7 3134.97 1346.24 3153.75C1344.68 3156.09 1342.02 3168.75 1340.48 3171.03C1322.7 3197.35 1314.86 3203.05 1305.92 3234.37C1305.26 3236.71 1300.54 3237.99 1300.16 3240.13C1298.32 3250.39 1301.54 3263.83 1300.16 3274.68C1299.88 3276.82 1294.58 3278.37 1294.4 3280.45C1291.46 3312.68 1290.54 3381.58 1294.4 3412.88C1294.66 3414.98 1299.76 3416.44 1300.16 3418.64C1301.42 3425.68 1298.76 3434.9 1300.16 3441.68C1300.62 3443.86 1305.26 3445.12 1305.92 3447.44C1308.78 3457.52 1311.4 3472.89 1317.44 3481.99C1321.98 3488.85 1361.68 3533.57 1366.4 3536.69C1369.66 3538.85 1385.3 3546.41 1389.44 3548.21C1436.78 3568.79 1478.95 3574.11 1527.67 3582.77C1618.02 3598.83 1717.18 3601.81 1809.9 3611.57C1822.76 3612.93 1837.84 3609.75 1850.22 3611.57C1852.34 3611.89 1853.69 3616.79 1855.97 3617.33C1861.11 3618.53 1868.45 3616.01 1873.25 3617.33C1875.81 3618.03 1880.92 3626.11 1884.78 3628.85C1885.96 3629.69 1889.07 3627.91 1890.53 3628.85C1899.57 3634.61 1900.83 3645.71 1904.93 3654.77C1907.13 3659.65 1915.79 3674.59 1916.45 3677.81C1927.39 3730.46 1931.31 3810.12 1927.97 3867.84C1927.77 3869.86 1922.35 3871.56 1922.21 3873.6C1921.19 3888.34 1919.55 3924.59 1922.21 3936.93C1922.71 3939.21 1933.13 3954.89 1936.61 3957.09C1944.97 3962.39 1965.45 3978.55 1971.17 3980.13C1989.49 3985.19 2009.95 3983.51 2028.77 3985.89C2203.76 4008.09 2402.85 3996.37 2581.7 3991.65C2793.05 3986.07 3011.38 3991.31 3221.03 3980.13C3244.33 3978.89 3281.93 3984.39 3301.67 3980.13C3303.53 3979.73 3315.25 3970.81 3318.95 3968.61C3320.43 3967.73 3323.41 3969.45 3324.71 3968.61C3327.69 3966.71 3337.41 3957.07 3339.11 3954.21C3339.85 3952.97 3338.29 3950.21 3339.11 3948.45C3340.21 3946.07 3343.96 3944.96 3344.86 3942.7C3346.68 3938.14 3341.81 3929.98 3350.62 3925.42C3341.85 3642.67 3349.15 3355.62 3339.11 3073.2C3334.91 2955.12 3317.53 2832.49 3310.31 2716.17C3309.05 2695.83 3314.07 2664.39 3310.31 2647.07C3309.49 2643.29 3296.57 2624.05 3293.03 2618.28C3292.13 2616.82 3293.87 2613.78 3293.03 2612.52C3289.87 2607.76 3265.73 2583.46 3261.35 2580.84C3260.11 2580.1 3257.37 2581.66 3255.59 2580.84C3253.09 2579.7 3251.87 2575.54 3249.83 2575.08V2575Z" fill="black"/>
<path d="M4197.3 1095.11C4198.64 1095.71 4205.65 1113.73 4208.83 1118.15C4208.83 1133.45 4209.03 1148.91 4208.83 1164.2C4208.13 1257.62 4159.79 1336.1 4116.67 1414.7C4029.19 1574.13 3954.88 1728.62 3857.48 1886.87C3799.24 1981.51 3732.93 2077.09 3667.41 2169.02C3665.29 2171.98 3658.83 2183.66 3655.89 2189.18L3644.37 2197.82V2206.46C3634.33 2213.34 3632.95 2218.3 3627.09 2223.74C3617.49 2232.65 3603.73 2239.36 3598.29 2252.54C3582.65 2260.86 3566.28 2280.35 3549.34 2287.09C3537.76 2291.69 3518.56 2293.53 3506.14 2298.61H3465.82C3462.04 2296.83 3451.5 2299.95 3445.66 2298.61C3436.1 2296.43 3380.18 2264.41 3370.79 2258.31C3365.49 2254.87 3362.74 2247.2 3362.14 2246.8L3353.51 2235.28H3344.86C3340.84 2232.48 3331.44 2230.2 3330.46 2229.52C3309.01 2214.48 3289.87 2195.18 3267.11 2183.46C3262.87 2181.28 3262.15 2174.9 3252.71 2177.7C3254.77 2185.34 3249.49 2188.48 3246.95 2194.98L3235.43 2203.62V2212.26C3227.75 2217.48 3227.39 2220.52 3223.91 2223.78C3211.39 2235.52 3201.09 2245.79 3189.35 2258.33C3186.11 2261.79 3183.05 2262.18 3177.84 2269.86H3169.19L3160.56 2281.37C3148.1 2287.93 3135.2 2302.75 3123.12 2310.17C3094.68 2327.61 3054.14 2344.93 3025.2 2356.23C3007.7 2363.07 2987.1 2366.71 2970.48 2373.51H2950.33L2947.45 2379.27C2945.49 2379.47 2943.4 2378.93 2941.68 2379.27H2915.77L2912.89 2385.03C2910.97 2385.03 2909.05 2385.03 2907.13 2385.03C2877.07 2385.85 2844.99 2386.05 2814.97 2385.03C2813.05 2385.03 2811.13 2385.03 2809.21 2385.03L2806.33 2379.27H2786.17C2782.37 2377.49 2771.81 2380.63 2766.01 2379.27C2749.09 2375.29 2688.77 2343.79 2673.86 2333.21C2667.62 2328.79 2661.96 2317.87 2659.46 2315.93L2650.82 2304.42H2642.18C2624.36 2290.44 2611.98 2277.69 2596.1 2264.11L2587.46 2252.6H2578.82C2569.74 2244.48 2563.9 2238.63 2555.78 2229.56V2220.92L2544.26 2212.28C2539.96 2207.08 2527.51 2200.2 2521.23 2192.12C2499.59 2164.34 2470.33 2110.6 2457.87 2076.95C2454.57 2068.05 2453.89 2043.31 2452.11 2039.51V2019.35L2446.35 2016.46C2446.15 2014.5 2446.69 2012.43 2446.35 2010.71V1984.79L2440.59 1981.91C2440.15 1970.51 2440.59 1958.79 2440.59 1947.35L2446.35 1944.47C2446.35 1928.15 2446.15 1911.79 2446.35 1895.53C2446.35 1889.81 2446.15 1883.97 2446.35 1878.25L2452.11 1875.37V1837.93C2453.87 1834.17 2450.79 1823.62 2452.11 1817.78C2457.87 1792.38 2482.73 1714.2 2498.18 1691.1C2502.9 1684.04 2517.84 1676.76 2515.46 1668.06C2507.48 1663.04 2496.49 1651.96 2489.55 1647.9C2467.75 1635.16 2449.09 1626.16 2429.07 1613.34L2420.43 1601.83H2411.79C2365.17 1568.33 2308.21 1542.77 2264.91 1509.69C2259.09 1505.25 2252.44 1493.83 2250.52 1492.41L2233.24 1475.13C2232.84 1474.53 2223.16 1471.41 2221.72 1466.49C2220.5 1462.37 2223.08 1454.99 2221.72 1452.09V1414.66L2215.96 1411.78C2216.18 1401.86 2214.38 1388.98 2215.96 1380.1C2216.34 1377.96 2221.04 1376.68 2221.72 1374.34C2222.78 1370.62 2220.48 1365.94 2221.72 1362.82C2224.42 1356.06 2245.52 1323.2 2250.52 1316.76C2262.75 1301 2293.65 1274.78 2302.35 1259.18C2303.87 1256.46 2301.27 1251.62 2302.35 1250.54C2303.35 1249.54 2307.9 1251.84 2311 1250.54C2313.46 1249.52 2314.65 1245.26 2316.75 1244.78C2335.07 1240.6 2336.61 1251.1 2348.43 1256.3V1285.1C2334.03 1291.42 2309.65 1339.36 2302.35 1357.08C2300.31 1362.06 2291.7 1376.4 2290.84 1380.12C2288.46 1390.28 2290.63 1400.35 2299.47 1406.03C2305.69 1410.05 2321.64 1413.57 2328.28 1417.55C2364.15 1439.05 2429.23 1500.29 2463.63 1509.69L2472.27 1521.21H2480.91C2485.06 1530.71 2524.13 1548.93 2538.5 1555.77L2547.14 1567.29H2555.78C2560.98 1574.93 2564.4 1575.59 2567.3 1578.81C2574.08 1586.31 2579.26 1598.43 2590.34 1601.85C2592.28 1607.13 2595.76 1609.35 2596.1 1610.49C2597.16 1613.99 2595.08 1618.43 2596.1 1622.01C2597.48 1626.83 2605.16 1630.94 2601.86 1645.04C2601.34 1647.22 2596.86 1648.44 2596.1 1650.8C2595 1654.22 2597.14 1658.7 2596.1 1662.32C2595.68 1663.8 2581.78 1678.6 2578.82 1685.36C2572.68 1699.42 2563.02 1725.76 2561.54 1740.06L2555.78 1742.94V1763.1C2555.44 1764.82 2555.98 1766.9 2555.78 1768.86L2550.02 1771.74V1791.9C2549.68 1793.61 2550.22 1795.7 2550.02 1797.66L2544.26 1800.54V1820.7C2543.92 1822.42 2544.46 1824.49 2544.26 1826.45L2538.5 1829.33V1849.49C2538.16 1851.21 2538.7 1853.3 2538.5 1855.26C2528.59 1859.02 2532.8 1877.93 2532.74 1886.93C2532.48 1921.47 2532.94 1956.03 2532.74 1990.59L2544.26 2016.51C2545.2 2036.17 2549.24 2048.46 2555.78 2065.44C2561.58 2080.5 2569.94 2095.8 2578.82 2111.5C2616.58 2178.34 2727.98 2290.53 2803.45 2298.65L2806.33 2304.42H2832.25C2835.63 2305.99 2853.97 2304.42 2861.05 2304.42C2871.57 2304.42 2882.15 2304.42 2892.73 2304.42L2895.61 2298.65C2897.57 2298.45 2899.65 2298.99 2901.37 2298.65H2921.52L2924.4 2292.89C2966.74 2285.39 3044.32 2244.9 3079.92 2218.04H3088.56L3097.2 2206.52C3101.4 2203.04 3107.5 2195.28 3114.48 2189.24H3123.12L3131.75 2177.72C3132.09 2177.48 3131.4 2175.94 3137.51 2171.96C3154.53 2160.9 3149.09 2158.92 3154.79 2148.92C3164.29 2132.28 3184.46 2101.94 3195.11 2088.46C3201.55 2080.32 3224.81 2056.14 3232.55 2051.02C3234.79 2049.54 3238.97 2051.92 3241.19 2051.02H3275.75C3279.61 2059.8 3289.95 2058.75 3295.91 2062.55C3330.48 2084.55 3362.84 2110.56 3399.58 2131.64C3424.9 2146.16 3458.48 2165.58 3485.98 2177.7C3490.1 2179.52 3496.82 2183.3 3497.5 2183.46C3512.36 2186.78 3531.26 2182.56 3543.57 2177.7C3557.79 2159.3 3578.79 2140.62 3592.53 2123C3629.23 2075.9 3667.37 2005.29 3701.97 1956.01C3842.34 1756.1 3975.56 1550.91 4093.63 1328.36C4113.41 1291.1 4130.87 1255.36 4151.23 1218.94C4153.13 1215.52 4162.21 1196.17 4162.75 1193.03L4168.51 1190.15V1164.22C4169.37 1162.4 4169.37 1125.75 4168.51 1123.93V1100.89C4169.35 1099.79 4166.63 1096.33 4174.27 1095.13C4178.75 1094.43 4194.98 1094.09 4197.3 1095.11Z" fill="#F5B301"/>
<path d="M4398.89 1267.86C4404.01 1275.08 4414.47 1278.16 4421.93 1288.02C4451.41 1326.94 4481.29 1378.37 4496.81 1426.21C4500.65 1438.03 4507.09 1477.83 4514.09 1480.91V1501.07L4519.85 1503.95C4521.09 1517.11 4524.45 1524.61 4525.61 1532.75C4528.43 1552.6 4530.59 1572.89 4531.37 1593.21L4537.13 1596.08C4537.13 1598 4537.13 1599.92 4537.13 1601.84C4537.77 1620.18 4541.67 1633.18 4542.89 1645.02C4544.23 1657.9 4541.95 1672.18 4542.89 1685.32L4548.65 1688.2C4548.65 1690.12 4548.65 1692.04 4548.65 1693.96C4551.39 1805.85 4547.55 1919.61 4542.89 2027.94C4542.89 2029.86 4542.89 2031.78 4542.89 2033.7C4532.07 2037.86 4538.41 2055.96 4537.13 2065.38C4535.95 2074.02 4530.11 2097.2 4525.61 2105.68L4519.85 2154.62C4511.83 2158.14 4511.63 2181.38 4508.33 2192.06C4498.61 2223.59 4478.27 2255.39 4468.01 2287.07C4455.41 2290.67 4456.49 2305.97 4444.97 2312.99V2321.63C4435.63 2328.03 4434.17 2329.87 4427.69 2338.91C4427.49 2339.17 4422.81 2337.91 4421.93 2341.79C4419.79 2351.17 4423.23 2365.63 4421.93 2376.35C4418.89 2401.39 4412.79 2433.39 4404.66 2456.96L4398.89 2500.14C4390.63 2503.78 4371.85 2577.54 4364.33 2595.16C4352.2 2623.56 4325.28 2658.76 4318.26 2684.42L4306.74 2693.05V2701.69C4301.34 2705.39 4301.4 2707.07 4300.98 2707.45C4284.76 2721.73 4266.7 2734.87 4254.9 2753.51C4235.94 2764.41 4214.9 2775.45 4197.3 2788.07C4190.88 2788.87 4182.95 2786.83 4177.15 2788.07C4174.89 2788.55 4173.48 2793.55 4171.38 2793.83C4160.75 2795.19 4146.07 2791.63 4136.83 2793.83C4132.97 2794.75 4134.17 2799.37 4133.95 2799.59C4133.73 2799.81 4130.49 2798.37 4128.19 2802.47C4127.43 2803.81 4128.99 2806.53 4128.19 2808.23C4127.07 2810.61 4123.31 2811.75 4122.43 2813.99C4106.51 2854.15 4091.23 2897.18 4070.59 2934.9C4045.67 2980.42 4008.13 3025.44 3984.19 3070.22L3972.67 3078.85V3087.5C3947.27 3104.9 3923.59 3133.25 3903.56 3156.59H3894.92C3888.32 3160.65 3884.68 3169.19 3880.52 3173.87C3880.24 3174.17 3878.06 3172.05 3874.76 3179.63H3840.2C3836.96 3177.31 3831.58 3175.93 3828.68 3170.99C3827.94 3169.73 3829.48 3167.01 3828.68 3165.23C3826.66 3160.79 3819.98 3159.43 3822.92 3147.95C3823.92 3144.01 3828.56 3145.37 3828.68 3145.07L3845.96 3127.79C3928.7 3067.06 4035.09 2904.18 4064.83 2808.21C4065.95 2804.59 4074.69 2799.15 4070.59 2788.05C4061.11 2790.93 4060.21 2784.19 4056.19 2782.29C4048.53 2778.67 4048.09 2776.83 4047.55 2776.53L4038.91 2765.01H4030.27C4018.73 2755.13 4011.35 2747.75 4001.47 2736.21V2727.57L3989.95 2718.93C3984.17 2710.33 3972.19 2699.33 3966.91 2687.25C3960.07 2671.59 3951.37 2643.21 3949.63 2626.8C3948.13 2612.6 3946.78 2597.26 3943.88 2583.62C3942.86 2578.8 3933.29 2567.48 3938.11 2554.82L3932.36 2551.94C3932.16 2548.14 3932.56 2544.22 3932.36 2540.42C3931.78 2521.44 3931.92 2501.84 3932.36 2482.84C3932.36 2479.04 3932.16 2475.12 3932.36 2471.32L3938.11 2468.44V2442.53C3939.89 2438.77 3936.79 2428.21 3938.11 2422.37C3938.61 2420.17 3948.39 2408.33 3949.63 2405.09C3952.99 2396.29 3954.98 2379.85 3961.16 2370.53C3964 2366.27 3983.11 2346.97 3987.07 2344.61C3988.31 2343.87 3991.05 2345.43 3992.83 2344.61C3995.29 2343.49 3996.47 2339.43 3998.59 2338.85C4003.39 2337.53 4010.71 2340.05 4015.87 2338.85C4017.99 2338.35 4021.87 2329.67 4033.15 2333.09C4035.49 2333.81 4036.71 2338.35 4038.91 2338.85C4044.07 2340.05 4051.37 2337.53 4056.19 2338.85C4057.47 2339.19 4076.73 2348.95 4079.23 2350.37C4095.45 2359.59 4118.21 2384.33 4128.19 2399.31C4142.27 2420.43 4144.27 2459.44 4156.99 2477.04V2497.2L4162.74 2500.08C4162.94 2502.04 4162.4 2504.12 4162.74 2505.84V2531.76L4168.5 2534.64C4168.5 2536.56 4168.5 2538.48 4168.5 2540.4C4169.28 2569.02 4168.7 2598.14 4168.5 2626.78C4168.5 2630.6 4168.5 2634.47 4168.5 2638.29L4162.74 2641.17C4162.5 2651.71 4163.1 2662.35 4162.74 2672.85C4162.54 2676.65 4163.4 2681.06 4162.74 2684.38C4162.74 2684.7 4157.95 2683.29 4156.99 2687.25C4155.25 2694.35 4158.13 2705.15 4156.99 2713.17C4160.97 2710.01 4169.74 2708.45 4171.38 2707.41C4175.52 2704.83 4174.01 2701.85 4174.27 2701.65C4194.76 2685.79 4233.16 2634.52 4237.62 2632.56C4254.46 2625.18 4251.58 2611.36 4254.9 2598C4260.78 2574.44 4276.1 2549.08 4283.7 2526.02C4286.8 2516.6 4286.28 2498.28 4295.22 2494.34C4299.54 2492.44 4316.76 2421.97 4318.26 2410.85C4319.6 2400.95 4317.36 2389.41 4318.26 2379.17L4266.42 2373.41C4255.62 2368.77 4252.34 2366.91 4243.38 2361.89L4234.74 2350.37H4226.1C4225.84 2350.05 4223.1 2347.79 4220.34 2344.61C4212.18 2335.19 4206.88 2329.67 4197.3 2321.57C4191.88 2316.97 4190.3 2315.03 4185.78 2310.05V2301.41L4174.27 2292.77C4160.57 2272.31 4156.19 2264.31 4145.47 2240.95C4146.83 2230.63 4142.16 2215.78 4133.95 2212.16C4122.89 2207.3 4121.03 2169.58 4116.67 2160.34L4113.78 2125.78C4107.69 2091.64 4110.71 2052.56 4116.67 2019.25C4118.53 2008.87 4125.85 2000.51 4122.43 1987.57C4124.99 1981.77 4127.11 1978.34 4128.19 1976.04L4133.95 1973.17C4132.11 1967.67 4135.79 1965.17 4139.71 1961.65V1953.01C4140.77 1951.39 4138.07 1946.57 4139.71 1944.37C4145.31 1936.87 4169.97 1911.73 4177.15 1906.93C4182.25 1903.53 4195.52 1900.83 4203.06 1895.41C4209.48 1894.61 4217.4 1896.65 4223.22 1895.41C4225.48 1894.93 4226.88 1889.93 4228.98 1889.65C4240.7 1888.13 4254.36 1890.69 4266.42 1889.65C4277.06 1897.33 4294.08 1899.09 4306.74 1901.17C4319.44 1914.89 4336.84 1928.09 4352.82 1941.47C4356.94 1948.65 4365.6 1962.53 4370.1 1964.51V1973.14C4375.86 1979.34 4380.39 1988.69 4381.61 1996.19L4387.38 1999.07C4389.64 2008.19 4391.75 2024.72 4398.89 2027.86L4404.66 2071.04C4409.43 2088.72 4419.75 2117.56 4421.93 2134.38C4423.45 2146.1 4420.87 2159.76 4421.93 2171.82L4433.45 2157.42C4433.83 2150.74 4432.87 2143.84 4433.45 2137.26C4434.75 2122.6 4436.77 2125.16 4439.21 2119.98L4444.97 2117.1V2096.94C4445.31 2095.22 4444.77 2093.14 4444.97 2091.18L4456.49 2059.5C4456.97 2035.72 4461.21 2017.38 4462.25 1993.29C4462.25 1991.37 4462.25 1989.44 4462.25 1987.52L4468.01 1984.65C4468.01 1968.33 4467.81 1951.95 4468.01 1935.71C4468.01 1933.79 4468.01 1931.87 4468.01 1929.95C4477.93 1926.21 4473.71 1907.29 4473.77 1898.27C4474.33 1825.37 4474.25 1752.36 4473.77 1679.46C4473.77 1670.46 4477.93 1651.54 4468.01 1647.78C4468.01 1645.86 4468.01 1643.94 4468.01 1642.02C4467.81 1625.78 4468.01 1609.38 4468.01 1593.08L4462.25 1590.2C4462.25 1586.4 4462.25 1582.51 4462.25 1578.69C4462.05 1568.19 4462.25 1557.57 4462.25 1547.01L4456.49 1544.13C4456.49 1542.21 4456.49 1540.29 4456.49 1538.37C4455.45 1520.01 4452.85 1506.79 4450.73 1489.43L4444.97 1486.55C4444.77 1484.65 4445.17 1482.69 4444.97 1480.79C4443.37 1463.43 4442.41 1447.11 4433.45 1434.73C4426.99 1425.81 4429.57 1419.57 4427.69 1414.57C4422.19 1399.89 4377.42 1305.84 4370.1 1302.28C4363.56 1292.76 4363.45 1285.12 4364.33 1273.48C4365.17 1272.38 4362.46 1268.92 4370.1 1267.72C4378.9 1266.34 4389.63 1268.64 4398.89 1267.72V1267.86ZM4324.02 2298.59C4321.86 2261.99 4326.96 2222.54 4324.02 2186.3C4321.2 2151.72 4309.98 2109.84 4300.98 2076.88C4296.74 2061.32 4292.48 2046.64 4289.46 2030.82C4278.42 2012.76 4263.64 1992.91 4240.5 1987.65L4220.34 2002.04C4199.78 2044.76 4195.46 2094.24 4203.06 2140.24C4205.16 2152.98 4219.78 2194.8 4226.1 2209.33C4235.54 2231.03 4254.1 2253.23 4266.42 2272.67C4272.1 2281.63 4286.28 2282.43 4292.34 2292.83L4324.02 2298.59ZM4027.39 2384.97C4021.57 2391.89 4012.67 2390.79 4007.23 2399.36C4003.29 2405.56 4003.21 2418.03 4001.47 2422.41C4000.15 2425.73 3990.41 2437.59 3989.95 2439.69C3988.17 2447.88 3991.29 2459.56 3989.95 2468.48C3989.63 2470.64 3984.41 2472.14 3984.19 2474.24C3983.01 2485.24 3983.01 2503.54 3984.19 2514.54C3984.41 2516.64 3989.67 2518.16 3989.95 2520.3C3992.11 2537.4 3991.59 2543.98 3995.71 2560.6C4006.05 2602.36 4019.53 2640.89 4041.79 2675.77C4053.35 2690.73 4100.11 2735.95 4105.15 2698.81C4108.05 2677.45 4108.15 2657.28 4110.91 2635.48C4111.19 2633.34 4116.49 2631.8 4116.67 2629.72C4121.11 2581.08 4114.19 2524.16 4105.15 2480C4104.71 2477.8 4099.97 2476.54 4099.39 2474.24C4090.99 2441.57 4084.23 2418.23 4056.19 2396.51L4027.39 2384.97Z" fill="black"/>
<path d="M3005.04 248.647C3015.24 253.447 3015.7 251.809 3025.2 254.409C3047.7 260.568 3093.42 287.947 3117.36 300.466C3170.85 328.465 3222.55 354.025 3272.87 386.844C3346.71 435.002 3427.91 481.119 3503.26 530.797C3687.43 652.231 3876.58 771.283 4056.19 905.077C4065.51 912.016 4084.17 930.199 4090.75 933.879C4093.47 935.399 4098.31 932.799 4099.39 933.879C4101.45 935.939 4109.27 959.797 4110.91 965.557C4111.49 967.617 4126.15 982.013 4128.19 988.593V1000.12C4121.89 1004.22 4120.97 1018.31 4113.79 1020.27C4101.73 1023.57 4088.09 1016.61 4082.11 1005.87C4074.61 992.413 4044.98 975.075 4027.4 962.696C3969.18 921.638 3904.96 889.44 3843.08 853.282C3591.22 706.109 3341.57 546.498 3082.8 409.904C3065.08 400.545 3046.12 389.762 3025.2 381.102C3020.52 379.162 3021.84 376.825 3010.8 375.345L3007.92 369.584H2990.64L2987.76 375.345C2982.16 376.445 2974.24 385.024 2970.48 389.744C2930.57 439.942 2899.49 491.26 2866.81 550.977C2864.65 554.937 2856.19 559.475 2855.29 562.495C2854.07 566.615 2856.65 573.994 2855.29 576.894C2855.09 577.194 2850.49 575.855 2849.53 579.774C2848.17 585.354 2850.39 593.575 2849.53 599.935C2853.13 600.455 2859.07 598.975 2861.05 599.935C2862.43 600.595 2874.97 617.971 2881.21 622.971C2887.53 628.03 2905.21 641.932 2912.89 646.012L2941.69 674.809C2953.05 696.128 2981.69 715.83 2999.29 732.389C2997.37 743.689 3007.19 748.406 3013.68 755.425C3024.82 767.445 3037.5 780.945 3051.12 789.984C3074.46 828.682 3107.3 864.722 3126 908.04C3133.86 926.259 3138.34 959.439 3149.03 974.258V994.413L3154.8 997.294C3155 999.214 3154.6 1001.14 3154.8 1003.06C3155.58 1016.29 3160.32 1031.01 3160.56 1034.73C3162.02 1057.51 3161.1 1083.69 3160.56 1106.71C3160.56 1108.63 3160.56 1110.55 3160.56 1112.47L3154.8 1115.35V1141.27C3146.68 1152.49 3139.42 1195.71 3131.76 1213.25C3124.1 1230.78 3105.68 1246.26 3097.2 1262.18L3045.36 1314C3033.06 1320.54 3019.82 1335.7 3007.92 1342.8C2964.89 1368.46 2918.77 1378.09 2878.33 1394.61H2852.41L2849.53 1400.38C2847.57 1400.58 2845.49 1400.04 2843.77 1400.38H2817.85L2814.97 1406.14C2813.05 1406.14 2811.13 1406.14 2809.21 1406.14C2798.73 1406.56 2788.07 1405.86 2777.53 1406.14L2774.65 1411.89C2770.83 1411.89 2766.95 1411.89 2763.14 1411.89C2747.88 1412.09 2732.32 1412.29 2717.06 1411.89C2713.26 1411.69 2709.34 1412.09 2705.54 1411.89L2702.66 1406.14H2676.74C2675.02 1405.8 2672.94 1406.34 2670.98 1406.14L2668.1 1400.38H2642.18C2639.04 1398.9 2613.34 1397.17 2604.74 1394.61C2559.37 1381.13 2503.99 1354.4 2466.51 1325.52C2443.89 1308.08 2421.81 1281.58 2397.39 1267.94C2394.67 1266.42 2389.89 1269.02 2388.75 1267.94C2388.19 1267.4 2390.37 1256.5 2382.99 1253.54C2381.47 1247.96 2386.33 1244.74 2388.75 1239.14H2423.31C2434.17 1246.94 2449.71 1250.92 2460.75 1256.42C2510.88 1281.4 2565.42 1313.36 2624.9 1319.76L2627.78 1325.52H2653.7C2656.38 1326.78 2665.78 1325.24 2670.98 1325.52C2674.74 1335.44 2693.66 1331.22 2702.66 1331.28C2714.18 1331.28 2725.7 1331.28 2737.22 1331.28C2746.22 1331.28 2765.14 1335.44 2768.9 1325.52C2770.86 1325.32 2772.93 1325.86 2774.65 1325.52H2794.81L2797.69 1319.76C2799.65 1319.56 2801.74 1320.1 2803.46 1319.76H2823.61L2826.49 1314C2862.67 1310.26 2930.51 1277.2 2961.85 1256.42C2980.41 1244.12 3037.84 1180.23 3045.36 1161.41C3047.76 1155.41 3049.38 1139.97 3051.12 1132.61C3052.04 1128.69 3056.74 1130.03 3056.88 1129.73L3062.64 1126.85V1106.69C3062.98 1104.97 3062.44 1102.89 3062.64 1100.93L3068.4 1098.05V1072.13C3069.92 1068.91 3068.14 1055.49 3068.4 1049.09C3068.9 1036.71 3068.06 1024.11 3068.4 1011.65L3062.64 1008.77C3062.44 1004.97 3063.3 1000.57 3062.64 997.255V977.095L3056.88 974.214C3047.06 953.255 3035.8 924.199 3022.32 902.24C3010.7 883.281 2993.39 867.219 2982.01 847.54C2979.53 843.26 2979.3 829.324 2967.6 824.504C2964.64 823.284 2960.67 825.404 2958.97 824.504C2947.49 818.404 2943.82 810.543 2935.92 801.463V792.826L2924.41 784.184C2920.89 779.924 2913.37 774.384 2907.13 766.904C2889.15 745.385 2884.39 739.008 2861.05 726.608C2847.15 719.209 2832.01 701.069 2820.73 692.049L2812.09 680.531H2803.46C2792.08 670.612 2774.48 659.289 2766.02 651.729C2759.62 646.009 2743.59 631.712 2740.09 625.812C2739.35 624.572 2740.91 621.831 2740.09 620.051C2738.95 617.551 2734.8 616.334 2734.34 614.294C2732.72 607.095 2732.94 576.056 2734.34 568.237C2734.72 566.097 2739.41 564.815 2740.09 562.475C2752.57 518.837 2774.74 488.178 2797.69 447.3C2828.55 392.363 2849.23 354.645 2884.09 306.228L2895.61 297.585V288.948C2900.35 283.448 2901.53 282.19 2907.13 277.43H2915.77L2924.41 265.907C2933.37 261.647 2951.71 249.888 2958.97 248.628C2964.79 247.628 3002.7 247.547 3005.04 248.647Z" fill="#F5B301"/>
<path d="M1801.26 588.39L1772.46 617.192H1737.9C1735.68 616.292 1731.5 618.672 1729.26 617.192C1723.78 613.572 1717.76 606.072 1714.86 599.913C1713.98 598.013 1716.12 594.11 1714.86 591.271C1713.32 587.771 1703.81 576.071 1703.35 573.991C1688.39 504.814 1685.22 398.942 1691.82 326.386C1694.86 293.087 1708.52 255.027 1714.86 222.728C1726.04 165.731 1731.4 109.712 1749.42 55.7342C1751.46 49.6145 1751.3 39.2179 1755.18 32.6982C1757.28 29.1783 1777.58 8.87644 1781.1 6.77654C1782.34 6.03657 1785.08 7.5965 1786.86 6.77654C1789.36 5.63659 1790.58 1.47995 1792.62 1.01997C1806.72 -2.13988 1828.94 3.25987 1844.46 1.01997C1852.62 12.2194 1869.02 14.9373 1876.13 26.9367C1876.87 28.1767 1875.31 30.9383 1876.13 32.6982C1877.23 35.0781 1881 36.1997 1881.9 38.4596C1883.14 41.5795 1880.84 46.2578 1881.9 49.9776C1882.58 52.3175 1887.27 53.5943 1887.65 55.7342C1889.21 64.5338 1888.81 86.6155 1887.65 96.035C1887.39 98.1349 1882.3 99.5966 1881.9 101.796C1872.54 154.454 1860.28 196.232 1847.34 245.75C1821.24 345.585 1798.76 441.978 1807.02 556.692L1801.26 588.39Z" fill="black"/>
<path d="M1254.08 398.361C1253.46 401.001 1254.46 403.063 1256.96 404.123C1273.76 411.202 1284.44 419.719 1300.16 427.159L1308.8 438.682H1317.44C1318.22 439.622 1315.46 442.058 1323.2 444.438L1331.84 455.961H1340.48C1341.26 456.901 1338.5 459.338 1346.24 461.718L1354.88 473.241H1363.52C1374.42 486.34 1382.7 493.818 1398.08 502.038L1406.72 513.556H1415.36C1416.14 514.496 1413.38 516.938 1421.12 519.317L1429.75 530.835H1438.4C1449.3 543.935 1457.58 551.413 1472.96 559.633L1481.59 571.156H1490.23C1495.95 579.515 1549.31 638.349 1553.59 640.249V674.808C1546.31 678.008 1541.29 685.746 1539.19 686.326C1534.63 687.566 1509.73 687.466 1504.63 686.326C1502.49 685.846 1501.29 681.43 1498.87 680.57C1468.83 669.79 1436.88 648.672 1409.6 634.512C1409.58 630.452 1404.02 624.749 1400.96 622.989C1396 620.15 1385.6 618.973 1380.8 617.233C1364.08 611.193 1359.08 607.033 1346.24 599.953L1337.6 588.435H1328.96C1326.72 586.915 1311.86 580.272 1305.92 576.912L1297.28 565.394H1288.64C1283.26 562.875 1282.66 563.033 1277.12 559.633C1276.92 549.593 1265.01 549.675 1262.73 548.115C1253.09 541.555 1256.79 540.437 1242.57 536.597C1231.29 533.537 1231.73 531.155 1231.05 530.835C1218.35 517.116 1200.95 503.919 1184.97 490.54C1184.77 490.26 1181.03 491.739 1179.21 487.659C1177.95 484.859 1180.09 480.997 1179.21 479.017C1181.59 465.017 1175.87 442.218 1179.21 430.079C1180.01 427.179 1188.53 422.52 1190.73 418.56C1192.25 415.841 1189.65 411.003 1190.73 409.923C1191.73 408.923 1196.27 411.223 1199.37 409.923C1202.79 408.503 1214.55 398.86 1216.65 398.4C1227.15 396.14 1242.6 399.98 1254.08 398.4V398.361Z" fill="black"/>
<path d="M2244.76 185.311C2248.56 193.911 2259.2 204.552 2267.8 208.352V248.648C2254.94 254.288 2258.72 256.968 2256.28 265.928L2233.24 288.968C2229.3 292.908 2225.68 296.347 2221.72 300.487C2216.14 306.326 2203.92 312.287 2198.68 320.647V329.289C2197.74 330.069 2195.28 327.306 2192.92 335.045L2181.4 343.688V352.325C2170.19 360.025 2169.91 363.186 2164.13 375.366L2152.6 384.003V392.645C2139.12 401.905 2087.95 479.998 2083.49 496.298L2071.97 504.94V513.577C2063.11 517.457 2067.83 519.059 2066.21 522.219C2060.75 532.839 2053.75 542.818 2048.93 553.897H2014.37C1992.79 538.438 1996.09 534.699 1997.09 507.84L2002.85 504.959V484.799C2003.67 482.799 2001.79 479.142 2002.85 476.162C2018.45 432.024 2051.19 379.504 2071.97 340.846L2083.49 332.209V323.566C2085.01 321.327 2091.65 306.465 2095.01 300.526L2106.53 291.888V283.251C2107.27 282.171 2109.87 266.911 2112.29 263.091C2117.77 254.471 2130.88 243.349 2135.32 237.169L2146.85 228.532V219.89C2151.59 214.39 2152.76 213.131 2158.36 208.372H2167L2175.64 196.854C2180.06 193.954 2187.42 189.295 2192.92 185.336C2199.42 184.656 2206.98 186.396 2213.08 185.336C2215.3 184.956 2216.92 179.574 2218.84 179.574C2220.76 179.574 2222.38 184.936 2224.6 185.336C2230.7 186.396 2238.26 184.656 2244.76 185.336V185.311Z" fill="black"/>
<path d="M3373.67 1239.08C3373.97 1239.28 3372.51 1243.3 3376.55 1244.84C3379.27 1245.88 3382.7 1244.18 3385.18 1244.84C3388.38 1255.66 3403.08 1262.14 3408.22 1270.76C3408.9 1271.9 3413.82 1281.6 3413.98 1282.28C3415.64 1289.72 3415.62 1332.3 3413.98 1339.86C3413.58 1341.74 3404.66 1353.43 3402.46 1357.13C3401.56 1358.65 3403.28 1361.65 3402.46 1362.89C3399.32 1367.63 3375.16 1391.95 3370.79 1394.57C3369.55 1395.31 3366.8 1393.75 3365.02 1394.57C3362.52 1395.71 3361.31 1399.87 3359.27 1400.33C3352.67 1401.81 3319.88 1401.77 3313.19 1400.33C3311.89 1400.05 3291.39 1389.64 3290.15 1388.82C3283.43 1384.42 3278.65 1373.46 3269.99 1371.54C3269.79 1371.26 3266.45 1372.79 3264.23 1368.66C3262.85 1366.08 3265.15 1362.01 3264.23 1360.01C3263.35 1343.07 3255.61 1330.23 3258.47 1311.07C3258.79 1308.93 3263.79 1307.54 3264.23 1305.32C3265.39 1299.36 3263.49 1291.62 3264.23 1285.16C3266.43 1280.22 3260.35 1277.88 3269.99 1273.64C3285.15 1267 3280.59 1257.3 3281.51 1256.36C3282.59 1255.28 3287.43 1257.88 3290.15 1256.36C3296.97 1252.58 3304.63 1242.4 3313.19 1239.08C3319.16 1237.8 3370.93 1237.8 3373.67 1239.08Z" fill="black"/>
<path d="M2924.4 1901.27C2927.06 1907.31 2945 1928.99 2947.44 1930.07V1993.41C2938.42 1997.37 2943.52 1998.09 2941.68 2004.93L2930.16 2013.56V2022.21C2927.05 2024.73 2926.92 2024.85 2924.4 2027.97H2915.77L2907.12 2039.48C2903.78 2041.04 2898.21 2043.41 2895.61 2045.25C2873.95 2044.79 2851.89 2049.8 2835.13 2033.72H2826.49C2821.57 2029.42 2813.63 2026.02 2809.21 2019.32C2807.73 2017.08 2810.11 2012.91 2809.21 2010.69V1958.87C2810.07 1956.79 2807.97 1952.97 2809.21 1950.23C2811.27 1945.73 2820.21 1936.75 2820.73 1935.83C2833.59 1930.73 2841.75 1914.09 2852.41 1907.03C2853.65 1906.21 2856.65 1907.93 2858.17 1907.03C2861.87 1904.83 2873.57 1895.93 2875.45 1895.51C2892.99 1891.71 2907.88 1900.91 2924.4 1901.27Z" fill="black"/>
<path d="M2452.11 421.403C2455.47 422.903 2464.67 443.28 2469.39 447.319L2463.62 470.36C2458.32 473.34 2439.63 489.976 2437.71 490.516C2420.25 495.295 2378.79 508.395 2371.47 525.075H2362.83L2354.19 536.597C2346.45 538.937 2349.21 541.434 2348.43 542.354H2339.79L2325.39 556.753V565.395C2308.09 574.994 2302.13 575.413 2290.83 559.633V530.836C2291.69 528.736 2289.53 524.859 2290.83 522.199C2300.03 503.38 2337.77 458.938 2357.07 444.458C2360.93 441.558 2380.35 429.579 2385.87 427.179C2386.87 426.739 2404.03 421.722 2406.03 421.422C2412.41 420.462 2449.29 420.143 2452.11 421.403Z" fill="black"/>
<path d="M3223.91 692.027C3222.75 703.006 3226.95 716.886 3221.03 726.586C3219.09 729.766 3214.08 732.183 3212.4 735.223C3210.9 737.963 3213.48 742.785 3212.4 743.865C3211.4 744.865 3206.85 742.565 3203.75 743.865C3201.25 744.905 3200.01 749.262 3197.99 749.622C3191.73 750.722 3181.98 749.902 3174.96 749.622C3162.08 749.122 3155.08 746.905 3143.28 743.865C3138.36 739.565 3130.42 736.166 3126 729.466C3124.52 727.227 3126.9 723.044 3126 720.824V692.027C3126.88 690.067 3124.76 686.185 3126 683.385C3127.8 679.305 3131.61 680.784 3131.75 680.504L3149.03 663.229C3151.15 662.529 3154.56 663.889 3157.68 663.229C3161.18 662.489 3166.41 654.128 3180.71 657.468C3182.89 657.988 3184.11 662.469 3186.47 663.229C3189.89 664.329 3194.39 662.189 3197.99 663.229C3206.37 665.629 3217.63 689.267 3223.91 692.027Z" fill="black"/>
<path d="M3805.64 1262.1C3805.94 1262.3 3804.46 1266.2 3808.52 1267.86C3812.94 1269.66 3817.9 1270.76 3822.92 1273.62C3826.36 1288 3832.7 1308.02 3828.68 1322.56C3828.3 1323.94 3809.9 1342.32 3808.52 1342.72C3802.86 1344.34 3795.98 1339.84 3791.24 1348.48C3778.3 1343.86 3762.16 1342.36 3753.8 1328.32C3753.06 1327.08 3754.62 1324.34 3753.8 1322.56C3752.66 1320.06 3748.5 1318.84 3748.04 1316.8C3747 1312.14 3746.9 1292.18 3748.04 1288C3748.52 1286.24 3772.2 1262.58 3773.96 1262.08C3777.44 1261.12 3803.8 1261.24 3805.64 1262.1Z" fill="black"/>
<path d="M1398.08 795.683C1386.62 795.883 1374.98 795.483 1363.52 795.683C1349.06 795.883 1335.12 792.825 1323.2 801.444C1304.88 803.504 1296.4 801.446 1282.88 789.926C1281.1 784.527 1277.12 781.804 1277.12 781.284C1277.12 780.164 1287.28 771.524 1282.88 761.124C1295.84 760.184 1303.68 751.666 1317.44 749.606C1323.78 748.666 1332 750.966 1337.6 749.606C1341.52 748.646 1340.2 743.989 1340.48 743.849C1348.66 739.83 1352.84 749.126 1354.88 749.606C1360.02 750.826 1367.46 748.226 1372.16 749.606C1374.42 750.266 1375.6 754.627 1377.92 755.367C1381.34 756.467 1385.84 754.328 1389.44 755.367C1390.42 755.647 1403.56 768.786 1403.84 769.766C1406.86 780.646 1401.74 787.243 1398.08 795.683Z" fill="black"/>
<path d="M3886.28 1002.99L3909.32 1026.03V1049.07C3902.54 1052.05 3901.8 1059.33 3897.8 1066.35C3885.58 1068.11 3873.52 1075.75 3860.36 1072.11C3858.98 1071.73 3840.58 1053.33 3840.2 1051.95C3832.02 1022.23 3854.5 996.534 3886.28 1003.01V1002.99Z" fill="black"/>
<path d="M3609.82 1031.78C3610.2 1031.98 3609.82 1033.53 3615.58 1037.53C3615.8 1048.65 3624.84 1056.63 3621.34 1069.21C3620.96 1070.59 3602.56 1088.99 3601.18 1089.37C3580.18 1095.19 3558.34 1070.35 3563.74 1049.08C3564.8 1045.96 3562.74 1038.57 3563.74 1037.55C3564.76 1036.53 3569.34 1038.89 3572.38 1037.55C3574.8 1036.47 3575.28 1032.68 3581.02 1031.8C3586.22 1031 3606.9 1030.6 3609.82 1031.78Z" fill="black"/>
<path d="M3719.25 1630.64C3724.71 1634.54 3730.37 1639.46 3736.53 1642.16C3738.71 1661.38 3736.53 1678.66 3716.37 1682.46L3713.49 1688.22C3685.63 1689.2 3677.95 1681.52 3678.93 1653.66L3684.69 1650.78C3687.57 1633.96 3702.23 1627.8 3719.25 1630.64Z" fill="black"/>
<path d="M3316.07 905.1V928.136C3306.25 932.436 3305.43 933.898 3293.03 933.898C3286.49 924.378 3286.39 916.74 3287.27 905.1C3287.49 904.88 3286.29 900.259 3290.15 899.339C3301.59 896.619 3307.29 901.26 3316.07 905.1Z" fill="black"/>
<path d="M537.001 1463.65C572.259 1464.73 569.342 1504.43 545.643 1524.11C509.945 1608.32 457.565 1689 407.407 1765.96C368.309 1825.95 330.41 1894.89 272.053 1935.83C265.793 1940.21 251.675 1955.53 243.255 1953.11C219.076 1932.93 231.675 1936.47 240.374 1921.43C242.154 1918.37 244.356 1907.51 246.136 1904.15C312.093 1780.12 389.266 1667.62 465.002 1552.89C478.082 1533.07 491.903 1507.55 505.323 1489.55C514.102 1477.77 526.182 1470.81 537.001 1463.65Z" fill="#F5B301"/>
<path d="M1455.67 2148.88C1477.43 2143.52 1485.53 2162.68 1504.63 2166.16C1507.05 2163.02 1511.29 2160.58 1513.27 2157.52C1517.33 2151.24 1520.85 2135.84 1524.79 2128.72C1526.99 2124.74 1534.09 2121.2 1536.31 2117.2C1537.83 2114.48 1535.23 2109.66 1536.31 2108.56C1537.03 2107.8 1552.19 2105.22 1556.47 2102.8C1569.47 2112.48 1574.57 2123.73 1570.87 2140.24C1570.39 2142.42 1565.87 2143.62 1565.11 2146C1558.45 2166.54 1550.37 2189.44 1536.31 2209.34C1561.43 2236.42 1573.87 2271.95 1599.66 2301.47C1602.9 2321.53 1587.51 2342.45 1567.99 2327.39C1543.15 2308.23 1534.93 2277.12 1516.15 2252.54C1512.31 2257.62 1504.87 2262 1501.75 2266.94C1493.93 2279.3 1486.53 2300.64 1478.71 2313C1473.97 2320.47 1463.99 2330.65 1458.55 2338.91L1435.51 2344.67C1417.51 2334.41 1404.04 2326.34 1409.6 2301.5C1410.06 2299.46 1414.21 2298.23 1415.35 2295.74C1422.35 2280.38 1429.45 2278.84 1438.39 2266.94C1448.73 2253.16 1458.41 2235.46 1467.19 2220.88C1471.75 2213.3 1482.67 2211.66 1478.71 2197.84C1476.51 2190.16 1445.69 2170.98 1455.67 2148.88Z" fill="#F5B301"/>
<path d="M614.753 1705.5C619.372 1710.28 609.556 1724.98 608.996 1731.42L574.437 1783.24C591.516 1795.08 627.734 1820.22 620.514 1846.58C617.974 1855.86 596.915 1857.43 588.836 1855.21C586.196 1854.49 581.238 1846.36 577.318 1843.7C575.938 1842.76 572.756 1844.56 571.556 1843.7C563.357 1837.74 551.558 1818.23 542.759 1820.65C528.14 1836.69 513.797 1853.21 499.558 1869.59C498.618 1870.67 500.518 1874.25 499.558 1875.35C484.758 1892.47 465.839 1907.37 450.6 1924.29C435.921 1930.55 422.102 1935.93 418.922 1915.65C423.102 1907.87 431.402 1908.25 436.201 1904.13C466.26 1878.31 490.322 1842.54 511.081 1812C513.741 1808.08 521.819 1803.18 522.599 1800.48C527.438 1783.6 497.079 1768.02 488.04 1754.42C485 1749.84 483.841 1736.06 476.522 1731.38C502.52 1696.66 514.878 1735.38 536.997 1751.54C539.357 1753.26 550.597 1754.6 554.277 1763.06C561.936 1759.78 561.734 1750.34 562.914 1748.66C571.914 1735.9 582.057 1729.38 591.717 1714.1C596.236 1706.94 610.853 1701.44 614.753 1705.46V1705.5Z" fill="#F5B301"/>
<path d="M634.914 1521.23C653.513 1516.19 667.391 1526.95 678.11 1541.39C690.11 1557.55 720.092 1619.21 724.192 1639.28C725.592 1646.08 722.932 1655.28 724.192 1662.32C724.572 1664.48 729.408 1665.8 729.948 1668.08C732.088 1677.2 724.369 1703.08 715.55 1705.52C709.83 1707.1 701.009 1706.08 695.39 1702.64C682.39 1694.68 686.531 1687.92 683.872 1679.6C674.092 1648.98 658.652 1614.24 649.313 1581.7C648.373 1578.42 627.137 1556.07 626.277 1552.91C624.057 1544.83 625.654 1523.75 634.914 1521.23Z" fill="#F5B301"/>
<path d="M1380.8 2102.82C1380.44 2090.66 1378.36 2081.11 1389.44 2074.03C1429.96 2048.15 1460.97 1984.15 1484.47 1938.71C1490.61 1933.81 1493.45 1915.01 1504.63 1918.55C1514.35 1921.63 1515.15 1941.77 1513.27 1950.23C1512.19 1955.09 1499.07 1972.29 1495.99 1979.03C1494.47 1982.37 1494.01 1988.17 1490.24 1996.31C1474.02 2031.29 1451.6 2065.82 1424 2097.08L1400.96 2108.6L1380.8 2102.82Z" fill="#F5B301"/>
<path d="M692.512 1302.42C719.211 1301.58 727.29 1324.02 741.469 1339.86C740.909 1342.1 740.649 1344.15 741.469 1345.61C751.589 1363.51 764.804 1381.17 758.744 1403.19C758.464 1404.17 745.325 1417.31 744.345 1417.59C729.586 1421.67 714.61 1409.07 706.91 1397.43C699.031 1385.51 691.029 1364.69 683.87 1351.38C678.21 1340.86 666.432 1338.5 672.352 1316.82C674.311 1309.64 688.412 1308.72 692.512 1302.42Z" fill="#F5B301"/>
<path d="M1530.55 2459.83C1518.37 2460.19 1508.83 2462.26 1501.75 2451.18C1500.81 2449.72 1502.59 2446.6 1501.75 2445.42C1489.05 2427.56 1469.17 2411.23 1472.95 2384.97L1490.23 2382.09C1496.77 2385.79 1502.97 2386.47 1507.51 2393.61C1509.89 2397.35 1518.73 2409.83 1519.03 2410.89C1520.13 2414.69 1517.69 2419.53 1519.03 2422.41C1525.01 2435.17 1534.89 2442.35 1530.55 2459.83Z" fill="#F5B301"/>
<path d="M822.106 1313.94H799.065C802.165 1304.5 794.203 1302.56 793.303 1299.54C790.283 1289.4 790.067 1270.25 787.547 1259.25C787.047 1257.07 782.525 1255.85 781.785 1253.49C776.306 1236.25 799.123 1223.89 810.583 1241.97C811.303 1243.11 809.743 1245.88 810.583 1247.72C811.703 1250.18 815.764 1251.37 816.344 1253.49C817.644 1258.19 821.886 1275.08 822.106 1276.52C823.786 1288.04 820.946 1301.96 822.106 1313.94Z" fill="#F5B301"/>
<path d="M1547.83 1613.37C1550.95 1603.93 1542.98 1602.01 1542.08 1598.97C1538.98 1588.63 1547.77 1584.53 1547.83 1575.93C1562.15 1553.59 1603.29 1570.67 1593.91 1604.73C1593.63 1605.71 1580.49 1618.85 1579.51 1619.13C1566.93 1622.63 1558.95 1613.59 1547.83 1613.37Z" fill="#F5B301"/>
<path d="M177.014 2033.73C164.395 2035.57 152.934 2043.13 139.575 2039.49C132.395 2037.53 131.475 2023.43 125.176 2019.33C128.156 2002.37 136.758 1995.39 151.097 1987.65C168.077 1990.63 175.036 1999.23 182.776 2013.57L177.014 2033.73Z" fill="#F5B301"/>
<path d="M1421.12 1457.89C1410 1458.11 1402.02 1467.15 1389.44 1463.65C1377.6 1460.37 1371.86 1437.83 1375.04 1426.21C1376.84 1419.61 1399.8 1409.83 1406.72 1411.81C1408.1 1412.21 1426.48 1430.59 1426.88 1431.97C1430.08 1442.77 1419.46 1447.81 1421.12 1457.89Z" fill="#F5B301"/>
<path d="M1472.95 1244.84C1463.63 1241.68 1461.1 1250.04 1458.56 1250.6C1446.8 1253.2 1436.05 1249.34 1429.75 1239.08C1416.43 1217.34 1441.85 1198.38 1464.31 1204.52C1471.49 1206.48 1472.41 1220.58 1478.71 1224.68L1472.95 1244.84Z" fill="#F5B301"/>
<path d="M372.845 2097.06L358.447 2102.83C338.448 2099.01 326.43 2087.46 332.53 2065.39C336.95 2049.43 374.147 2056.07 378.607 2071.15C381.807 2081.95 371.185 2086.98 372.845 2097.06Z" fill="#F5B301"/>
<path d="M1265.6 1244.84C1268.72 1235.42 1260.7 1233.42 1259.84 1230.44C1254.06 1210.58 1287.76 1191.1 1303.04 1216.04C1319.34 1242.66 1287.62 1249.08 1265.6 1244.84Z" fill="#F5B301"/>
<path d="M338.285 2304.35V2281.32L358.445 2275.55C376.544 2290.35 376.864 2295.09 358.445 2310.11L338.285 2304.35Z" fill="#F5B301"/>
<path d="M1524.79 1049.05V1077.85C1518.41 1077.01 1510.27 1079.19 1504.63 1077.85C1491.67 1074.77 1498.71 1059.69 1501.75 1051.93L1524.79 1049.05Z" fill="#F5B301"/>
<path d="M102.141 2241.01V2217.98C131.479 2215.1 140.698 2228.49 116.539 2246.77L102.141 2241.01Z" fill="#F5B301"/>
<path d="M1657.26 1187.24C1653.78 1190.72 1637.32 1185.9 1634.22 1178.6C1632.34 1171.76 1641.78 1162.32 1648.62 1164.2C1655.92 1167.3 1660.74 1183.76 1657.26 1187.24Z" fill="#F5B301"/>
<path d="M165.495 2361.95C168.975 2358.47 185.431 2363.29 188.531 2370.59C190.411 2377.43 180.972 2386.86 174.132 2384.98C166.833 2381.88 162.015 2365.43 165.495 2361.95Z" fill="#F5B301"/>
<path d="M1006.41 2010.69C1006.67 2021.89 1015.33 2028.87 1012.17 2042.36C1011.65 2044.58 1007.09 2045.8 1006.41 2048.12C1002.41 2061.94 998.675 2066.72 994.895 2076.92C984.756 2104.2 984.754 2196.86 989.134 2232.39C989.394 2234.49 994.495 2235.96 994.895 2238.16C998.755 2259.94 997.914 2263.51 1006.41 2284.21C1025.09 2329.67 1054.73 2370.53 1075.53 2410.89C1104.91 2467.88 1126.89 2525.18 1150.41 2583.64C1165.87 2622.06 1167.21 2628.6 1173.45 2670.02C1173.77 2672.18 1178.99 2673.69 1179.21 2675.77C1181.51 2698.03 1182.31 2752.43 1179.21 2773.67C1178.89 2775.81 1173.89 2777.19 1173.45 2779.43C1161.21 2840.61 1144.65 2891.66 1127.37 2952.18C1117.97 2985.12 1108.77 3020.84 1104.33 3055.84C1099.03 3097.6 1091.21 3193.07 1098.57 3234.35C1098.77 3235.31 1103.27 3248.76 1104.33 3251.62C1113.83 3277.24 1133.35 3302.12 1144.65 3326.48C1158.99 3357.4 1171.71 3392.18 1179.21 3424.38C1193.27 3484.76 1207.11 3579.91 1190.73 3643.19C1185.21 3664.49 1174.28 3685.99 1167.68 3706.52C1157.41 3738.54 1148.93 3811.28 1156.17 3844.72C1156.63 3846.82 1166.52 3858.84 1167.68 3862C1173.14 3876.74 1174.63 3897.9 1179.21 3913.81C1180.13 3917.01 1189.85 3922.17 1190.73 3925.33C1195.63 3943.13 1181.13 3961.19 1164.81 3968.51L1141.77 3962.75C1138.75 3957.35 1122.21 3938.96 1121.61 3936.84C1120.57 3933.24 1122.71 3928.73 1121.61 3925.31C1115.31 3905.59 1104.85 3882.58 1098.57 3861.98C1091.01 3837.16 1089.23 3775.76 1092.81 3746.8C1093.51 3741.12 1102.51 3719.31 1104.33 3712.25C1110.79 3687.13 1120.73 3665.31 1127.37 3643.15C1137.39 3609.65 1142.89 3566.79 1138.89 3527.97C1138.67 3525.89 1133.45 3524.37 1133.13 3522.21C1128.17 3489.31 1125.03 3460.88 1115.85 3430.08C1099.35 3374.72 1067.07 3336.1 1040.97 3286.12C1029.01 3263.25 1028.49 3258.32 1023.69 3234.31C1023.25 3232.07 1018.26 3230.69 1017.94 3228.55C1013.74 3199.91 1015.18 3126.43 1017.94 3096.11C1019.94 3074.13 1025.85 3041.26 1029.45 3015.5C1036.29 2966.6 1056.77 2918 1069.77 2871.54C1082.93 2824.47 1100.65 2752.29 1092.81 2698.79C1092.49 2696.65 1087.49 2695.27 1087.05 2693.03C1080.41 2659.89 1077.79 2648.28 1064.01 2618.18C1039.55 2564.74 1017.43 2514.24 989.134 2462.7C959.215 2408.2 920.897 2351.95 908.498 2289.95C908.058 2287.71 903.061 2286.33 902.741 2284.19C898.721 2256.66 900.081 2186.65 902.741 2157.52C902.941 2155.44 908.218 2153.9 908.498 2151.76C909.878 2140.86 906.938 2127.92 908.498 2117.2C910.218 2105.5 920.838 2083.14 925.777 2071.14C932.017 2056 955.599 2008.6 968.978 2004.92C982.938 2001.09 994.594 2009.33 1006.41 2010.69Z" fill="black"/>
<path d="M649.309 2206.48C656.869 2226.11 623.352 2239.78 620.512 2249.66C619.472 2253.26 621.612 2257.76 620.512 2261.17C619.612 2263.93 612.67 2265.13 614.75 2272.69C615.39 2274.99 620.012 2276.25 620.512 2278.45C623.772 2293.05 619.232 2318.85 620.512 2336.03C620.712 2338.09 626.153 2339.75 626.273 2341.79C628.693 2381.05 622.27 2420.47 632.03 2456.97C638.889 2482.59 655.649 2523.14 666.589 2549.1C686.448 2596.2 717.789 2633.9 741.468 2675.77C749.728 2690.39 766.526 2719.64 770.265 2733.35C772.325 2740.89 774.442 2749.93 776.022 2756.39C784.562 2791.23 787.503 2913.14 781.783 2952.18C781.463 2954.32 776.462 2955.7 776.022 2957.94C765.642 3009.8 751.604 3059.86 729.945 3107.65C710.886 3149.71 677.986 3187.61 660.827 3228.57C653.788 3245.39 652.449 3262.41 649.309 3280.38C648.929 3282.58 643.813 3284.03 643.553 3286.15C642.253 3296.59 641.813 3322.46 643.553 3332.2C643.933 3334.34 648.649 3335.63 649.309 3337.97C650.369 3341.65 648.109 3346.24 649.309 3349.48C653.669 3361.3 665.25 3373.9 672.35 3384.04C707.908 3434.74 746.663 3480.36 776.022 3533.76C797.161 3572.21 805.363 3597.21 816.342 3637.41C817.022 3639.93 827.18 3652.17 827.86 3654.69C831.48 3667.97 831.182 3687.13 833.622 3700.75C834.022 3702.95 839.063 3704.35 839.383 3706.51C840.443 3713.59 840.443 3728.21 839.383 3735.3C839.063 3737.46 833.942 3738.91 833.622 3741.07C832.262 3750.01 835.082 3761.04 833.622 3769.86C828.982 3797.96 806.321 3850.56 793.301 3879.28C780.722 3907.04 761.184 3938.14 732.826 3951.26C730.446 3952.36 729.324 3956.11 727.064 3957.01C722.545 3958.83 714.345 3953.96 709.785 3962.77C705.305 3964.07 685.028 3952.58 683.868 3948.38C675.368 3917.56 699.406 3919.88 712.666 3902.32C725.265 3885.64 725.825 3875.26 729.945 3856.26C732.705 3843.54 733.587 3835.8 735.706 3821.7C737.846 3807.44 746.225 3777.59 747.225 3764.13C748.384 3748.47 749.724 3714.81 747.225 3700.79C746.085 3694.35 733.905 3665.81 729.945 3654.73C710.166 3599.41 683.748 3551.6 649.309 3505.02C622.61 3468.92 579.051 3427.92 562.912 3384.1C559.352 3374.44 559.175 3359.64 557.155 3349.54C556.715 3347.3 551.714 3345.93 551.394 3343.79C549.574 3331.39 550.054 3304.93 551.394 3291.97C551.614 3289.89 556.835 3288.36 557.155 3286.2C559.555 3270.29 557.972 3256.35 562.912 3240.15C580.691 3181.81 620.471 3135.67 649.309 3084.68C668.008 3051.62 680.77 3013.98 689.63 2981.02C701.209 2937.96 708.267 2845.39 701.148 2796.75C700.828 2794.61 695.826 2793.23 695.386 2790.99C694.326 2785.67 696.666 2778.53 695.386 2773.71C692.626 2763.31 682.946 2744.13 678.107 2733.41C660.787 2695.04 634.369 2663.79 614.75 2629.76C591.951 2590.2 573.971 2548.6 562.912 2508.84C549.792 2461.65 548.334 2407.01 551.394 2353.37C551.594 2351.35 557.015 2349.65 557.155 2347.61C558.515 2327.49 554.395 2303.17 557.155 2284.27C557.475 2282.13 562.472 2280.75 562.912 2278.51C563.972 2273.17 561.552 2265.85 562.912 2261.23C563.572 2258.97 567.933 2257.8 568.673 2255.48C569.773 2252.06 567.633 2247.55 568.673 2243.95C569.293 2241.79 596.392 2214.9 600.352 2212.28C604.951 2209.22 618.713 2208.08 623.392 2200.76L649.309 2206.52V2206.48Z" fill="black"/>
<path d="M355.565 3386.92C356.645 3388 354.045 3392.84 355.565 3395.56C365.084 3412.64 391.502 3435.36 401.642 3453.14C416.241 3478.72 414.841 3495.12 418.921 3522.23C419.241 3524.39 424.423 3525.88 424.683 3528C425.723 3536.34 426.083 3554.76 424.683 3562.55C424.303 3564.69 419.581 3565.98 418.921 3568.32C417.861 3572 420.121 3576.59 418.921 3579.83C412.941 3596.09 382.743 3642.13 369.963 3651.81C368.604 3652.83 365.167 3650.97 364.207 3651.81C358.567 3656.69 327.507 3686.69 326.767 3689.25C325.727 3692.85 327.867 3697.35 326.767 3700.77C326.007 3703.15 321.386 3704.41 321.006 3706.53C319.506 3714.95 319.266 3750.63 321.006 3758.35C321.466 3760.39 325.627 3761.6 326.767 3764.1C327.587 3765.88 326.027 3768.62 326.767 3769.86C334.407 3782.7 359.443 3797.35 367.083 3810.17C367.763 3811.31 372.684 3821 372.844 3821.68C374.664 3829.78 371.504 3841.58 372.844 3850.48C373.164 3852.64 378.346 3854.12 378.606 3856.24C379.706 3864.98 379.866 3882.24 378.606 3890.8C377.466 3898.6 370.083 3926.02 367.083 3936.86C366.503 3938.96 362.466 3940.14 361.326 3942.62C360.486 3944.46 362.046 3947.24 361.326 3948.38C353.287 3960.96 340.447 3956.61 326.767 3957.01C329.887 3947.59 321.866 3945.6 321.006 3942.62C316.766 3928.02 331.029 3924.7 332.529 3919.58C335.409 3909.86 343.247 3889.52 344.047 3885.02C345.207 3878.48 345.067 3863.04 344.047 3856.22C343.727 3854.08 338.685 3852.66 338.285 3850.46C337.005 3843.46 339.965 3833.52 338.285 3827.42C335.985 3819.04 310.886 3809.88 303.726 3798.62C302.886 3797.3 304.606 3794.32 303.726 3792.86C297.967 3783.26 292.967 3773.16 286.447 3764.06C290.887 3747.12 277.271 3732.61 280.69 3718.01C281.23 3715.73 286.067 3714.43 286.447 3712.25C287.707 3705.21 285.047 3695.99 286.447 3689.21C286.907 3687.03 291.548 3685.79 292.208 3683.45C294.488 3675.49 294.11 3674.53 297.97 3666.17C312.389 3635.07 343.427 3610.07 361.326 3579.8C363.526 3576.1 372.444 3564.4 372.844 3562.52C374.564 3554.52 374.364 3519.26 372.844 3510.7C372.464 3508.56 367.743 3507.28 367.083 3504.94C366.023 3501.26 368.283 3496.66 367.083 3493.42C355.023 3460.68 317.006 3420.24 289.328 3398.4C288.188 3397.5 284.831 3399.36 283.571 3398.4C273.252 3390.62 250.411 3355.24 246.131 3343.7C238.952 3324.28 242.53 3306.49 240.37 3286.13C240.15 3284.03 234.873 3282.51 234.613 3280.37C233.493 3271.35 233.493 3254.85 234.613 3245.81C234.873 3243.69 240.09 3242.19 240.37 3240.05C241.77 3229.15 238.81 3216.21 240.37 3205.49C241.33 3198.93 248.968 3174.7 251.888 3165.2C263.647 3126.98 289.289 3087.88 309.488 3055.78C313.628 3049.2 322.847 3041.7 326.767 3032.74C325.867 3023.46 328.087 3012.82 326.767 3003.94C326.447 3001.8 321.466 3000.42 321.006 2998.18C318.966 2988.12 318.809 2973.28 315.249 2963.62C308.73 2945.9 285.11 2916.51 280.69 2900.29C271.531 2866.69 268.771 2831.95 263.411 2796.63C263.091 2794.47 257.969 2793.03 257.649 2790.87C256.649 2784.07 256.489 2768.61 257.649 2762.07C258.029 2759.93 262.731 2758.65 263.411 2756.31C264.471 2752.59 262.171 2747.92 263.411 2744.8C264.311 2742.54 268.067 2741.41 269.167 2739.03C269.987 2737.27 268.427 2734.53 269.167 2733.27C271.807 2728.85 314.785 2685.25 318.125 2684.33C326.205 2682.11 347.303 2683.72 349.803 2692.98C355.703 2714.8 337.987 2733.19 326.767 2750.55C335.567 2755.15 330.729 2763.11 332.529 2767.83C341.288 2790.73 351.807 2814.29 361.326 2836.93C382.325 2886.83 411.263 2915.19 424.683 2969.36C425.243 2971.66 430.064 2972.96 430.444 2975.12C432.444 2986.34 432.704 3045.46 430.444 3055.74C429.984 3057.84 425.663 3059.04 424.683 3061.5C420.843 3071.14 416.124 3080.36 413.165 3090.3C376.566 3127.54 335.688 3161.35 315.249 3205.47C310.929 3214.77 293.908 3249.45 292.208 3257.29C290.088 3267.13 294.048 3281.49 292.208 3291.85C291.828 3293.97 287.187 3295.23 286.447 3297.61C283.147 3308.19 295.168 3315.32 292.208 3326.4C293.048 3328.64 296.89 3329.79 297.97 3332.17C299.61 3335.81 302.126 3347 303.726 3349.44C307.606 3355.3 340.908 3383.52 346.927 3386.88C349.647 3388.4 354.485 3385.8 355.565 3386.88V3386.92Z" fill="black"/>
<path d="M1398.08 3962.75C1397 3961.67 1399.6 3956.84 1398.08 3954.12C1395.88 3950.16 1389.02 3946.67 1386.56 3942.59C1382.64 3936.07 1382.64 3926 1380.8 3919.56C1380.12 3917.22 1375.42 3915.94 1375.04 3913.8C1373 3902.4 1373 3856.1 1375.04 3844.7C1375.42 3842.56 1380.14 3841.28 1380.8 3838.94C1389.5 3808.26 1408.18 3771.84 1392.32 3741.04L1386.56 3712.25L1406.72 3697.84C1411.32 3706.64 1419.3 3701.81 1424 3703.61C1426.24 3704.47 1427.38 3708.27 1429.76 3709.37C1431.52 3710.19 1434.28 3708.63 1435.52 3709.37C1438.38 3711.07 1448.02 3720.79 1449.92 3723.77C1450.76 3725.07 1449.04 3728.04 1449.92 3729.52C1452.12 3733.22 1461.04 3744.94 1461.44 3746.8C1462.88 3753.48 1460.2 3762.76 1461.44 3769.84C1461.82 3772.04 1466.94 3773.48 1467.2 3775.6C1471.96 3814.06 1464.04 3851.62 1455.68 3885.02C1467.26 3897.34 1462.9 3918.34 1472.96 3931.07C1468.32 3944.01 1466.84 3960.16 1452.8 3968.51C1451.56 3969.25 1448.82 3967.69 1447.04 3968.51C1444.54 3969.65 1443.32 3973.81 1441.28 3974.27C1418.54 3979.37 1418.14 3969.11 1406.72 3962.75C1404 3961.23 1399.16 3963.83 1398.08 3962.75Z" fill="black"/>
<path d="M1415.36 2626.82C1414.18 2640.74 1417.04 2656.44 1415.36 2670C1415.1 2672.1 1410 2673.54 1409.6 2675.76C1406.32 2693.66 1414.66 2707.86 1421.12 2721.81C1428.46 2737.63 1447.08 2763.46 1449.91 2779.39C1452.05 2791.35 1447.4 2808.45 1449.91 2819.69C1450.43 2822.01 1457.78 2823.63 1455.68 2831.21C1455.04 2833.53 1450.35 2834.79 1449.91 2836.97C1448.83 2842.29 1451.21 2849.49 1449.91 2854.25C1449.53 2855.63 1431.13 2874.03 1429.75 2874.41C1425.59 2875.55 1399.36 2875.55 1395.2 2874.41C1379.28 2870.03 1378.98 2840.01 1380.8 2825.47C1381.06 2823.35 1386.16 2821.93 1386.56 2819.71C1392.78 2785.69 1362.84 2762.49 1357.76 2739.09C1355.7 2729.59 1355.94 2680.24 1357.76 2670C1358.14 2667.86 1362.84 2666.58 1363.52 2664.24C1364.58 2660.52 1362.28 2655.84 1363.52 2652.72C1364.18 2651.06 1368.58 2642.36 1369.28 2641.2C1370.88 2638.52 1388.08 2621.44 1389.44 2621.04C1400.22 2617.92 1404.88 2628.22 1415.36 2626.82Z" fill="black"/>
<path d="M1668.78 2644.09C1669.78 2643.09 1674.32 2645.39 1677.42 2644.09C1679.92 2643.05 1681.16 2638.7 1683.18 2638.34C1726.92 2630.46 1723.44 2670.99 1720.62 2704.55C1720.42 2706.61 1715.06 2708.23 1714.86 2710.31C1711.24 2748.75 1725.28 2774.23 1732.14 2808.21C1732.6 2810.45 1737.58 2811.83 1737.9 2813.97C1742.28 2843.43 1730.88 2862.27 1706.22 2874.43H1694.7C1688.88 2867.51 1679.98 2868.61 1674.54 2860.03C1673.82 2858.89 1675.38 2856.11 1674.54 2854.27C1673.4 2851.77 1669.24 2850.54 1668.78 2848.5C1666.6 2838.78 1670.62 2824.28 1668.78 2813.94C1668.4 2811.8 1663.68 2810.53 1663.02 2808.19C1655.08 2780.19 1641.88 2752.81 1645.74 2721.81C1646 2719.69 1651.18 2718.21 1651.5 2716.05C1653.8 2700.73 1651.71 2685.21 1657.27 2669.99C1658.59 2666.41 1667.18 2656.56 1668.78 2652.72C1670.08 2649.62 1667.78 2645.09 1668.78 2644.09Z" fill="black"/>
<path d="M1714.86 3790C1711.7 3799.24 1720.22 3802.14 1720.62 3804.4C1722.16 3813.12 1719.08 3824.48 1720.62 3833.2C1722.08 3841.46 1736.14 3864.9 1737.9 3873.5C1739.3 3880.3 1736.64 3889.5 1737.9 3896.54C1738.3 3898.74 1743.34 3900.14 1743.66 3902.3C1744.72 3909.38 1744.72 3924.02 1743.66 3931.1C1743.34 3933.22 1738.44 3934.58 1737.9 3936.86C1736.7 3942 1739.22 3949.32 1737.9 3954.14C1737.52 3955.52 1720.44 3972.69 1717.74 3974.29C1716.5 3975.03 1713.76 3973.47 1711.98 3974.29C1709.48 3975.43 1708.26 3979.59 1706.22 3980.05C1701.56 3981.09 1681.58 3981.19 1677.42 3980.05C1675.66 3979.57 1651.98 3955.92 1651.5 3954.14C1649.96 3948.56 1650.6 3926.78 1651.5 3919.58C1655.44 3888.06 1656.32 3888.72 1651.5 3856.24C1648.7 3837.44 1653.92 3818.5 1663.02 3804.42C1666.12 3786.48 1682.56 3781.04 1700.46 3784.26C1702.74 3784.68 1705.6 3793.16 1714.86 3790Z" fill="black"/>
<path d="M3005.04 1567.31C2991.72 1575.85 2978.87 1588.51 2961.85 1584.59C2959.79 1584.11 2958.59 1579.97 2956.09 1578.83C2954.31 1578.01 2951.57 1579.57 2950.33 1578.83C2929.39 1566.37 2929.39 1527.95 2950.33 1515.49C2951.57 1514.75 2954.31 1516.31 2956.09 1515.49C2963.05 1512.33 2966.07 1506.73 2979.13 1509.73C2981.19 1510.21 2982.38 1514.35 2984.88 1515.49C2986.66 1516.31 2989.4 1514.75 2990.64 1515.49C3010.46 1527.29 3004.66 1546.85 3005.04 1567.31Z" fill="black"/>
<path d="M3298.79 1866.73C3296.81 1867.61 3270.59 1867.69 3267.11 1866.73C3265.73 1866.35 3247.33 1847.95 3246.95 1846.57C3245.89 1842.71 3245.89 1821.64 3246.95 1817.78C3247.33 1816.4 3265.73 1798 3267.11 1797.62C3270.97 1796.56 3292.05 1796.56 3295.9 1797.62C3297.28 1798 3315.69 1816.4 3316.07 1817.78C3317.13 1821.64 3317.13 1842.69 3316.07 1846.57C3315.71 1847.85 3300.01 1866.19 3298.79 1866.73Z" fill="black"/>
<path d="M3264.23 2770.77C3263.31 2777.05 3265.69 2785.61 3264.23 2790.93C3263.11 2795.03 3225.61 2828.47 3218.15 2836.99C3037.46 3043.16 2860.83 3255.71 2676.74 3458.88C2559.7 3588.03 2433.29 3715.21 2319.63 3844.68C2297.86 3869.5 2278.24 3889.14 2253.4 3910.9C2239.66 3922.96 2215.32 3956.26 2195.8 3951.2C2182.8 3943.46 2192.5 3932.8 2198.68 3925.28C2219.36 3897.5 2247.1 3867.04 2267.8 3838.9C2295.31 3801.48 2319.63 3765.44 2348.43 3729.48C2509.48 3528.45 2694.24 3325.96 2878.33 3136.37C2983.26 3028.3 3107.6 2922.3 3200.87 2808.15C3215.43 2790.33 3235.39 2783.39 3249.83 2764.97L3264.23 2770.73V2770.77Z" fill="black"/>
<path d="M3275.75 2995.36C3282.97 3026.96 3258.31 3035.2 3241.19 3055.82C3009.79 3334.61 2809.98 3627.99 2573.07 3902.28C2556.85 3921.06 2529.04 3948.46 2509.71 3959.85C2505.17 3962.53 2493.43 3969.58 2489.55 3968.5C2483.41 3966.8 2478.77 3955.08 2480.91 3948.34C2481.59 3946.18 2485.53 3945.02 2486.67 3942.58C2492.73 3929.64 2498.13 3928.6 2503.95 3919.54C2578.79 3803 2647.62 3698.91 2734.34 3591.31C2888.13 3400.48 3057.36 3205.25 3223.92 3021.24C3233.89 3010.2 3245.43 3000.46 3255.59 2989.56L3275.75 2995.32V2995.36Z" fill="black"/>
<path d="M2092.12 2943.52C2098.1 2941.96 2111.54 2955.21 2112.28 2957.93C2117.84 2978.22 2100.14 2984.98 2089.24 2998.22C1955.67 3160.63 1850.92 3342 1688.94 3490.56C1673.08 3505.1 1646.42 3539 1631.34 3548.14C1629.68 3549.16 1622.71 3547.41 1619.83 3553.89C1593.43 3550.29 1588.56 3529.15 1593.9 3504.96C1597.06 3490.64 1623.74 3455.56 1634.22 3441.62C1727.62 3317.28 1843.08 3193.57 1951.01 3078.86C1981.19 3046.78 2045.53 2974.7 2077.72 2952.18C2082.98 2948.5 2088.32 2949.67 2092.12 2943.55V2943.52Z" fill="black"/>
<path d="M2567.3 3202.65C2567.08 3210.79 2569.12 3218.01 2564.42 3225.69C2531.74 3279.07 2476.56 3330 2434.83 3378.28C2379.05 3442.8 2320.19 3517.18 2262.04 3579.81C2189.54 3657.91 2105.34 3727.94 2043.17 3810.14C2034.17 3822.04 2021.71 3826.84 2008.61 3833.18L1991.33 3830.3L1985.57 3810.14C1986.21 3807.94 1990.39 3806.78 1991.33 3804.38C1992.85 3800.52 1995.53 3789.46 1997.09 3787.1C2133.14 3583.13 2338.85 3378.92 2529.86 3214.15L2567.3 3202.65Z" fill="black"/>
<path d="M3272.87 3294.78C3285.01 3291.31 3290.87 3301.4 3298.79 3309.18C3290.61 3323.68 3279.67 3336.04 3269.99 3349.48C3160.59 3501.47 3034.14 3650.6 2907.13 3792.86C2863.25 3841.99 2802.23 3889.93 2768.89 3942.57C2763.46 3951.15 2754.55 3950.05 2748.73 3956.97L2734.34 3942.57C2743.14 3937.97 2738.29 3929.99 2740.09 3925.29C2744.67 3913.35 2755.51 3906.27 2763.13 3896.49C2824.11 3818.38 2881.25 3734.8 2941.68 3654.65C3019.6 3551.29 3116.06 3456.57 3206.63 3360.98C3215.47 3351.64 3268.37 3296.06 3272.87 3294.78Z" fill="black"/>
<path d="M1881.89 3536.63L1876.13 3516.47C1882.61 3513.59 1880.87 3506.63 1881.89 3504.95C1890.61 3490.57 1911.87 3472.53 1922.21 3458.89C2008.53 3344.92 2091.36 3217.76 2207.32 3122.03C2218.64 3112.69 2236.3 3088.27 2253.4 3093.23C2271.59 3098.51 2254.19 3116.87 2250.51 3124.91C2238.94 3150.27 2230.74 3160.39 2215.96 3182.49C2131.34 3309.06 2018.6 3421.46 1904.93 3533.75L1881.89 3536.63Z" fill="black"/>
<path d="M3226.79 3605.73C3242.39 3601.43 3255.15 3607.65 3264.23 3620.13V3625.89C3257.11 3630.49 3256.31 3642.61 3252.71 3648.93C3235.77 3678.53 3209.81 3712.44 3189.35 3741.06C3155.23 3788.78 3117.38 3835.02 3079.92 3879.26C3071.38 3889.33 3028.8 3942.71 3019.44 3945.47C3013.28 3947.29 3003.76 3947.31 2996.4 3951.23C2985.08 3941.95 2975.78 3931.53 2984.88 3916.68C2986.78 3913.6 2991.36 3911.21 2993.52 3908.03C3004.36 3892.03 3019.24 3881.02 3028.08 3867.74C3031.94 3861.94 3035.74 3844.76 3039.6 3838.94C3050.46 3822.62 3077.32 3803.78 3091.44 3787.12C3121.51 3751.64 3150.89 3704.07 3177.83 3666.21C3189.33 3657.93 3215.17 3608.93 3226.79 3605.73Z" fill="black"/>
<path d="M1654.39 3104.75C1670.67 3099.85 1678.29 3117.12 1674.55 3130.68C1673.71 3133.72 1661.07 3143.01 1657.27 3147.95C1589.75 3235.69 1518.19 3353.59 1429.75 3421.48C1418.35 3430.22 1414.56 3444.12 1395.2 3438.76C1394.22 3438.48 1381.08 3425.34 1380.8 3424.36C1377.56 3413.08 1385.02 3410.92 1386.56 3407.08C1388.1 3403.24 1390.74 3392.16 1392.32 3389.8C1414.78 3356.13 1455.93 3314.56 1484.47 3280.39C1514.41 3244.55 1553.95 3209.59 1582.39 3176.73C1590.61 3167.23 1649.51 3106.21 1654.39 3104.75Z" fill="black"/>
<path d="M3094.32 2638.34C3124.8 2629.94 3145.92 2651.06 3137.52 2681.52C3135.96 2687.22 3065.06 2755.07 3054 2765.01C3031.54 2785.19 2998.28 2810.97 2973.36 2828.35C2961.98 2836.29 2951.13 2850.65 2933.05 2845.63C2932.07 2845.35 2918.92 2832.21 2918.64 2831.23V2825.47C2927.28 2820.73 2922.79 2813.85 2924.41 2808.19C2925.31 2805.07 2937.87 2795.87 2941.69 2790.91C2977 2745.01 3026.62 2697.99 3071.28 2661.36C3076.98 2656.68 3091.04 2639.22 3094.32 2638.32V2638.34Z" fill="black"/>
<path d="M2057.57 2684.41C2080.57 2678.96 2087.45 2693.09 2080.61 2713.21C2072.75 2736.35 2042.25 2765.65 2023.01 2782.31C2021.93 2783.23 2018.39 2781.35 2017.25 2782.31C2000.11 2796.77 1992.01 2812.15 1968.29 2819.75C1966.41 2822.53 1954.67 2817.37 1953.89 2816.87C1945.31 2811.39 1946.41 2802.55 1939.49 2796.71C1948.13 2791.97 1943.63 2785.09 1945.25 2779.43C1946.21 2776.11 1987.31 2736.39 1994.21 2730.49C1995.29 2729.55 1998.83 2731.45 1999.97 2730.49C2017.77 2715.51 2031.65 2699.43 2051.81 2690.19C2054.31 2689.05 2055.51 2684.91 2057.57 2684.41Z" fill="black"/>
</g>
<defs>
<clipPath id="clip0_9001_4267">
<rect width="4549.57" height="4101.14" fill="white"/>
</clipPath>
</defs>
</svg>
