<svg width="3991" height="3671" viewBox="0 0 3991 3671" fill="none" xmlns="http://www.w3.org/2000/svg">
<g clip-path="url(#clip0_9001_3664)">
<path d="M3030.34 1855.27C3093.75 1897.51 3159.09 1968.45 3208.85 2030.9C3213.07 2036.2 3225.41 2044.24 3226.13 2045.3C3227.17 2046.84 3224.55 2051.5 3226.13 2053.94C3269.41 2121.08 3310.16 2202.77 3329.78 2278.51C3347.84 2348.24 3351.56 2464.5 3347.06 2543.4C3346.86 2545.42 3341.44 2547.12 3341.3 2549.16C3336.58 2618.86 3335.22 2649.97 3312.5 2716.15C3293.7 2770.91 3268.38 2832.86 3237.65 2888.9C3203.87 2950.48 3164.63 3014.24 3122.47 3073.17C2963 3296.1 2673.01 3483.05 2422.85 3548.23C2372.29 3561.39 2307.93 3578.55 2255.85 3582.79C2210.37 3586.49 2148.72 3583.67 2106.14 3577.03C2047.58 3567.89 1989.83 3547.47 1933.39 3530.97C1871.29 3512.79 1796.45 3489.85 1737.6 3456.11C1728.64 3450.97 1716.7 3437.38 1705.92 3433.08C1707.38 3432.1 1714.34 3419.54 1720.32 3415.8C1744.76 3400.48 1766.42 3393.7 1786.54 3366.86C1788.92 3363.68 1808.99 3329.22 1809.57 3326.56C1814.83 3302.24 1810.13 3281.28 1783.65 3277.62C1779.09 3286.44 1770.89 3281.56 1766.38 3283.38C1764.12 3284.28 1763 3288.04 1760.62 3289.14C1745.36 3296.22 1735.72 3308.46 1720.32 3317.94C1683.6 3340.5 1647.8 3348.24 1613.78 3364C1596.04 3341.12 1574.41 3320.26 1556.21 3297.78C1547.81 3287.4 1530.53 3256 1521.65 3248.84C1519.37 3236.02 1532.07 3235.29 1533.17 3222.93C1534.87 3203.87 1514.95 3196.73 1504.37 3182.63C1492.75 3167.13 1456.23 3096.79 1452.55 3078.97C1445.71 3045.98 1447.01 3008.97 1441.03 2975.32C1433.71 2934.08 1425.33 2888.82 1429.51 2842.89C1434.33 2790.01 1451.23 2731.91 1464.07 2681.65C1489.93 2580.32 1529.67 2470.34 1584.98 2376.47C1618.8 2319.09 1655.2 2259.59 1694.4 2203.71C1760.66 2109.28 1847.97 2037.42 1933.37 1964.74C1943.85 1955.82 1962.81 1937.81 1970.81 1927.31C1979.97 1915.29 1977.73 1912.83 1970.81 1901.39C2001.94 1886.57 2030.24 1864.53 2065.82 1849.57C2214.87 1786.89 2381.77 1739.4 2543.76 1728.66C2584.36 1725.96 2632.86 1724.28 2670.43 1728.66C2724.13 1734.92 2781.21 1753.49 2831.67 1768.95C2895.46 1788.51 2974.36 1818.07 3030.34 1855.33V1855.27ZM2673.31 1774.65C2663.25 1779.17 2654.99 1769.15 2653.15 1768.89C2613.18 1763.13 2565.18 1778.38 2532.24 1791.93C2498.52 1805.79 2464.54 1824.01 2434.34 1837.99C2376.03 1864.99 2318.45 1898.73 2267.35 1935.89C2039.14 2101.8 1899.53 2341.33 1826.85 2600.97C1783.28 2756.65 1779.45 2929.46 1815.33 3090.43C1817.65 3100.85 1818.29 3108.35 1821.09 3119.23C1852.37 3240.94 1925.43 3334.94 2025.5 3410.02C2101.94 3467.35 2184.82 3499.91 2273.11 3525.19C2278.41 3526.71 2298.05 3536.15 2301.91 3536.71C2311.17 3538.07 2352.29 3538.67 2359.49 3536.71C2371.79 3533.39 2371.77 3499.93 2359.49 3496.41C2355.89 3495.38 2351.39 3497.51 2347.97 3496.41C2345.59 3495.65 2344.33 3491.03 2342.21 3490.65C2328.61 3488.23 2309.07 3493.45 2296.15 3490.65C2294.05 3490.19 2281.87 3480.18 2278.87 3479.14C2229.11 3461.82 2172.42 3444.6 2129.16 3415.8C2035.2 3353.26 1970.11 3248.07 1936.25 3142.27C1918.11 3085.55 1913.95 3031.19 1907.45 2969.52C1894.31 2844.64 1898.67 2714.69 1930.49 2600.99C1956.63 2507.58 1987.51 2412.07 2034.14 2324.59C2125.26 2153.72 2253.33 2011.44 2417.06 1907.11C2484.3 1864.27 2560.96 1819.35 2635.88 1797.69C2640.68 1796.31 2648.26 1799.03 2653.15 1797.69C2655.27 1797.11 2656.45 1793.07 2658.91 1791.93C2666.27 1788.55 2675.57 1788.91 2673.31 1774.65ZM2932.44 2874.48L2918.04 2868.72C2914.32 2873.78 2906.52 2878.28 2903.64 2883.12C2902.9 2884.36 2904.46 2887.12 2903.64 2888.88C2879.96 2939.94 2856.98 2995.42 2828.79 3044.36C2793.95 3104.85 2727.29 3176.87 2664.67 3214.23C2654.21 3220.47 2634.21 3225.15 2624.37 3231.51C2621.31 3233.49 2618.88 3237.73 2615.74 3240.15L2621.5 3266.06C2630.74 3262.9 2633.63 3271.43 2635.89 3271.83C2643.05 3273.09 2663.31 3273.11 2670.45 3271.83C2672.59 3271.45 2673.87 3266.72 2676.21 3266.06C2753.57 3244.11 2836.59 3145.01 2869.12 3073.15C2894.2 3017.8 2920.88 2950.82 2932.46 2894.64C2933.68 2888.76 2931.68 2880.92 2932.44 2874.48ZM2454.5 2955.1C2450.2 2982.32 2465.38 2987.14 2486.18 2995.4C2488.64 2996.38 2489.84 3000.69 2491.94 3001.15C2504.88 3004.01 2574.94 3003.33 2589.84 3001.15C2591.98 3000.83 2593.36 2995.84 2595.6 2995.4C2621.88 2990.16 2645.63 2984.7 2670.45 2972.36L2719.39 2934.92L2725.15 2917.64L2704.99 2903.24C2684.01 2916.5 2665.21 2927.88 2641.65 2937.8C2615.32 2948.88 2605.82 2950.2 2578.32 2955.08C2576.12 2955.48 2574.68 2960.58 2572.56 2960.84C2552.12 2963.36 2506.92 2963.1 2486.18 2960.84C2484.08 2960.62 2482.6 2955.44 2480.42 2955.08C2472.52 2953.8 2462.82 2955.94 2454.5 2955.1Z" fill="black"/>
<path d="M3479.48 795.741C3485.7 856.678 3510.61 914.675 3525.53 971.372C3552.87 1075.17 3567.37 1186.3 3571.59 1299.59C3575.87 1414.05 3565.61 1521.42 3537.03 1622.06C3517.87 1689.54 3467.7 1793.75 3407.48 1832.23C3397.12 1838.85 3400.88 1845.13 3398.84 1849.51C3397.8 1851.73 3381.38 1855.65 3378.68 1861.03H3370.04C3371.42 1851.83 3371.84 1820.39 3370.04 1812.09C3369.62 1810.15 3360.58 1798.53 3358.52 1794.82C3357.48 1792.96 3359.88 1787.75 3352.76 1783.29C3343.76 1777.65 3321.02 1778.65 3318.2 1789.05C3317.04 1793.35 3317.16 1813.03 3318.2 1817.85C3318.62 1819.81 3329.3 1833.17 3329.72 1835.13C3334.32 1856.41 3325.08 1878.55 3323.96 1892.71C3322.84 1906.75 3325.48 1922.23 3323.96 1935.89C3320.82 1964.25 3290.82 1991.26 3272.14 2013.62C3271.22 2014.72 3273.1 2018.2 3272.14 2019.38C3261 2033.04 3245.35 2047 3226.09 2045.3C3225.39 2044.26 3213.03 2036.2 3208.81 2030.9C3159.05 1968.45 3093.71 1897.51 3030.29 1855.27L3059.09 1817.83L3070.62 1786.15C3107.67 1792.13 3103.93 1770.4 3125.31 1757.36C3126.33 1756.74 3134.85 1752.43 3136.83 1751.59C3139.93 1750.29 3144.41 1752.59 3145.47 1751.59C3146.03 1751.05 3143.85 1740.16 3151.23 1737.2C3148.81 1732.92 3146.23 1717.78 3145.47 1717.04C3144.43 1716.04 3139.93 1718.34 3136.83 1717.04C3134.35 1716 3133.11 1711.64 3131.07 1711.28C3102.71 1706.18 3079.63 1726.27 3064.85 1748.71C3065.91 1758.87 3063.31 1770.79 3064.85 1780.39C3045.11 1771.89 3027.08 1753.41 3013.04 1737.22C2984.56 1704.32 2930.24 1640.02 2915.14 1599.02C2909.52 1583.76 2911.7 1568.31 2909.38 1552.97C2909.06 1550.81 2903.92 1549.34 2903.62 1547.2C2900.18 1522.59 2902.06 1490.07 2897.86 1466.59C2886.26 1401.55 2898.34 1310.95 2892.1 1236.26C2887.38 1179.78 2891.38 1118.93 2886.34 1057.75C2879.16 970.514 2869.34 873.896 2846.05 792.86C2835.09 754.762 2817.55 695.004 2794.23 663.306C2806.29 665.046 2817.29 665.166 2811.51 648.907C2810.67 646.567 2806.47 645.405 2805.75 643.145C2753.99 478.333 2676.83 358.642 2537.98 254.467C2454.88 192.11 2355.81 147.773 2255.83 127.794C2181.52 112.934 2093.82 108.755 2019.74 127.794C2011.48 129.914 1998.94 131.19 1990.94 133.55C1980.9 136.51 1969.75 157.968 1985.19 162.348C1990.24 163.788 1994.46 158.171 2002.46 156.591C2056.48 145.932 2120.86 139.588 2180.98 145.068C2183.06 145.268 2184.6 150.55 2186.74 150.83C2248.11 158.609 2279.83 166.152 2336.45 191.13C2418.1 227.169 2497.02 280.603 2561.02 340.84C2588.34 366.539 2611.26 392.198 2632.99 421.457C2622.93 425.976 2614.68 415.96 2612.84 415.7C2542.14 405.521 2423.24 414.239 2353.71 427.218C2279.55 441.057 2209.62 478.794 2140.66 519.352C2072.1 559.67 1987.64 634.148 1936.25 700.745C1932.41 705.725 1919.93 714.825 1918.97 718.025C1916.57 726.104 1914.97 742.785 1930.49 738.185C1900.15 760.824 1854.61 840.699 1832.59 879.257C1778.51 973.993 1727.52 1073.77 1682.88 1172.92C1669.08 1203.58 1642.28 1266.14 1616.66 1285.21C1573.94 1316.99 1523.39 1334.47 1469.83 1334.15L1441.03 1331.28C1442.77 1327.38 1439.79 1317.08 1441.03 1311.12C1441.43 1309.22 1450.21 1305.1 1446.79 1293.84C1446.07 1291.5 1441.53 1290.28 1441.03 1288.08C1439.83 1282.9 1442.41 1275.5 1441.03 1270.8C1440.37 1268.54 1436.01 1267.36 1435.27 1265.04C1434.19 1261.62 1436.29 1257.14 1435.27 1253.52C1433.55 1247.36 1418.37 1236.54 1409.35 1239.12C1400.33 1241.7 1401.97 1248.92 1403.59 1256.4C1405.23 1264 1412.03 1275.44 1412.23 1276.56C1416.03 1298.02 1405.65 1323.94 1417.99 1342.78V1348.53C1412.19 1345.79 1385.03 1340.09 1374.81 1337.01C1315 1319.02 1238.68 1304.88 1176.14 1302.46C1175.2 1293.2 1177.54 1282.44 1176.14 1273.66C1198.94 1265.92 1189.8 1249.36 1193.42 1236.22C1193.72 1235.16 1204.08 1220.08 1204.94 1218.94C1215.08 1205.56 1235.22 1195.98 1251 1193.02V1169.98C1241.22 1171.32 1228.22 1168.02 1219.32 1169.98C1217.22 1170.44 1216.02 1174.76 1213.56 1175.74C1197.32 1182.2 1189.62 1187.54 1176.12 1198.78C1168.76 1195 1157.42 1185.16 1153.08 1178.62C1143.64 1164.38 1135.44 1137.22 1130.04 1121.04C1117.83 1084.36 1113.21 1031.67 1118.53 988.613C1122.23 958.634 1137.92 909.292 1147.32 879.194C1188.48 747.3 1280.04 606.908 1371.89 499.153C1505.63 342.28 1638.44 232.909 1823.91 139.253C1917.75 91.8753 2029.6 51.2134 2129.1 29.8344C2259.11 1.91566 2418.87 -11.664 2555.22 12.5549C2603.56 21.1345 2649.79 28.6578 2699.17 41.3573C2759.01 56.7365 2813.61 83.4719 2871.92 110.451C2895.14 121.19 2918.44 134.81 2941.02 145.01C3009.34 175.848 3061.29 232.367 3119.53 277.445C3138.57 292.184 3184.77 319.062 3197.27 337.901C3220.47 372.879 3254.77 401.478 3283.64 435.797C3337.34 499.634 3379.38 567.87 3416.08 643.087C3434.38 680.585 3475.77 760.064 3479.41 795.682L3479.48 795.741ZM3439.18 1705.56C3423.44 1699.04 3407.82 1721.04 3401.74 1722.84C3383.64 1728.18 3367.18 1730.89 3349.92 1734.35C3347.68 1734.79 3346.3 1739.8 3344.16 1740.12C3335.62 1741.38 3318.36 1741.22 3309.6 1740.12C3307.48 1739.86 3305.98 1734.63 3303.84 1734.35C3292.98 1732.97 3279.58 1736.17 3269.28 1734.35C3267.13 1733.97 3265.83 1729.16 3263.53 1728.6C3224.65 1718.98 3201.47 1704.34 3174.27 1673.9C3147.07 1643.46 3107.95 1581.14 3093.65 1541.46C3090.07 1531.54 3090.81 1513.99 3082.13 1506.91C3083.21 1391.89 3081.63 1279.68 3076.37 1167.16C3070.87 1049.27 3064.65 929.256 3047.57 815.901C3035.93 738.645 3020.76 665.948 2995.76 591.331C2980.92 547.054 2957.74 501.034 2938.18 458.896C2883.18 340.342 2775.19 212.106 2670.41 133.55C2623.59 98.4518 2547.04 62.8166 2491.9 47.1773C2452.3 35.9378 2410.33 30.3344 2370.99 18.3749C2359.75 14.9551 2355.33 23.8364 2353.71 24.1364C2344.67 25.7563 2312.85 22.0165 2310.53 24.1364C2308.21 38.4757 2317.71 38.016 2324.93 41.4158C2355.25 55.6752 2384.47 60.5938 2417.06 70.2133C2466.36 84.7526 2511.22 102.075 2561.02 127.794C2620.71 158.632 2645.03 183.787 2693.45 225.685C2789.85 309.061 2869.48 442.457 2920.9 556.792C2965.88 656.787 2990.98 765.241 3007.28 873.496C3037.73 1075.83 3017.14 1298.86 3047.57 1501.15C3051.41 1526.63 3052.2 1540.17 3059.09 1564.48C3075.67 1622.86 3129.57 1698.52 3182.89 1728.6C3188.27 1731.64 3199.11 1739.82 3200.17 1740.12C3219.05 1745.56 3237.41 1752.36 3257.75 1757.39C3260.04 1757.95 3261.34 1762.78 3263.5 1763.16C3273.78 1764.98 3287.2 1761.78 3298.06 1763.16C3300.18 1763.44 3301.7 1768.65 3303.82 1768.91C3312.84 1770.03 3329.36 1770.03 3338.38 1768.91C3340.5 1768.65 3341.94 1763.56 3344.14 1763.16C3356.7 1760.92 3371.92 1762.05 3384.44 1757.39C3388.08 1756.04 3397.8 1747.52 3401.72 1745.88C3405.9 1744.14 3418.24 1743.96 3424.76 1740.12C3437.7 1732.48 3441.46 1720.02 3439.18 1705.56ZM2267.35 191.13C2255.89 194.43 2255.89 216.628 2267.35 219.928C2293.85 227.528 2293.85 183.531 2267.35 191.13ZM1990.96 202.629C1975.72 206.829 1980.93 237.606 2002.48 231.426C2020.86 226.147 2002.24 199.529 1990.96 202.629ZM2140.68 208.386C2125.62 212.625 2120.62 235.286 2137.8 245.825C2172.74 267.224 2180.68 197.166 2140.68 208.386ZM1803.81 248.706C1792.35 250.286 1776.87 246.426 1766.37 248.706C1758.79 250.346 1724.7 271.664 1714.56 277.503C1588.46 350.06 1470.67 474.897 1389.21 591.331C1362.95 628.87 1327.93 682.084 1308.6 723.762C1283.94 776.919 1258.46 830.457 1245.26 884.994C1238.3 913.773 1224.4 982.95 1227.98 1011.67C1228.24 1013.79 1233.46 1015.29 1233.74 1017.43C1235.14 1028.33 1232.18 1041.27 1233.74 1051.99C1234.06 1054.13 1239.06 1055.51 1239.5 1057.75C1243.1 1075.79 1243.12 1081.01 1251.02 1098.05C1268.98 1136.82 1309.28 1169.26 1346.04 1193.06C1392.13 1222.9 1410.03 1227.72 1461.21 1239.12C1467.79 1240.58 1490.31 1249.96 1495.77 1250.64C1526.69 1254.46 1579.66 1249.24 1605.18 1239.12C1607.42 1238.22 1608.56 1234.46 1610.94 1233.36C1612.76 1232.52 1615.54 1234.1 1616.7 1233.36C1633.8 1222.52 1625.2 1201.32 1605.18 1204.56C1559.69 1223.98 1501.87 1216.58 1455.47 1204.56C1453.25 1203.98 1452.05 1199.54 1449.71 1198.8C1445.09 1197.34 1437.39 1200.14 1432.43 1198.8C1416.55 1194.46 1349.33 1143.22 1337.42 1126.82C1336.3 1125.28 1326.19 1110.6 1325.89 1109.54C1321.93 1095.79 1319.84 1093.05 1314.38 1080.75C1307.16 1064.47 1310.98 1056.11 1308.62 1040.45C1308.3 1038.29 1303.08 1036.77 1302.86 1034.69C1295.8 966.393 1308.94 892.433 1325.89 833.156C1352.71 739.34 1408.81 649.267 1464.09 568.271C1532.55 467.996 1658.28 346.322 1760.64 283.245C1767.11 279.246 1783.14 275.722 1789.43 271.722C1794.23 268.663 1808.83 253.086 1803.83 248.686L1803.81 248.706ZM2051.42 317.804C2061.18 318.004 2082.88 320.502 2085.98 309.162C2092.9 283.723 2071.9 280.405 2051.42 283.245C2054.36 292.685 2043.68 296.066 2045.66 303.406C2046.42 306.245 2054.56 308.405 2051.42 317.804ZM2270.23 340.84C2279.65 337.72 2281.65 345.742 2284.63 346.602C2300.73 351.281 2317.99 328.922 2307.67 312.043C2289.87 282.984 2262.07 313.562 2270.23 340.84ZM2183.85 398.421C2183.85 408.24 2181.12 429.795 2192.49 432.975C2225.37 442.154 2224.17 396.598 2209.77 392.679C2198.71 389.679 2194.03 399.98 2183.85 398.421ZM2039.9 432.955C2013.64 430.915 1999.38 430.478 1993.84 458.877C2000.14 462.977 2001.06 477.077 2008.24 479.037C2029.92 484.957 2050.72 470.278 2045.68 447.359C2045.12 444.819 2036.74 442.275 2039.9 432.955ZM3234.75 1233.36C3229.83 1234.7 3226.91 1242.14 3226.11 1247.76C3221.87 1277.92 3254.45 1292.15 3269.28 1267.92C3282.6 1246.16 3257.24 1227.28 3234.75 1233.36ZM3416.14 1342.78L3395.98 1337.01C3377 1351.83 3376.36 1362.04 3395.98 1377.32L3416.14 1371.55V1342.78ZM3226.11 1406.11H3197.31L3191.55 1426.27C3206.37 1445.25 3216.57 1445.89 3231.85 1426.27L3226.11 1406.11ZM3205.95 1544.32C3190.99 1548.3 3192.09 1587.16 3223.23 1578.88C3238.19 1574.9 3237.09 1536.04 3205.95 1544.32ZM3324 1567.35C3323.56 1579.68 3321.64 1588.82 3332.64 1596.14L3347.04 1575.98C3340.7 1567.1 3334.72 1566.05 3324 1567.35Z" fill="#F5B301"/>
<path d="M1176.16 1302.47C1238.68 1304.89 1314.99 1319.01 1374.83 1337.03C1385.05 1340.11 1412.21 1345.81 1418.01 1348.55C1647.02 1456.25 1792.21 1667.66 1844.13 1904.23L1849.89 1953.17C1785.33 1982.17 1677.96 2083.62 1631.08 2140.32C1561.96 2223.89 1485.31 2331.27 1441.05 2433.98C1382.31 2570.34 1344.03 2703.09 1325.87 2848.58C1323.51 2867.54 1330.75 2879.66 1331.63 2888.88C1335.99 2935.06 1337.71 2966.68 1348.91 3009.8C1360.11 3052.91 1374.05 3102.55 1400.73 3142.23C1407.11 3151.71 1412.83 3164.19 1418.01 3173.91L1369.07 3196.95C1295.53 3222.75 1213.94 3235.38 1132.98 3243C1085.94 3247.44 1042.01 3229.89 1000.55 3219.97C941.131 3205.77 879.894 3195.07 822.036 3162.39C612.946 3044.25 465.533 2879.3 381.537 2658.53C332.439 2529.5 300.642 2379.61 312.441 2238.17C317.741 2174.64 314.6 2121.82 323.959 2059.66C330.899 2013.52 338.52 1982.79 352.759 1938.75C401.257 1788.58 458.833 1681.16 565.808 1564.46C688.622 1430.49 892.034 1337.54 1058.15 1308.22C1094.84 1301.74 1136.48 1300.92 1176.2 1302.46L1176.16 1302.47ZM870.975 1434.91C862.835 1435.13 855.616 1433.09 847.936 1437.79C819.617 1455.13 798.499 1488.61 778.84 1518.41C733.962 1586.46 703.443 1657.12 680.944 1731.45C664.045 1787.29 649.046 1842.53 640.646 1898.45C618.327 2046.74 629.386 2198.05 663.685 2336.09C688.883 2437.54 728.921 2562.5 790.358 2652.79C873.754 2775.35 962.43 2866.1 1092.66 2937.82C1120.74 2953.28 1169.16 2979.92 1196.32 2983.88C1206.02 2985.3 1252.24 2985.92 1259.66 2983.88C1269.36 2981.2 1269.16 2964.38 1268.3 2955.08C1258.5 2956.46 1250.68 2948.18 1242.38 2943.56C1118.7 2874.78 968.669 2752.07 882.473 2635.49C839.975 2578 812.278 2510.86 784.58 2445.46C671.225 2136.86 675.845 1771.89 847.917 1483.83C862.916 1470.99 873.975 1456.23 870.955 1434.89L870.975 1434.91ZM1498.63 2223.79C1495.51 2214.35 1503.48 2212.41 1504.38 2209.4C1505.8 2204.62 1502.96 2196.9 1504.38 2192.12C1513.3 2162.08 1534.84 2122.14 1538.94 2094.22C1541.4 2077.36 1540.26 2043.12 1538.94 2025.12C1536.92 1997.68 1527.04 1964.87 1521.66 1938.75C1517.62 1919.03 1516.72 1893.31 1510.14 1875.41C1505.04 1861.57 1489.29 1844.73 1487.11 1829.35C1428.93 1753.87 1342.03 1710.52 1242.38 1722.82C1240.26 1723.08 1238.82 1728.2 1236.62 1728.58C1218.64 1731.72 1201.6 1733.06 1184.8 1740.1C1170.2 1746.2 1152.56 1756.72 1138.74 1763.14C1068.07 1795.92 1009.31 1870.83 980.388 1944.52C971.629 1966.86 964.31 1995.85 957.35 2019.38C953.25 2033.28 941.93 2058.54 940.07 2071.2C933.071 2119.04 942.491 2173.27 951.591 2215.15C952.731 2220.39 950.291 2227.63 951.591 2232.43C952.231 2234.81 963.27 2251.77 965.99 2252.59C968.97 2253.47 980.428 2254.63 980.388 2249.71C978.289 2221.85 983.288 2190.64 980.388 2163.34C980.168 2161.24 974.949 2159.74 974.629 2157.58C972.03 2140.06 979.508 2130.26 980.388 2123.02C983.908 2094.28 983.329 2086.56 991.909 2059.68C1005.35 2017.58 1025.39 1963.54 1049.49 1927.25C1090.32 1865.71 1159.96 1826.75 1230.88 1809.19C1233.18 1808.63 1234.48 1803.81 1236.64 1803.43C1250.04 1801.05 1309.61 1801.05 1323.01 1803.43C1325.17 1803.81 1326.47 1808.63 1328.77 1809.19C1348.09 1813.97 1358.95 1816.75 1374.83 1826.47C1388.33 1834.73 1425.93 1867.07 1435.29 1881.17C1436.89 1883.59 1439.37 1895.47 1441.05 1898.45C1443.29 1902.43 1451.69 1906.99 1452.57 1909.97C1477.67 1994.94 1501.84 2112.18 1481.37 2203.63C1480.87 2205.83 1476.25 2207.1 1475.61 2209.4C1472.61 2220.29 1489.17 2226.59 1498.63 2223.79ZM1233.74 2252.59C1230.6 2243.23 1238.92 2240.77 1239.5 2238.19C1244.34 2216.91 1226.64 2205.49 1207.82 2200.75C1195.3 2206.27 1177.56 2223.51 1181.9 2238.19C1182.3 2239.55 1200.68 2257.97 1202.06 2258.35C1215.04 2261.93 1222.8 2252.59 1233.74 2252.59ZM965.97 2361.99C963.05 2362.85 950.091 2376.13 951.571 2382.15C989.25 2414.56 997.549 2352.57 965.97 2361.99ZM1285.55 2436.85L1259.64 2431.08C1255.54 2437.38 1241.44 2438.3 1239.48 2445.48C1238.32 2449.76 1238.76 2463.18 1239.48 2468.52C1242.86 2493.4 1286.85 2484.48 1291.29 2468.52C1294.79 2455.94 1285.77 2447.98 1285.55 2436.85ZM960.231 2517.46C953.051 2519.42 952.132 2533.52 945.832 2537.62C949.112 2549.06 952.19 2561.6 965.99 2563.54C978.409 2565.28 988.03 2563.02 994.79 2552.02C1008.11 2530.28 982.71 2511.32 960.231 2517.46ZM1112.82 2638.39C1103.4 2641.51 1101.4 2633.49 1098.42 2632.63C1087.47 2629.45 1082.63 2640.07 1072.51 2638.39V2672.95C1082.61 2671.25 1087.45 2681.89 1098.42 2678.71C1101.4 2677.85 1103.38 2669.83 1112.82 2672.95C1109.88 2663.51 1120.56 2660.13 1118.58 2652.79C1117.82 2649.95 1109.68 2647.79 1112.82 2638.39ZM629.126 2759.31C619.946 2755.63 602.368 2766.35 600.328 2773.71C596.268 2788.47 603.248 2817.21 600.328 2834.17C633.967 2837.85 620.607 2807.63 623.367 2785.23L629.126 2759.31ZM750.04 2776.59C736.461 2773.33 722.201 2786.53 715.481 2796.75C704.402 2813.62 701.862 2836.07 698.202 2854.33C697.762 2856.57 692.763 2857.94 692.443 2860.08C689.643 2879.16 690.023 2932.62 692.443 2952.22C692.703 2954.34 697.822 2955.78 698.202 2957.98C699.442 2965.04 696.762 2974.34 698.202 2981.02C698.622 2982.94 714.101 3013.5 715.481 3015.58C729.261 3036.36 745.88 3044.35 761.539 3021.33C763.419 3014.83 751.821 3003.16 750.021 2998.3C734.502 2956.2 733.082 2859.34 744.262 2814.02L750.04 2776.59Z" fill="black"/>
<path d="M1705.92 3433.03C1704.38 3434.07 1699.68 3431.45 1697.28 3433.03C1653.72 3461.75 1614.84 3490.37 1564.84 3513.65C1385.77 3597.03 1146.02 3656.97 948.712 3669.13C891.714 3672.65 839.197 3665.38 787.479 3657.6C752.621 3652.36 733.742 3649.92 701.104 3640.32C578.83 3604.41 484.313 3539.39 378.638 3467.57C371.039 3462.41 362.501 3455.32 352.722 3456.06C353.022 3455.86 351.46 3452.45 355.6 3450.29C371.899 3441.83 407.479 3422.54 416.059 3407.12C417.578 3404.4 414.979 3399.56 416.059 3398.48C417.138 3397.4 426.497 3399.56 427.577 3398.48C438.476 3400.54 445.416 3410.5 453.496 3415.76C522.473 3460.54 635.728 3487.79 712.624 3502.13C920.774 3540.95 1134.36 3501.05 1328.76 3456.07C1397.33 3440.22 1456.69 3426.29 1524.55 3404.26C1563.86 3391.48 1581.66 3378.84 1613.8 3363.96C1647.82 3348.18 1683.62 3340.46 1720.34 3317.9C1735.75 3308.42 1745.37 3296.18 1760.63 3289.1C1763.01 3288 1764.13 3284.24 1766.39 3283.34C1770.91 3281.52 1779.11 3286.4 1783.67 3277.58C1810.15 3281.26 1814.85 3302.2 1809.59 3326.52C1809.01 3329.2 1788.95 3363.64 1786.55 3366.82C1766.43 3393.68 1744.77 3400.44 1720.34 3415.76C1714.36 3419.5 1707.38 3432.03 1705.92 3433.03Z" fill="#F5B301"/>
<path d="M3663.75 2603.83C3655.67 2602.75 3645.15 2605.47 3637.83 2603.83C3637.15 2603.63 3627.45 2598.75 3626.31 2598.07C3622.35 2595.71 3603.23 2576.44 3600.39 2572.16C3596.65 2566.52 3584.85 2537.96 3583.11 2531.86C3577.31 2511.46 3579.61 2490 3577.35 2468.52C3577.13 2466.42 3571.75 2464.82 3571.59 2462.76C3567.77 2415.76 3575.17 2359.01 3588.87 2318.81C3592.27 2299.79 3607.73 2288.75 3620.55 2275.63L3649.35 2269.87C3653.91 2278.69 3662.07 2273.81 3666.63 2275.63C3668.89 2276.53 3670.01 2280.29 3672.39 2281.39C3674.15 2282.21 3676.88 2280.65 3678.14 2281.39C3682.1 2283.75 3701.22 2303.03 3704.06 2307.31C3707.8 2312.95 3719.6 2341.51 3721.34 2347.61C3722.7 2352.39 3720.08 2359.83 3721.34 2364.89C3727.58 2390 3735.2 2419.34 3738.62 2445.5C3739.86 2455.06 3735.04 2469.88 3741.5 2477.18C3747.84 2471.72 3751.66 2464 3755.9 2457.02C3771.1 2431.98 3779.84 2408.74 3790.46 2382.16C3799.6 2359.23 3813.06 2331.57 3819.26 2307.31C3830.26 2264.29 3837.86 2214.03 3842.3 2169.11C3843.68 2155.25 3841.34 2140 3842.3 2125.94C3840.02 2123.66 3807.96 2127.9 3799.12 2125.94C3797.02 2125.48 3795.82 2121.16 3793.36 2120.18C3775.66 2113.16 3755.32 2099.2 3744.42 2082.74C3743.16 2080.84 3727.66 2050.08 3727.14 2048.18C3725.84 2043.38 3728.28 2036.14 3727.14 2030.9C3726.64 2028.64 3721.7 2027.28 3721.38 2025.14C3719.82 2014.44 3722.76 2001.5 3721.38 1990.58C3721.1 1988.44 3715.82 1986.9 3715.62 1984.82C3713.62 1962.91 3713 1919.73 3715.62 1898.45C3715.88 1896.35 3720.98 1894.89 3721.38 1892.69C3725.24 1870.93 3724.38 1867.33 3732.9 1846.63C3738.68 1832.57 3745.64 1811.27 3758.82 1803.45C3760.06 1802.71 3762.8 1804.27 3764.58 1803.45C3767.08 1802.31 3768.3 1798.15 3770.34 1797.69C3775.9 1796.45 3799.34 1796.45 3804.9 1797.69C3806.94 1798.15 3808.16 1802.31 3810.66 1803.45C3812.44 1804.27 3815.18 1802.71 3816.42 1803.45C3820.4 1805.81 3839.5 1825.09 3842.34 1829.37C3856.2 1850.25 3864.48 1886.71 3871.14 1909.98C3876.24 1927.88 3884.9 1949.19 3888.42 1967.57C3889.82 1974.88 3883.28 1988.87 3894.17 1987.73C3889.38 1974.43 3903.7 1963.43 3905.7 1956.05C3964.15 1740.28 3949.23 1480.17 3876.9 1276.56C3870.4 1273.66 3872.18 1266.78 3871.14 1265.04C3861.32 1248.56 3834.68 1242.44 3842.34 1216.1C3846.96 1216.74 3852.96 1214.98 3856.74 1216.1C3858.9 1216.74 3885.32 1237.94 3888.42 1242.02C3891.3 1245.84 3897.19 1259.82 3899.93 1265.06C3928.75 1320.12 3944.69 1380.27 3957.51 1437.81C4003.25 1642.98 4016.97 1904.47 3894.17 2088.5C3902.79 2267.99 3857.48 2447.52 3727.18 2577.96C3702.12 2708.97 3632.41 2841.65 3548.67 2952.24C3540.13 2963.52 3520.45 2976.56 3505.49 2972.4C3492.13 2968.68 3487.65 2941.68 3491.09 2929.22C3492.01 2925.9 3504.73 2917.12 3508.37 2911.94C3579.05 2811.46 3618.81 2730.29 3658.09 2618.27C3659.25 2614.93 3666.91 2613.37 3663.85 2603.87L3663.75 2603.83ZM3787.54 1843.75C3784.7 1848.21 3774.1 1854.85 3773.14 1858.15C3762.56 1895.01 3757.24 1942.35 3761.62 1984.82C3761.84 1986.9 3767.06 1988.42 3767.38 1990.58C3769.72 2006.06 3767.38 2022.1 3773.14 2036.64C3773.8 2038.3 3778.2 2047 3778.9 2048.16C3780.72 2051.22 3803.04 2073.58 3804.82 2074.08C3818.58 2077.88 3839.96 2076.58 3842.26 2059.68C3843.68 2049.22 3843.3 2030.24 3842.26 2019.38C3838.34 1978.13 3826.26 1930.97 3813.46 1892.71C3810.18 1882.89 3808.12 1867.87 3801.94 1858.15C3798.8 1853.21 3791.4 1848.83 3787.54 1843.75ZM3675.26 2552.02C3676 2545.58 3674.08 2537.8 3675.26 2531.86C3681.92 2498.52 3685.57 2441.94 3681.03 2405.19C3680.35 2399.63 3671.11 2377.43 3669.51 2370.63C3667.39 2361.65 3669.71 2351.78 3663.75 2341.82C3659.81 2335.21 3648.65 2328.59 3643.59 2321.67C3641.59 2321.67 3629.85 2339.44 3629.19 2341.82C3615.75 2391.08 3621.55 2473.46 3634.95 2520.34C3636.01 2524.06 3633.71 2528.74 3634.95 2531.86C3636.31 2535.3 3646.41 2551.2 3649.35 2552.02C3656.09 2553.88 3667.38 2550.78 3675.26 2552.02Z" fill="black"/>
<path d="M427.575 3398.48C426.495 3399.56 417.137 3397.4 416.057 3398.48C414.977 3399.56 417.577 3404.4 416.057 3407.12C407.457 3422.54 371.878 3441.83 355.598 3450.29C351.459 3452.45 353.02 3455.92 352.72 3456.06C350.26 3457.12 339.159 3461.68 338.319 3461.82C329.619 3463.34 318.481 3460.48 309.521 3461.82C307.362 3462.14 305.862 3467.35 303.762 3467.57C291.603 3468.83 269.642 3469.05 257.703 3467.57C255.603 3467.31 254.143 3462.22 251.944 3461.82C244.904 3460.56 235.685 3463.22 228.905 3461.82C218.286 3459.62 198.367 3449 182.848 3444.54C179.508 3443.58 131.21 3414.02 125.27 3409.98C64.0527 3368.38 20.7757 3290.62 7.21632 3222.82C6.77634 3220.58 1.77485 3219.21 1.45487 3217.07C-0.345048 3204.81 -0.625034 3165.43 1.45487 3153.73C1.83485 3151.59 6.55635 3150.31 7.21632 3147.97C10.9561 3134.77 16.8937 3113.33 24.4933 3101.91C35.1328 3085.91 54.2731 3067.37 67.6725 3052.97C86.5916 3043.85 107.611 3039.67 125.25 3029.93C195.087 3024.99 244.785 3034.98 303.762 3070.23C360.54 3104.19 421.936 3172.51 444.835 3234.35C445.895 3237.19 450.414 3250.65 450.594 3251.63C452.134 3260.29 449.294 3271.42 450.594 3280.42C451.294 3285.24 459.295 3293.12 456.355 3309.22C455.955 3311.42 450.914 3312.84 450.594 3314.98C448.354 3330.38 450.395 3345.86 444.835 3361.04C441.775 3369.32 430.755 3382.2 427.555 3389.84C426.256 3392.94 428.575 3397.46 427.575 3398.48Z" fill="black"/>
<path d="M1970.8 1901.33C1977.72 1912.77 1979.96 1915.23 1970.8 1927.24C1962.82 1937.72 1943.84 1955.76 1933.36 1964.68C1847.97 2037.36 1760.65 2109.22 1694.4 2203.65C1655.2 2259.53 1618.8 2319.03 1584.98 2376.4C1529.64 2470.28 1489.93 2580.27 1464.07 2681.59C1451.25 2731.85 1434.33 2789.94 1429.51 2842.82C1425.33 2888.76 1433.69 2934.02 1441.03 2975.26C1447.01 3008.92 1445.71 3045.92 1452.55 3078.91C1456.23 3096.73 1492.77 3167.07 1504.37 3182.57C1514.95 3196.69 1534.86 3203.81 1533.16 3222.87C1532.06 3235.23 1519.37 3235.95 1521.64 3248.78C1511.45 3240.54 1504.25 3245.34 1495.73 3243.02C1478.21 3238.24 1427.47 3191.73 1417.99 3173.93C1412.83 3164.21 1407.09 3151.75 1400.71 3142.25C1374.03 3102.57 1360.05 3052.87 1348.89 3009.82C1337.73 2966.76 1335.99 2935.06 1331.61 2888.9C1330.73 2879.68 1323.49 2867.56 1325.85 2848.6C1344.01 2703.11 1382.29 2570.36 1441.03 2434C1485.29 2331.27 1561.94 2223.91 1631.06 2140.34C1677.94 2083.66 1785.33 1982.18 1849.87 1953.19C1889.19 1935.53 1934.35 1918.73 1970.78 1901.37L1970.8 1901.33Z" fill="#F5B301"/>
<path d="M3398.86 1849.51C3400.9 1845.13 3397.14 1838.85 3407.5 1832.23C3467.71 1793.75 3517.89 1689.53 3537.05 1622.06C3565.63 1521.42 3575.87 1414.05 3571.61 1299.59C3567.39 1186.3 3552.89 1075.16 3525.55 971.37C3510.61 914.672 3485.71 856.675 3479.49 795.738L3502.53 815.898C3588.27 1061.77 3655.43 1347.81 3577.39 1610.54C3555.55 1684.04 3523.89 1753.27 3473.73 1812.07C3458.26 1830.21 3437.87 1840.81 3421.92 1858.13L3398.88 1849.49L3398.86 1849.51Z" fill="black"/>
<path d="M168.448 1141.24C177.267 1144.52 188.987 1130.88 194.367 1129.72C207.546 1126.86 265.405 1127.82 280.745 1129.72C282.845 1129.98 284.304 1135.09 286.504 1135.49C332.362 1143.63 369.16 1151.4 413.177 1175.78C422.117 1189.78 442.375 1194.52 450.615 1207.46C453.714 1212.34 454.815 1225.68 462.135 1230.5L456.376 1259.3C443.597 1273.96 420.158 1277 401.679 1273.7C399.539 1273.32 398.257 1268.6 395.917 1267.94C360.899 1258.02 325.001 1241.14 292.263 1233.38C259.524 1225.62 221.486 1223.5 188.608 1210.34C186.928 1209.66 178.247 1205.26 177.087 1204.58C162.488 1195.88 165.069 1183.16 156.93 1172.9L168.448 1141.24Z" fill="black"/>
<path d="M450.615 882.112L482.296 870.594C487.035 879.233 493.913 874.735 499.573 876.355C502.533 877.215 512.594 893.056 513.974 896.515C515.254 899.715 512.794 904.474 513.974 908.033C527.333 948.052 541.773 989.808 554.272 1028.95C565.312 1063.5 565.25 1085.83 571.549 1121.08C571.829 1122.7 580.731 1127.12 577.311 1138.36C576.611 1140.64 572.289 1141.8 571.549 1144.12C570.449 1147.54 572.589 1152.02 571.549 1155.64C569.249 1163.66 550.892 1170.32 545.633 1175.8H534.112C523.993 1168.56 510.334 1161.76 502.434 1149.88C499.194 1145.02 488.354 1122.72 485.154 1115.32C472.655 1086.48 451.216 1027.59 444.856 1000.15C440.016 979.289 435.077 936.269 439.097 913.77C439.477 911.611 444.276 910.314 444.856 908.014C445.816 904.234 443.696 899.691 444.856 896.491C446.076 893.091 453.655 891.611 450.615 882.112Z" fill="black"/>
<path d="M240.446 1394.59C253.166 1393.27 273.704 1393.37 286.504 1394.59C288.583 1394.79 290.123 1400.07 292.263 1400.35C309.702 1402.57 315.022 1401.09 332.561 1406.11C336.281 1407.17 340.962 1404.87 344.081 1406.11C346.321 1407.01 347.461 1410.77 349.84 1411.87C351.66 1412.71 354.44 1411.13 355.599 1411.87C366.779 1418.97 373.318 1442.99 369.998 1455.05C369.718 1456.03 356.579 1469.17 355.599 1469.45C350.8 1470.77 343.48 1468.25 338.32 1469.45C307.501 1476.61 288.142 1472.07 257.704 1475.21C255.624 1475.43 254.105 1480.65 251.945 1480.97C218.966 1485.93 207.686 1485.65 177.087 1498.25C158.108 1506.05 141.51 1514.3 125.271 1527.04C99.7121 1531.38 92.8113 1520.09 82.0918 1501.13L87.8532 1472.33C102.473 1461.23 116.691 1438.65 131.03 1429.15C132.29 1428.31 135.331 1430.05 136.791 1429.15C163.03 1413.03 172.63 1411.87 200.128 1406.11C202.368 1405.65 203.727 1400.71 205.887 1400.35C214.687 1398.89 225.725 1401.69 234.685 1400.35C236.845 1400.03 238.346 1394.81 240.446 1394.59Z" fill="black"/>
<path d="M778.843 985.772C777.763 986.852 772.923 984.252 770.203 985.772C758.964 992.052 754.123 998.593 750.043 1005.93C744.223 1016.37 721.304 1035.79 715.484 1046.23C713.964 1048.95 716.564 1053.79 715.484 1054.87C712.704 1057.65 689.126 1055.13 686.686 1046.23C683.027 1032.79 693.765 1024.17 692.445 1011.67C703.865 997.25 705.664 979.111 715.484 965.612C718.184 961.912 739.623 940.195 741.403 939.695C753.863 936.275 780.882 940.714 784.582 954.094C788.082 966.673 779.041 974.633 778.821 985.772H778.843Z" fill="black"/>
<path d="M3370.06 1861.03C3367.8 1876.07 3352.16 1893.71 3352.78 1909.97L3323.98 1935.89C3325.5 1922.21 3322.86 1906.75 3323.98 1892.71C3325.1 1878.55 3334.34 1856.41 3329.74 1835.13C3329.32 1833.17 3318.64 1819.81 3318.22 1817.85C3317.18 1813.03 3317.06 1793.35 3318.22 1789.05C3321.04 1778.65 3343.76 1777.65 3352.78 1783.29C3359.9 1787.73 3357.5 1792.93 3358.54 1794.81C3360.6 1798.53 3369.64 1810.15 3370.06 1812.09C3371.86 1820.39 3371.44 1851.83 3370.06 1861.03Z" fill="black"/>
<path d="M1176.16 1198.82C1189.66 1187.58 1197.34 1182.24 1213.6 1175.78C1216.06 1174.8 1217.26 1170.48 1219.36 1170.02C1228.26 1168.06 1241.26 1171.36 1251.04 1170.02V1193.06C1235.24 1196.02 1215.12 1205.6 1204.98 1218.98C1204.12 1220.12 1193.76 1235.2 1193.46 1236.26C1189.84 1249.37 1198.98 1265.94 1176.18 1273.69C1174.6 1263.86 1166.08 1269.35 1164.66 1267.93C1163.34 1266.61 1163.7 1235.92 1164.66 1230.5C1164.86 1229.54 1169.2 1216.66 1170.42 1213.22C1171.62 1209.86 1179.2 1208.32 1176.16 1198.82Z" fill="black"/>
<path d="M251.946 1653.71H263.466C267.566 1660.01 281.664 1660.93 283.624 1668.11C286.004 1676.83 284.044 1697.2 274.984 1699.8C271.384 1700.84 266.886 1698.7 263.466 1699.8C261.086 1700.56 259.825 1705.17 257.705 1705.55C240.846 1708.63 223.867 1704.29 220.268 1685.39C228.447 1669.91 236.387 1661.93 251.946 1653.71Z" fill="black"/>
<path d="M2673.31 1774.65C2675.57 1788.91 2666.29 1788.55 2658.91 1791.93C2656.45 1793.05 2655.27 1797.11 2653.15 1797.69C2648.25 1799.03 2640.67 1796.31 2635.87 1797.69C2560.96 1819.33 2484.28 1864.27 2417.06 1907.11C2253.33 2011.44 2125.24 2153.71 2034.14 2324.59C1987.5 2412.04 1956.62 2507.57 1930.49 2600.99C1898.67 2714.68 1894.33 2844.66 1907.45 2969.51C1913.93 3031.19 1918.09 3085.53 1936.24 3142.27C1970.08 3248.06 2035.2 3353.24 2129.16 3415.8C2172.41 3444.59 2229.11 3461.81 2278.87 3479.13C2281.87 3480.17 2294.05 3490.19 2296.15 3490.65C2309.07 3493.45 2328.61 3488.23 2342.21 3490.65C2344.33 3491.03 2345.59 3495.65 2347.97 3496.41C2351.39 3497.51 2355.88 3495.37 2359.48 3496.41C2371.76 3499.93 2371.78 3533.39 2359.48 3536.71C2352.26 3538.67 2311.15 3538.07 2301.91 3536.71C2298.07 3536.15 2278.41 3526.71 2273.11 3525.19C2184.81 3499.91 2101.94 3467.37 2025.5 3410.01C1925.41 3334.94 1852.35 3240.94 1821.09 3119.23C1818.29 3108.35 1817.65 3100.87 1815.33 3090.43C1779.43 2929.46 1783.27 2756.64 1826.85 2600.97C1899.55 2341.32 2039.16 2101.82 2267.35 1935.88C2318.45 1898.73 2376.02 1865.01 2434.34 1837.99C2464.54 1824.01 2498.52 1805.79 2532.24 1791.93C2565.2 1778.39 2613.19 1763.13 2653.15 1768.89C2654.99 1769.15 2663.25 1779.17 2673.31 1774.65Z" fill="#F5B301"/>
<path d="M2932.44 2874.48C2931.68 2880.92 2933.66 2888.76 2932.44 2894.64C2920.86 2950.82 2894.16 3017.77 2869.1 3073.15C2836.56 3145.01 2753.57 3244.1 2676.19 3266.06C2673.85 3266.72 2672.57 3271.44 2670.43 3271.82C2663.31 3273.1 2643.03 3273.08 2635.87 3271.82C2633.61 3271.42 2630.73 3262.9 2621.47 3266.06L2615.71 3240.15C2618.85 3237.73 2621.29 3233.48 2624.35 3231.5C2634.19 3225.14 2654.19 3220.46 2664.65 3214.22C2727.27 3176.87 2793.93 3104.85 2828.76 3044.35C2856.96 2995.4 2879.94 2939.94 2903.62 2888.88C2904.44 2887.12 2902.88 2884.38 2903.62 2883.12C2906.5 2878.28 2914.3 2873.78 2918.02 2868.72L2932.44 2874.48Z" fill="#F5B301"/>
<path d="M2454.5 2955.1C2462.82 2955.94 2472.5 2953.82 2480.42 2955.1C2482.6 2955.46 2484.08 2960.64 2486.18 2960.86C2506.92 2963.12 2552.12 2963.38 2572.56 2960.86C2574.66 2960.6 2576.12 2955.5 2578.32 2955.1C2605.81 2950.22 2615.31 2948.92 2641.65 2937.82C2665.21 2927.9 2684.01 2916.52 2704.99 2903.26L2725.15 2917.66L2719.39 2934.94L2670.45 2972.38C2645.61 2984.72 2621.85 2990.18 2595.6 2995.42C2593.36 2995.86 2591.98 3000.85 2589.84 3001.17C2574.94 3003.35 2504.88 3004.03 2491.94 3001.17C2489.84 3000.71 2488.64 2996.4 2486.18 2995.42C2465.38 2987.16 2450.2 2982.29 2454.5 2955.1Z" fill="#F5B301"/>
<path d="M3439.18 1705.55C3441.46 1720.01 3437.72 1732.45 3424.78 1740.11C3418.28 1743.95 3405.92 1744.13 3401.74 1745.87C3397.82 1747.51 3388.1 1756.03 3384.46 1757.39C3371.92 1762.05 3356.72 1760.91 3344.16 1763.15C3341.96 1763.55 3340.52 1768.65 3338.4 1768.91C3329.38 1770.03 3312.86 1770.03 3303.84 1768.91C3301.72 1768.65 3300.22 1763.43 3298.08 1763.15C3287.22 1761.77 3273.82 1764.97 3263.52 1763.15C3261.37 1762.77 3260.06 1757.95 3257.76 1757.39C3237.4 1752.35 3219.07 1745.55 3200.19 1740.11C3199.13 1739.81 3188.29 1731.63 3182.91 1728.59C3129.57 1698.51 3075.67 1622.86 3059.11 1564.48C3052.21 1540.16 3051.43 1526.62 3047.6 1501.14C3017.14 1298.85 3037.76 1075.8 3007.3 873.492C2991 765.237 2965.9 656.783 2920.92 556.788C2869.5 442.453 2789.87 309.057 2693.47 225.681C2645.05 183.802 2620.73 158.628 2561.04 127.79C2511.24 102.071 2466.38 84.7486 2417.08 70.2093C2384.48 60.5897 2355.27 55.6711 2324.95 41.4118C2317.73 38.012 2308.23 38.4717 2310.55 24.1323C2312.87 22.0124 2344.69 25.7523 2353.73 24.1323C2355.35 23.8524 2359.77 14.9511 2371.01 18.3709C2410.34 30.3303 2452.34 35.9338 2491.92 47.1733C2547.06 62.8125 2623.61 98.4478 2670.43 133.546C2775.21 212.102 2883.18 340.338 2938.2 458.892C2957.76 501.05 2980.94 547.07 2995.78 591.327C3020.8 665.944 3035.98 738.661 3047.6 815.897C3064.65 929.252 3070.87 1049.27 3076.39 1167.16C3081.65 1279.67 3083.23 1391.89 3082.15 1506.9C3090.81 1513.96 3090.09 1531.54 3093.67 1541.46C3107.97 1581.14 3147.01 1643.38 3174.29 1673.89C3201.57 1704.41 3224.67 1718.97 3263.54 1728.59C3265.84 1729.15 3267.14 1733.97 3269.3 1734.35C3279.58 1736.17 3293 1732.97 3303.86 1734.35C3305.98 1734.63 3307.5 1739.85 3309.62 1740.11C3318.36 1741.21 3335.62 1741.37 3344.18 1740.11C3346.32 1739.79 3347.7 1734.79 3349.94 1734.35C3367.22 1730.91 3383.66 1728.17 3401.76 1722.83C3407.84 1721.03 3423.42 1699.03 3439.18 1705.55Z" fill="black"/>
<path d="M1930.49 738.159C1914.97 742.759 1916.57 726.083 1918.97 718.004C1919.93 714.804 1932.39 705.724 1936.25 700.724C1987.64 634.127 2072.12 559.65 2140.66 519.331C2209.63 478.773 2279.57 441.056 2353.71 427.197C2423.24 414.218 2542.12 405.495 2612.84 415.674C2614.68 415.934 2622.93 425.955 2632.99 421.436C2611.25 392.177 2588.32 366.518 2561.02 340.819C2497.02 280.582 2418.1 227.143 2336.45 191.105C2279.83 166.106 2248.11 158.588 2186.73 150.809C2184.59 150.529 2183.06 145.247 2180.98 145.047C2120.86 139.567 2056.48 145.911 2002.46 156.57C1994.46 158.15 1990.26 163.747 1985.18 162.327C1969.72 157.967 1980.9 136.489 1990.94 133.529C1998.92 131.169 2011.48 129.888 2019.74 127.768C2093.82 108.729 2181.51 112.908 2255.83 127.768C2355.81 147.767 2454.88 192.109 2537.98 254.446C2676.83 358.621 2753.99 478.312 2805.75 643.124C2806.47 645.384 2810.67 646.546 2811.51 648.886C2817.28 665.145 2806.29 665.025 2794.23 663.285C2759.59 616.207 2727.45 557.27 2696.33 504.933C2683.83 499.633 2665.83 457.894 2658.89 455.995C2652.79 454.315 2642.87 457.274 2635.85 455.995C2548.74 440.175 2454.34 444.294 2370.97 467.513C2302.85 486.472 2230.33 511.474 2163.68 542.372C2127.1 559.331 2063.22 608.608 2031.24 634.507C1994.96 663.885 1962.45 714.32 1930.49 738.159Z" fill="black"/>
<path d="M1803.81 248.702C1808.81 253.101 1794.21 268.683 1789.41 271.743C1783.13 275.742 1767.1 279.261 1760.62 283.261C1658.26 346.338 1532.53 468.031 1464.07 568.286C1408.77 649.282 1352.69 739.361 1325.88 833.176C1308.92 892.473 1295.8 966.408 1302.84 1034.7C1303.06 1036.78 1308.28 1038.31 1308.6 1040.47C1310.96 1056.15 1307.14 1064.48 1314.36 1080.76C1319.8 1093.04 1321.92 1095.8 1325.88 1109.56C1326.18 1110.62 1336.28 1125.28 1337.4 1126.84C1349.32 1143.24 1416.53 1194.5 1432.41 1198.82C1437.35 1200.16 1445.07 1197.36 1449.69 1198.82C1452.03 1199.56 1453.23 1203.99 1455.45 1204.57C1501.85 1216.59 1559.67 1223.99 1605.16 1204.57C1625.18 1201.33 1633.78 1222.52 1616.68 1233.38C1615.52 1234.12 1612.74 1232.54 1610.92 1233.38C1608.54 1234.48 1607.4 1238.23 1605.16 1239.13C1579.65 1249.25 1526.69 1254.48 1495.75 1250.66C1490.29 1249.98 1467.79 1240.61 1461.19 1239.13C1410.01 1227.71 1392.13 1222.91 1346.02 1193.08C1309.26 1169.28 1268.98 1136.86 1251 1098.06C1243.1 1081.02 1243.08 1075.78 1239.48 1057.77C1239.04 1055.53 1234.04 1054.14 1233.72 1052C1232.16 1041.3 1235.12 1028.36 1233.72 1017.44C1233.44 1015.32 1228.22 1013.8 1227.96 1011.68C1224.38 982.945 1238.28 913.768 1245.24 885.01C1258.44 830.472 1283.92 776.935 1308.58 723.777C1327.92 682.079 1362.93 628.885 1389.19 591.347C1470.65 474.912 1588.44 350.075 1714.54 277.519C1724.68 271.679 1758.78 250.381 1766.36 248.721C1776.85 246.441 1792.32 250.301 1803.8 248.721L1803.81 248.702Z" fill="black"/>
<path d="M3064.87 1780.41C3063.33 1770.83 3065.93 1758.89 3064.87 1748.73C3079.65 1726.29 3102.75 1706.2 3131.09 1711.3C3133.11 1711.66 3134.35 1716.01 3136.85 1717.05C3139.95 1718.35 3144.45 1716.05 3145.49 1717.05C3146.25 1717.77 3148.83 1732.93 3151.25 1737.21C3143.89 1740.17 3146.05 1751.07 3145.49 1751.61C3144.43 1752.61 3139.95 1750.31 3136.85 1751.61C3134.87 1752.43 3126.37 1756.75 3125.33 1757.37C3103.95 1770.39 3107.69 1792.15 3070.63 1786.17C3065.43 1785.33 3065.71 1785.61 3064.87 1780.41Z" fill="black"/>
<path d="M1441.05 1331.25C1440.67 1332.09 1428.57 1337.65 1426.65 1342.77H1418.01C1405.67 1323.93 1416.07 1298.01 1412.25 1276.55C1412.05 1275.43 1405.25 1263.99 1403.61 1256.39C1401.99 1248.91 1400.37 1241.71 1409.37 1239.11C1418.37 1236.51 1433.55 1247.35 1435.29 1253.51C1436.31 1257.13 1434.21 1261.62 1435.29 1265.04C1436.03 1267.36 1440.39 1268.53 1441.05 1270.79C1442.43 1275.47 1439.85 1282.89 1441.05 1288.07C1441.55 1290.27 1446.09 1291.49 1446.81 1293.83C1450.23 1305.09 1441.45 1309.21 1441.05 1311.11C1439.81 1317.07 1442.79 1327.35 1441.05 1331.27V1331.25Z" fill="black"/>
<path d="M2039.9 432.953C2036.74 442.272 2045.1 444.816 2045.66 447.356C2050.72 470.275 2029.9 484.954 2008.22 479.034C2001.04 477.074 2000.12 462.974 1993.82 458.874C1999.38 430.476 2013.66 430.913 2039.9 432.953Z" fill="black"/>
<path d="M3234.74 1233.36C3257.24 1227.26 3282.62 1246.15 3269.3 1267.91C3254.44 1292.15 3221.89 1277.92 3226.13 1247.76C3226.91 1242.14 3229.82 1234.7 3234.74 1233.36Z" fill="black"/>
<path d="M2270.23 340.838C2262.07 313.559 2289.85 282.982 2307.67 312.04C2318.01 328.9 2300.73 351.259 2284.63 346.599C2281.65 345.739 2279.67 337.718 2270.23 340.838Z" fill="black"/>
<path d="M2140.68 208.382C2180.68 197.142 2172.73 267.221 2137.8 245.822C2120.62 235.302 2125.6 212.622 2140.68 208.382Z" fill="black"/>
<path d="M2183.85 398.417C2194.03 399.977 2198.71 389.656 2209.77 392.656C2224.17 396.575 2225.39 442.131 2192.49 432.951C2181.11 429.772 2183.77 408.236 2183.85 398.417Z" fill="black"/>
<path d="M2051.42 317.804C2054.56 308.404 2046.42 306.265 2045.66 303.405C2043.68 296.065 2054.36 292.684 2051.42 283.245C2071.9 280.385 2092.9 283.723 2085.98 309.162C2082.9 320.501 2061.18 317.904 2051.42 317.804Z" fill="black"/>
<path d="M3416.14 1342.77V1371.57L3395.98 1377.33C3376.36 1362.03 3377 1351.85 3395.98 1337.03L3416.14 1342.77Z" fill="black"/>
<path d="M3226.11 1406.11L3231.87 1426.27C3216.57 1445.89 3206.39 1445.25 3191.57 1426.27L3197.33 1406.11H3226.13H3226.11Z" fill="black"/>
<path d="M3205.95 1544.32C3237.09 1536.02 3238.17 1574.88 3223.23 1578.88C3192.09 1587.18 3191.01 1548.32 3205.95 1544.32Z" fill="black"/>
<path d="M2267.35 191.132C2293.85 183.533 2293.85 227.529 2267.35 219.93C2255.89 216.63 2255.89 194.432 2267.35 191.132Z" fill="black"/>
<path d="M1990.96 202.629C2002.22 199.529 2020.86 226.147 2002.48 231.427C1980.93 237.606 1975.73 206.829 1990.96 202.629Z" fill="black"/>
<path d="M3324 1567.34C3334.72 1566.04 3340.68 1567.1 3347.04 1575.98L3332.64 1596.14C3321.64 1588.84 3323.56 1579.7 3324 1567.34Z" fill="black"/>
<path d="M870.978 1434.91C873.997 1456.25 862.938 1471.01 847.939 1483.85C675.847 1771.91 671.248 2136.88 784.602 2445.48C812.301 2510.88 840 2578.01 882.498 2635.51C968.674 2752.11 1118.71 2874.8 1242.4 2943.58C1250.68 2948.2 1258.5 2956.48 1268.32 2955.1C1269.2 2964.39 1269.38 2981.21 1259.68 2983.89C1252.26 2985.93 1206.04 2985.31 1196.34 2983.89C1169.18 2979.91 1120.77 2953.29 1092.69 2937.84C962.455 2866.1 873.757 2775.34 790.381 2652.81C728.944 2562.51 688.906 2437.56 663.707 2336.11C629.409 2198.07 618.35 2046.76 640.669 1898.47C649.088 1842.55 664.088 1787.31 680.967 1731.48C703.466 1657.14 733.985 1586.46 778.863 1518.42C798.522 1488.63 819.64 1455.15 847.959 1437.81C855.638 1433.11 862.858 1435.15 870.997 1434.93L870.978 1434.91Z" fill="#F5B301"/>
<path d="M1498.63 2223.79C1489.17 2226.59 1472.59 2220.29 1475.59 2209.39C1476.23 2207.09 1480.85 2205.83 1481.35 2203.63C1501.83 2112.18 1477.65 1994.94 1452.55 1909.96C1451.67 1906.98 1443.27 1902.42 1441.03 1898.45C1439.35 1895.47 1436.87 1883.59 1435.27 1881.17C1425.91 1867.05 1388.29 1834.71 1374.81 1826.47C1358.93 1816.75 1348.07 1813.97 1328.76 1809.19C1326.46 1808.63 1325.16 1803.81 1323 1803.43C1309.6 1801.05 1250.02 1801.05 1236.62 1803.43C1234.46 1803.81 1233.16 1808.63 1230.86 1809.19C1159.96 1826.73 1090.33 1865.69 1049.47 1927.24C1025.37 1963.56 1005.33 2017.6 991.892 2059.68C983.312 2086.56 983.891 2094.28 980.371 2123.01C979.491 2130.25 972.012 2140.03 974.612 2157.57C974.932 2159.73 980.151 2161.24 980.371 2163.34C983.271 2190.63 978.271 2221.85 980.371 2249.71C980.371 2254.63 968.952 2253.47 965.973 2252.59C963.253 2251.79 952.234 2234.81 951.574 2232.43C950.274 2227.63 952.714 2220.39 951.574 2215.15C942.474 2173.27 933.054 2119.01 940.053 2071.2C941.913 2058.54 953.233 2033.26 957.333 2019.38C964.292 1995.84 971.612 1966.86 980.371 1944.52C1009.29 1870.83 1068.05 1795.91 1138.73 1763.13C1152.57 1756.71 1170.2 1746.21 1184.78 1740.09C1201.6 1733.05 1218.64 1731.71 1236.6 1728.58C1238.8 1728.2 1240.24 1723.07 1242.36 1722.81C1342.01 1710.51 1428.91 1753.87 1487.09 1829.35C1489.27 1844.73 1505.03 1861.56 1510.13 1875.4C1516.71 1893.3 1517.59 1919.05 1521.65 1938.75C1527.01 1964.86 1536.91 1997.68 1538.93 2025.12C1540.25 2043.12 1541.39 2077.36 1538.93 2094.22C1534.85 2122.12 1513.29 2162.07 1504.37 2192.11C1502.95 2196.89 1505.79 2204.59 1504.37 2209.39C1503.47 2212.41 1495.51 2214.35 1498.63 2223.79Z" fill="#F5B301"/>
<path d="M750.042 2776.59L744.283 2814.03C733.103 2859.32 734.522 2956.2 750.042 2998.3C751.822 3003.16 763.442 3014.82 761.562 3021.34C745.883 3044.36 729.282 3036.36 715.502 3015.58C714.122 3013.5 698.645 2982.96 698.225 2981.02C696.785 2974.34 699.465 2965.06 698.225 2957.98C697.845 2955.78 692.724 2954.34 692.464 2952.22C690.044 2932.62 689.664 2879.16 692.464 2860.08C692.784 2857.94 697.785 2856.57 698.225 2854.33C701.885 2836.07 704.403 2813.61 715.502 2796.75C722.222 2786.53 736.462 2773.33 750.042 2776.59Z" fill="#F5B301"/>
<path d="M1233.74 2252.59C1222.82 2252.59 1215.06 2261.93 1202.06 2258.35C1200.68 2257.97 1182.3 2239.57 1181.9 2238.19C1177.56 2223.53 1195.3 2206.27 1207.82 2200.75C1226.64 2205.49 1244.34 2216.91 1239.5 2238.19C1238.92 2240.77 1230.6 2243.23 1233.74 2252.59Z" fill="#F5B301"/>
<path d="M1285.55 2436.84C1285.77 2447.96 1294.82 2455.94 1291.32 2468.52C1286.88 2484.48 1242.88 2493.4 1239.5 2468.52C1238.78 2463.18 1238.34 2449.76 1239.5 2445.48C1241.46 2438.3 1255.56 2437.38 1259.66 2431.08L1285.55 2436.84Z" fill="#F5B301"/>
<path d="M960.233 2517.45C982.692 2511.31 1008.09 2530.27 994.792 2552.01C988.052 2563.01 978.411 2565.27 965.992 2563.53C952.192 2561.59 949.114 2549.05 945.834 2537.61C952.134 2533.51 953.053 2519.41 960.233 2517.45Z" fill="#F5B301"/>
<path d="M629.126 2759.3L623.367 2785.23C620.607 2807.62 633.967 2837.84 600.328 2834.16C603.248 2817.18 596.269 2788.47 600.328 2773.71C602.348 2766.35 619.926 2755.64 629.126 2759.3Z" fill="#F5B301"/>
<path d="M1112.83 2638.39C1109.69 2647.79 1117.82 2649.93 1118.58 2652.79C1120.56 2660.13 1109.89 2663.51 1112.83 2672.95C1103.41 2669.83 1101.41 2677.85 1098.43 2678.71C1087.47 2681.89 1082.63 2671.27 1072.51 2672.95V2638.39C1082.61 2640.09 1087.45 2629.45 1098.43 2632.63C1101.41 2633.49 1103.39 2641.51 1112.83 2638.39Z" fill="#F5B301"/>
<path d="M965.971 2361.98C997.55 2352.56 989.251 2414.56 951.572 2382.14C950.092 2376.12 963.051 2362.86 965.971 2361.98Z" fill="#F5B301"/>
</g>
<defs>
<clipPath id="clip0_9001_3664">
<rect width="3990.46" height="3670.04" fill="white"/>
</clipPath>
</defs>
</svg>
